%TF.GenerationSoftware,KiCad,Pcbnew,9.0.2*%
%TF.CreationDate,2026-06-16T13:28:00-04:00*%
%TF.ProjectId,tamagotchi,74616d61-676f-4746-9368-692e6b696361,rev?*%
%TF.SameCoordinates,Original*%
%TF.FileFunction,Copper,L1,Top*%
%TF.FilePolarity,Positive*%
%FSLAX46Y46*%
G04 Gerber Fmt 4.6, Leading zero omitted, Abs format (unit mm)*
G04 Created by KiCad (PCBNEW 9.0.2) date 2026-06-16 13:28:00*
%MOMM*%
%LPD*%
G01*
G04 APERTURE LIST*
G04 Aperture macros list*
%AMRoundRect*
0 Rectangle with rounded corners*
0 $1 Rounding radius*
0 $2 $3 $4 $5 $6 $7 $8 $9 X,Y pos of 4 corners*
0 Add a 4 corners polygon primitive as box body*
4,1,4,$2,$3,$4,$5,$6,$7,$8,$9,$2,$3,0*
0 Add four circle primitives for the rounded corners*
1,1,$1+$1,$2,$3*
1,1,$1+$1,$4,$5*
1,1,$1+$1,$6,$7*
1,1,$1+$1,$8,$9*
0 Add four rect primitives between the rounded corners*
20,1,$1+$1,$2,$3,$4,$5,0*
20,1,$1+$1,$4,$5,$6,$7,0*
20,1,$1+$1,$6,$7,$8,$9,0*
20,1,$1+$1,$8,$9,$2,$3,0*%
G04 Aperture macros list end*
%TA.AperFunction,ComponentPad*%
%ADD10C,1.600000*%
%TD*%
%TA.AperFunction,ComponentPad*%
%ADD11R,1.700000X1.700000*%
%TD*%
%TA.AperFunction,ComponentPad*%
%ADD12C,1.700000*%
%TD*%
%TA.AperFunction,ComponentPad*%
%ADD13C,2.500000*%
%TD*%
%TA.AperFunction,ComponentPad*%
%ADD14C,1.800000*%
%TD*%
%TA.AperFunction,SMDPad,CuDef*%
%ADD15R,1.000000X2.500000*%
%TD*%
%TA.AperFunction,SMDPad,CuDef*%
%ADD16R,2.200000X2.500000*%
%TD*%
%TA.AperFunction,ComponentPad*%
%ADD17C,1.524000*%
%TD*%
%TA.AperFunction,ComponentPad*%
%ADD18RoundRect,0.275000X0.975000X0.275000X-0.975000X0.275000X-0.975000X-0.275000X0.975000X-0.275000X0*%
%TD*%
%TA.AperFunction,ComponentPad*%
%ADD19R,2.000000X2.000000*%
%TD*%
%TA.AperFunction,ComponentPad*%
%ADD20C,2.000000*%
%TD*%
%TA.AperFunction,ViaPad*%
%ADD21C,0.600000*%
%TD*%
%TA.AperFunction,Conductor*%
%ADD22C,0.200000*%
%TD*%
G04 APERTURE END LIST*
D10*
%TO.P,SW1,1,1*%
%TO.N,GND*%
X132100000Y-113800000D03*
X136900000Y-113800000D03*
%TO.P,SW1,2,2*%
%TO.N,Net-(U1-GPIO2_A0_D0)*%
X132100000Y-116800000D03*
X136900000Y-116800000D03*
%TD*%
D11*
%TO.P,BT1,1,+*%
%TO.N,GND*%
X148225000Y-65250000D03*
D12*
%TO.P,BT1,2,-*%
%TO.N,+BATT*%
X150765000Y-65250000D03*
%TD*%
D10*
%TO.P,R2,1*%
%TO.N,Net-(U1-GPIO8_D8_SCK)*%
X165790000Y-75900000D03*
%TO.P,R2,2*%
%TO.N,Net-(D2-A)*%
X173410000Y-75900000D03*
%TD*%
%TO.P,SW2,1,1*%
%TO.N,GND*%
X146900000Y-113800000D03*
X151700000Y-113800000D03*
%TO.P,SW2,2,2*%
%TO.N,Net-(U1-GPIO4_A2_D2)*%
X146900000Y-116800000D03*
X151700000Y-116800000D03*
%TD*%
D13*
%TO.P,U2,*%
%TO.N,*%
X137415000Y-76860000D03*
X137415000Y-100660000D03*
X160715000Y-76860000D03*
X160715000Y-100660000D03*
D14*
%TO.P,U2,1,GND*%
%TO.N,GND*%
X145255000Y-76300000D03*
%TO.P,U2,2,VCC*%
%TO.N,+3V3*%
X147795000Y-76300000D03*
%TO.P,U2,3,SCL*%
%TO.N,Net-(U1-GPIO7_D5_SCL)*%
X150335000Y-76300000D03*
%TO.P,U2,4,SDA*%
%TO.N,Net-(U1-GPIO6_D4_SDA)*%
X152875000Y-76300000D03*
%TD*%
D10*
%TO.P,R1,1*%
%TO.N,Net-(U1-GPIO20_D7_RX)*%
X123290000Y-76300000D03*
%TO.P,R1,2*%
%TO.N,Net-(D1-A)*%
X130910000Y-76300000D03*
%TD*%
D15*
%TO.P,D2,1,K*%
%TO.N,GND*%
X165000000Y-69900000D03*
D16*
%TO.P,D2,2,A*%
%TO.N,Net-(D2-A)*%
X167000000Y-69900000D03*
%TD*%
D15*
%TO.P,D1,1,K*%
%TO.N,GND*%
X131000000Y-70000000D03*
D16*
%TO.P,D1,2,A*%
%TO.N,Net-(D1-A)*%
X133000000Y-70000000D03*
%TD*%
D10*
%TO.P,SW3,1,1*%
%TO.N,GND*%
X161165000Y-113600000D03*
X165965000Y-113600000D03*
%TO.P,SW3,2,2*%
%TO.N,Net-(U1-GPIO3_A1_D1)*%
X161165000Y-116600000D03*
X165965000Y-116600000D03*
%TD*%
D17*
%TO.P,U1,1,GPIO2_A0_D0*%
%TO.N,Net-(U1-GPIO2_A0_D0)*%
X142300000Y-129280000D03*
%TO.P,U1,2,GPIO3_A1_D1*%
%TO.N,Net-(U1-GPIO3_A1_D1)*%
X142300000Y-126740000D03*
%TO.P,U1,3,GPIO4_A2_D2*%
%TO.N,Net-(U1-GPIO4_A2_D2)*%
X142300000Y-124200000D03*
%TO.P,U1,4,GPIO5_A3_D3*%
%TO.N,unconnected-(U1-GPIO5_A3_D3-Pad4)_1*%
X142300000Y-121660000D03*
%TO.P,U1,5,GPIO6_D4_SDA*%
%TO.N,Net-(U1-GPIO6_D4_SDA)*%
X142300000Y-119120000D03*
%TO.P,U1,6,GPIO7_D5_SCL*%
%TO.N,Net-(U1-GPIO7_D5_SCL)*%
X142300000Y-116580000D03*
%TO.P,U1,7,GPIO21_D6_TX*%
%TO.N,unconnected-(U1-GPIO21_D6_TX-Pad7)_1*%
X142300000Y-114040000D03*
%TO.P,U1,8,GPIO20_D7_RX*%
%TO.N,Net-(U1-GPIO20_D7_RX)*%
X157540000Y-114040000D03*
%TO.P,U1,9,GPIO8_D8_SCK*%
%TO.N,Net-(U1-GPIO8_D8_SCK)*%
X157540000Y-116580000D03*
%TO.P,U1,10,GPIO9_D9_MISO*%
%TO.N,unconnected-(U1-GPIO9_D9_MISO-Pad10)*%
X157540000Y-119120000D03*
%TO.P,U1,11,GPIO10_D10_MOSI*%
%TO.N,Net-(BUZZER1-+)*%
X157540000Y-121660000D03*
%TO.P,U1,12,3V3*%
%TO.N,+3V3*%
X157540000Y-124200000D03*
%TO.P,U1,13,GND*%
%TO.N,GND*%
X157540000Y-126740000D03*
%TO.P,U1,14,VBUS*%
%TO.N,+5V*%
X157540000Y-129280000D03*
D18*
%TO.P,U1,15*%
%TO.N,N/C*%
X145475000Y-122046000D03*
%TO.P,U1,16*%
X145475000Y-123951000D03*
%TD*%
D19*
%TO.P,BUZZER1,1,+*%
%TO.N,Net-(BUZZER1-+)*%
X145065000Y-90060000D03*
D20*
%TO.P,BUZZER1,2,-*%
%TO.N,GND*%
X152665000Y-90060000D03*
%TD*%
D21*
%TO.N,Net-(BUZZER1-+)*%
X146570735Y-100429265D03*
%TD*%
D22*
%TO.N,Net-(BUZZER1-+)*%
X145065000Y-98923530D02*
X145065000Y-90060000D01*
X146570735Y-100429265D02*
X145065000Y-98923530D01*
%TO.N,Net-(U1-GPIO2_A0_D0)*%
X138000000Y-125000000D02*
X138020000Y-125000000D01*
X138020000Y-125000000D02*
X142300000Y-129280000D01*
X132100000Y-116800000D02*
X136900000Y-116800000D01*
X136900000Y-116800000D02*
X136900000Y-123900000D01*
X136900000Y-123900000D02*
X138000000Y-125000000D01*
%TO.N,Net-(U1-GPIO4_A2_D2)*%
X143924000Y-119776000D02*
X146900000Y-116800000D01*
X142300000Y-124200000D02*
X143924000Y-122576000D01*
X146900000Y-116800000D02*
X151700000Y-116800000D01*
X143924000Y-122576000D02*
X143924000Y-119776000D01*
%TO.N,Net-(U1-GPIO3_A1_D1)*%
X161165000Y-116600000D02*
X165965000Y-116600000D01*
X157513690Y-117643000D02*
X160122000Y-117643000D01*
X142300000Y-126740000D02*
X148416690Y-126740000D01*
X142300000Y-126740000D02*
X142300000Y-127300000D01*
X160122000Y-117643000D02*
X161165000Y-116600000D01*
X148416690Y-126740000D02*
X157513690Y-117643000D01*
%TO.N,Net-(U1-GPIO7_D5_SCL)*%
X145000000Y-115000000D02*
X145000000Y-105670000D01*
X145000000Y-105670000D02*
X150335000Y-100335000D01*
X150335000Y-100335000D02*
X150335000Y-76300000D01*
X142300000Y-116580000D02*
X143420000Y-116580000D01*
X143420000Y-116580000D02*
X145000000Y-115000000D01*
%TO.N,Net-(U1-GPIO6_D4_SDA)*%
X145799000Y-115621000D02*
X145799000Y-111201000D01*
X142300000Y-119120000D02*
X145799000Y-115621000D01*
X154000000Y-77425000D02*
X152875000Y-76300000D01*
X154000000Y-103000000D02*
X154000000Y-77425000D01*
X145799000Y-111201000D02*
X154000000Y-103000000D01*
%TO.N,Net-(U1-GPIO8_D8_SCK)*%
X157540000Y-116580000D02*
X158621000Y-115499000D01*
X158621000Y-83069000D02*
X165790000Y-75900000D01*
X158621000Y-115499000D02*
X158621000Y-83069000D01*
%TO.N,Net-(D1-A)*%
X130910000Y-76300000D02*
X133000000Y-74210000D01*
X133000000Y-74210000D02*
X133000000Y-70000000D01*
%TO.N,Net-(D2-A)*%
X173410000Y-75900000D02*
X173410000Y-71410000D01*
X171900000Y-69900000D02*
X167000000Y-69900000D01*
X173410000Y-71410000D02*
X171900000Y-69900000D01*
%TD*%
%TA.AperFunction,Conductor*%
%TO.N,GND*%
G36*
X151534968Y-56794539D02*
G01*
X151541703Y-56794906D01*
X153299692Y-56938857D01*
X153306315Y-56939581D01*
X155038661Y-57176624D01*
X155045215Y-57177701D01*
X156749854Y-57505502D01*
X156756310Y-57506925D01*
X158431103Y-57923153D01*
X158437441Y-57924908D01*
X159625931Y-58288316D01*
X160080303Y-58427252D01*
X160086493Y-58429324D01*
X161695366Y-59015503D01*
X161701344Y-59017860D01*
X163274051Y-59685561D01*
X163279821Y-59688188D01*
X164814235Y-60435126D01*
X164819811Y-60438019D01*
X165705817Y-60926632D01*
X166313710Y-61261872D01*
X166319102Y-61265025D01*
X166568585Y-61419483D01*
X167770354Y-62163513D01*
X167775504Y-62166882D01*
X169181913Y-63137700D01*
X169186829Y-63141276D01*
X170432356Y-64094951D01*
X170546161Y-64182089D01*
X170550866Y-64185876D01*
X171682873Y-65143713D01*
X171860945Y-65294387D01*
X171865425Y-65298368D01*
X173124009Y-66472226D01*
X173128256Y-66476381D01*
X174333180Y-67713307D01*
X174337193Y-67717628D01*
X175486176Y-69015216D01*
X175489955Y-69019693D01*
X176580820Y-70375645D01*
X176584365Y-70380270D01*
X177395824Y-71492086D01*
X177584425Y-71750498D01*
X177614888Y-71792236D01*
X177618195Y-71796998D01*
X178273593Y-72789358D01*
X178586148Y-73262607D01*
X178589223Y-73267506D01*
X179492436Y-74784485D01*
X179495272Y-74789511D01*
X180331482Y-76355411D01*
X180334078Y-76360558D01*
X181101081Y-77973033D01*
X181103435Y-77978293D01*
X181799064Y-79635073D01*
X181801172Y-79640439D01*
X182423196Y-81339113D01*
X182423197Y-81339114D01*
X182425055Y-81344578D01*
X182971284Y-83082827D01*
X182972888Y-83088381D01*
X183441125Y-84863877D01*
X183442470Y-84869509D01*
X183830507Y-86679882D01*
X183831590Y-86685582D01*
X184137233Y-88528517D01*
X184138050Y-88534273D01*
X184359103Y-90407505D01*
X184359649Y-90413302D01*
X184493899Y-92314430D01*
X184494173Y-92320254D01*
X184539418Y-94247086D01*
X184539418Y-94252908D01*
X184494173Y-96179739D01*
X184493899Y-96185563D01*
X184359649Y-98086690D01*
X184359103Y-98092487D01*
X184138050Y-99965719D01*
X184137233Y-99971475D01*
X183831590Y-101814411D01*
X183830507Y-101820111D01*
X183442470Y-103630485D01*
X183441125Y-103636117D01*
X182972888Y-105411614D01*
X182971284Y-105417168D01*
X182425055Y-107155417D01*
X182423197Y-107160881D01*
X181801172Y-108859556D01*
X181799064Y-108864922D01*
X181103435Y-110521701D01*
X181101081Y-110526961D01*
X180334081Y-112139430D01*
X180331485Y-112144577D01*
X179495268Y-113710493D01*
X179492432Y-113715519D01*
X178589241Y-115232459D01*
X178586167Y-115237358D01*
X177618195Y-116703000D01*
X177614884Y-116707766D01*
X176584364Y-118119726D01*
X176580819Y-118124351D01*
X175489955Y-119480304D01*
X175486176Y-119484781D01*
X174337184Y-120782379D01*
X174333171Y-120786700D01*
X173128256Y-122023616D01*
X173124009Y-122027771D01*
X171865425Y-123201629D01*
X171860945Y-123205610D01*
X170550873Y-124314115D01*
X170546161Y-124317908D01*
X169186843Y-125358711D01*
X169181901Y-125362306D01*
X167775507Y-126333113D01*
X167770338Y-126336494D01*
X166319101Y-127234974D01*
X166313709Y-127238127D01*
X164819826Y-128061971D01*
X164814218Y-128064880D01*
X163279843Y-128811801D01*
X163274028Y-128814448D01*
X161701359Y-129482133D01*
X161695350Y-129484502D01*
X160086493Y-130070675D01*
X160080303Y-130072747D01*
X158437448Y-130575088D01*
X158431096Y-130576847D01*
X158204273Y-130633218D01*
X158134465Y-130630284D01*
X158077325Y-130590074D01*
X158050995Y-130525356D01*
X158063835Y-130456676D01*
X158111767Y-130405840D01*
X158118052Y-130402404D01*
X158201694Y-130359787D01*
X158362464Y-130242981D01*
X158502981Y-130102464D01*
X158619787Y-129941694D01*
X158710005Y-129764632D01*
X158771413Y-129575636D01*
X158802500Y-129379361D01*
X158802500Y-129180639D01*
X158771413Y-128984364D01*
X158732783Y-128865472D01*
X158710006Y-128795370D01*
X158710005Y-128795367D01*
X158619786Y-128618305D01*
X158502981Y-128457536D01*
X158362464Y-128317019D01*
X158201694Y-128200213D01*
X158044667Y-128120203D01*
X157993872Y-128072229D01*
X157977077Y-128004408D01*
X157999614Y-127938273D01*
X158044669Y-127899234D01*
X158201422Y-127819364D01*
X158238716Y-127792268D01*
X157624095Y-127177647D01*
X157711571Y-127154208D01*
X157812930Y-127095689D01*
X157895689Y-127012930D01*
X157954208Y-126911571D01*
X157977647Y-126824094D01*
X158592268Y-127438715D01*
X158619362Y-127401425D01*
X158709542Y-127224437D01*
X158770924Y-127035523D01*
X158770924Y-127035520D01*
X158802000Y-126839321D01*
X158802000Y-126640678D01*
X158770924Y-126444479D01*
X158770924Y-126444476D01*
X158709542Y-126255562D01*
X158619358Y-126078567D01*
X158592268Y-126041283D01*
X157977647Y-126655904D01*
X157954208Y-126568429D01*
X157895689Y-126467070D01*
X157812930Y-126384311D01*
X157711571Y-126325792D01*
X157624094Y-126302352D01*
X158238716Y-125687731D01*
X158238715Y-125687730D01*
X158201432Y-125660641D01*
X158044668Y-125580765D01*
X157993872Y-125532790D01*
X157977077Y-125464969D01*
X157999615Y-125398834D01*
X158044667Y-125359796D01*
X158201694Y-125279787D01*
X158362464Y-125162981D01*
X158502981Y-125022464D01*
X158619787Y-124861694D01*
X158710005Y-124684632D01*
X158771413Y-124495636D01*
X158802500Y-124299361D01*
X158802500Y-124100639D01*
X158771413Y-123904364D01*
X158710005Y-123715368D01*
X158710005Y-123715367D01*
X158619786Y-123538305D01*
X158593657Y-123502341D01*
X158502981Y-123377536D01*
X158362464Y-123237019D01*
X158201694Y-123120213D01*
X158045218Y-123040484D01*
X157994423Y-122992510D01*
X157977628Y-122924689D01*
X158000165Y-122858554D01*
X158045218Y-122819515D01*
X158201694Y-122739787D01*
X158362464Y-122622981D01*
X158502981Y-122482464D01*
X158619787Y-122321694D01*
X158710005Y-122144632D01*
X158771413Y-121955636D01*
X158802500Y-121759361D01*
X158802500Y-121560639D01*
X158771413Y-121364364D01*
X158710005Y-121175368D01*
X158710005Y-121175367D01*
X158619786Y-120998305D01*
X158565082Y-120923011D01*
X158502981Y-120837536D01*
X158362464Y-120697019D01*
X158201694Y-120580213D01*
X158045218Y-120500484D01*
X157994423Y-120452510D01*
X157977628Y-120384689D01*
X158000165Y-120318554D01*
X158045218Y-120279515D01*
X158201694Y-120199787D01*
X158362464Y-120082981D01*
X158502981Y-119942464D01*
X158619787Y-119781694D01*
X158710005Y-119604632D01*
X158771413Y-119415636D01*
X158802500Y-119219361D01*
X158802500Y-119020639D01*
X158771413Y-118824364D01*
X158710005Y-118635368D01*
X158710005Y-118635367D01*
X158619784Y-118458301D01*
X158606768Y-118440386D01*
X158583287Y-118374580D01*
X158599112Y-118306526D01*
X158649217Y-118257831D01*
X158707085Y-118243500D01*
X160035331Y-118243500D01*
X160035347Y-118243501D01*
X160042943Y-118243501D01*
X160201054Y-118243501D01*
X160201057Y-118243501D01*
X160353785Y-118202577D01*
X160432693Y-118157019D01*
X160490716Y-118123520D01*
X160602520Y-118011716D01*
X160602520Y-118011714D01*
X160612723Y-118001512D01*
X160612727Y-118001506D01*
X160720158Y-117894075D01*
X160781479Y-117860592D01*
X160846151Y-117863825D01*
X160860466Y-117868477D01*
X161062648Y-117900500D01*
X161062649Y-117900500D01*
X161267351Y-117900500D01*
X161267352Y-117900500D01*
X161469534Y-117868477D01*
X161664219Y-117805220D01*
X161846610Y-117712287D01*
X161987696Y-117609783D01*
X162012213Y-117591971D01*
X162012215Y-117591968D01*
X162012219Y-117591966D01*
X162156966Y-117447219D01*
X162156968Y-117447215D01*
X162156971Y-117447213D01*
X162261913Y-117302770D01*
X162277287Y-117281610D01*
X162284117Y-117268204D01*
X162332091Y-117217409D01*
X162394602Y-117200500D01*
X164735398Y-117200500D01*
X164802437Y-117220185D01*
X164845883Y-117268205D01*
X164852715Y-117281614D01*
X164973028Y-117447213D01*
X165117786Y-117591971D01*
X165211129Y-117659787D01*
X165283390Y-117712287D01*
X165357416Y-117750005D01*
X165465776Y-117805218D01*
X165465778Y-117805218D01*
X165465781Y-117805220D01*
X165570137Y-117839127D01*
X165660465Y-117868477D01*
X165761557Y-117884488D01*
X165862648Y-117900500D01*
X165862649Y-117900500D01*
X166067351Y-117900500D01*
X166067352Y-117900500D01*
X166269534Y-117868477D01*
X166464219Y-117805220D01*
X166646610Y-117712287D01*
X166787696Y-117609783D01*
X166812213Y-117591971D01*
X166812215Y-117591968D01*
X166812219Y-117591966D01*
X166956966Y-117447219D01*
X166956968Y-117447215D01*
X166956971Y-117447213D01*
X167009732Y-117374590D01*
X167077287Y-117281610D01*
X167170220Y-117099219D01*
X167233477Y-116904534D01*
X167265500Y-116702352D01*
X167265500Y-116497648D01*
X167233477Y-116295466D01*
X167170220Y-116100781D01*
X167170218Y-116100778D01*
X167170218Y-116100776D01*
X167136503Y-116034607D01*
X167077287Y-115918390D01*
X167069556Y-115907749D01*
X166956971Y-115752786D01*
X166812213Y-115608028D01*
X166646613Y-115487715D01*
X166646612Y-115487714D01*
X166646610Y-115487713D01*
X166570997Y-115449186D01*
X166464223Y-115394781D01*
X166269534Y-115331522D01*
X166086293Y-115302500D01*
X166067352Y-115299500D01*
X165862648Y-115299500D01*
X165843707Y-115302500D01*
X165660465Y-115331522D01*
X165465776Y-115394781D01*
X165283386Y-115487715D01*
X165117786Y-115608028D01*
X164973028Y-115752786D01*
X164852715Y-115918385D01*
X164845883Y-115931795D01*
X164797909Y-115982591D01*
X164735398Y-115999500D01*
X162394602Y-115999500D01*
X162327563Y-115979815D01*
X162284117Y-115931795D01*
X162277284Y-115918385D01*
X162156971Y-115752786D01*
X162012213Y-115608028D01*
X161846613Y-115487715D01*
X161846612Y-115487714D01*
X161846610Y-115487713D01*
X161770997Y-115449186D01*
X161664223Y-115394781D01*
X161469534Y-115331522D01*
X161286293Y-115302500D01*
X161267352Y-115299500D01*
X161062648Y-115299500D01*
X161043707Y-115302500D01*
X160860465Y-115331522D01*
X160665776Y-115394781D01*
X160483386Y-115487715D01*
X160317786Y-115608028D01*
X160173028Y-115752786D01*
X160052715Y-115918386D01*
X159959781Y-116100776D01*
X159896522Y-116295465D01*
X159864500Y-116497648D01*
X159864500Y-116702351D01*
X159895662Y-116899102D01*
X159886707Y-116968396D01*
X159841711Y-117021848D01*
X159774959Y-117042487D01*
X159773189Y-117042500D01*
X158887867Y-117042500D01*
X158820828Y-117022815D01*
X158775073Y-116970011D01*
X158765129Y-116900853D01*
X158769937Y-116880179D01*
X158771413Y-116875636D01*
X158777035Y-116840138D01*
X158802500Y-116679361D01*
X158802500Y-116480639D01*
X158771413Y-116284364D01*
X158771409Y-116284352D01*
X158770869Y-116282099D01*
X158770913Y-116281209D01*
X158770651Y-116279552D01*
X158770999Y-116279496D01*
X158771387Y-116271727D01*
X158767759Y-116261998D01*
X158773103Y-116237429D01*
X158774360Y-116212316D01*
X158780798Y-116202058D01*
X158782611Y-116193725D01*
X158803759Y-116165474D01*
X158979506Y-115989728D01*
X158979511Y-115989724D01*
X158989714Y-115979520D01*
X158989716Y-115979520D01*
X159101520Y-115867716D01*
X159165134Y-115757533D01*
X159173782Y-115742554D01*
X159173783Y-115742552D01*
X159180577Y-115730785D01*
X159221501Y-115578057D01*
X159221501Y-115419943D01*
X159221501Y-115412348D01*
X159221500Y-115412330D01*
X159221500Y-113497682D01*
X159865000Y-113497682D01*
X159865000Y-113702317D01*
X159897009Y-113904417D01*
X159960244Y-114099031D01*
X160053141Y-114281350D01*
X160053147Y-114281359D01*
X160085523Y-114325921D01*
X160085524Y-114325922D01*
X160682038Y-113729408D01*
X160699076Y-113792992D01*
X160764902Y-113907006D01*
X160857994Y-114000098D01*
X160972008Y-114065924D01*
X161035590Y-114082961D01*
X160439076Y-114679474D01*
X160483650Y-114711859D01*
X160665968Y-114804755D01*
X160860582Y-114867990D01*
X161062683Y-114900000D01*
X161267317Y-114900000D01*
X161469417Y-114867990D01*
X161664031Y-114804755D01*
X161846349Y-114711859D01*
X161890921Y-114679474D01*
X161294408Y-114082961D01*
X161357992Y-114065924D01*
X161472006Y-114000098D01*
X161565098Y-113907006D01*
X161630924Y-113792992D01*
X161647961Y-113729409D01*
X162244474Y-114325922D01*
X162244474Y-114325921D01*
X162276859Y-114281349D01*
X162369755Y-114099031D01*
X162432990Y-113904417D01*
X162465000Y-113702317D01*
X162465000Y-113497682D01*
X164665000Y-113497682D01*
X164665000Y-113702317D01*
X164697009Y-113904417D01*
X164760244Y-114099031D01*
X164853141Y-114281350D01*
X164853147Y-114281359D01*
X164885523Y-114325921D01*
X164885524Y-114325922D01*
X165482038Y-113729408D01*
X165499076Y-113792992D01*
X165564902Y-113907006D01*
X165657994Y-114000098D01*
X165772008Y-114065924D01*
X165835590Y-114082961D01*
X165239076Y-114679474D01*
X165283650Y-114711859D01*
X165465968Y-114804755D01*
X165660582Y-114867990D01*
X165862683Y-114900000D01*
X166067317Y-114900000D01*
X166269417Y-114867990D01*
X166464031Y-114804755D01*
X166646349Y-114711859D01*
X166690921Y-114679474D01*
X166094408Y-114082961D01*
X166157992Y-114065924D01*
X166272006Y-114000098D01*
X166365098Y-113907006D01*
X166430924Y-113792992D01*
X166447961Y-113729409D01*
X167044474Y-114325922D01*
X167044474Y-114325921D01*
X167076859Y-114281349D01*
X167169755Y-114099031D01*
X167232990Y-113904417D01*
X167265000Y-113702317D01*
X167265000Y-113497682D01*
X167232990Y-113295582D01*
X167169755Y-113100968D01*
X167076859Y-112918650D01*
X167044474Y-112874077D01*
X167044474Y-112874076D01*
X166447961Y-113470590D01*
X166430924Y-113407008D01*
X166365098Y-113292994D01*
X166272006Y-113199902D01*
X166157992Y-113134076D01*
X166094407Y-113117038D01*
X166690922Y-112520524D01*
X166690921Y-112520523D01*
X166646359Y-112488147D01*
X166646350Y-112488141D01*
X166464031Y-112395244D01*
X166269417Y-112332009D01*
X166067317Y-112300000D01*
X165862683Y-112300000D01*
X165660582Y-112332009D01*
X165465968Y-112395244D01*
X165283644Y-112488143D01*
X165239077Y-112520523D01*
X165239077Y-112520524D01*
X165835592Y-113117038D01*
X165772008Y-113134076D01*
X165657994Y-113199902D01*
X165564902Y-113292994D01*
X165499076Y-113407008D01*
X165482038Y-113470591D01*
X164885524Y-112874077D01*
X164885523Y-112874077D01*
X164853143Y-112918644D01*
X164760244Y-113100968D01*
X164697009Y-113295582D01*
X164665000Y-113497682D01*
X162465000Y-113497682D01*
X162432990Y-113295582D01*
X162369755Y-113100968D01*
X162276859Y-112918650D01*
X162244474Y-112874077D01*
X162244474Y-112874076D01*
X161647961Y-113470590D01*
X161630924Y-113407008D01*
X161565098Y-113292994D01*
X161472006Y-113199902D01*
X161357992Y-113134076D01*
X161294407Y-113117038D01*
X161890922Y-112520524D01*
X161890921Y-112520523D01*
X161846359Y-112488147D01*
X161846350Y-112488141D01*
X161664031Y-112395244D01*
X161469417Y-112332009D01*
X161267317Y-112300000D01*
X161062683Y-112300000D01*
X160860582Y-112332009D01*
X160665968Y-112395244D01*
X160483644Y-112488143D01*
X160439077Y-112520523D01*
X160439077Y-112520524D01*
X161035592Y-113117038D01*
X160972008Y-113134076D01*
X160857994Y-113199902D01*
X160764902Y-113292994D01*
X160699076Y-113407008D01*
X160682038Y-113470591D01*
X160085524Y-112874077D01*
X160085523Y-112874077D01*
X160053143Y-112918644D01*
X159960244Y-113100968D01*
X159897009Y-113295582D01*
X159865000Y-113497682D01*
X159221500Y-113497682D01*
X159221500Y-101941443D01*
X159241185Y-101874404D01*
X159293989Y-101828649D01*
X159363147Y-101818705D01*
X159426703Y-101847730D01*
X159433181Y-101853762D01*
X159558330Y-101978911D01*
X159558338Y-101978918D01*
X159558339Y-101978919D01*
X159591239Y-102004164D01*
X159740382Y-102118607D01*
X159740385Y-102118608D01*
X159740388Y-102118611D01*
X159939112Y-102233344D01*
X159939117Y-102233346D01*
X159939123Y-102233349D01*
X160030480Y-102271190D01*
X160151113Y-102321158D01*
X160372762Y-102380548D01*
X160600266Y-102410500D01*
X160600273Y-102410500D01*
X160829727Y-102410500D01*
X160829734Y-102410500D01*
X161057238Y-102380548D01*
X161278887Y-102321158D01*
X161490888Y-102233344D01*
X161689612Y-102118611D01*
X161871661Y-101978919D01*
X161871665Y-101978914D01*
X161871670Y-101978911D01*
X162033911Y-101816670D01*
X162033914Y-101816665D01*
X162033919Y-101816661D01*
X162173611Y-101634612D01*
X162288344Y-101435888D01*
X162376158Y-101223887D01*
X162435548Y-101002238D01*
X162465500Y-100774734D01*
X162465500Y-100545266D01*
X162435548Y-100317762D01*
X162376158Y-100096113D01*
X162288344Y-99884112D01*
X162173611Y-99685388D01*
X162173608Y-99685385D01*
X162173607Y-99685382D01*
X162033918Y-99503338D01*
X162033911Y-99503330D01*
X161871670Y-99341089D01*
X161871661Y-99341081D01*
X161689617Y-99201392D01*
X161490890Y-99086657D01*
X161490876Y-99086650D01*
X161278887Y-98998842D01*
X161057238Y-98939452D01*
X161019215Y-98934446D01*
X160829741Y-98909500D01*
X160829734Y-98909500D01*
X160600266Y-98909500D01*
X160600258Y-98909500D01*
X160383715Y-98938009D01*
X160372762Y-98939452D01*
X160279076Y-98964554D01*
X160151112Y-98998842D01*
X159939123Y-99086650D01*
X159939109Y-99086657D01*
X159740382Y-99201392D01*
X159558338Y-99341081D01*
X159433181Y-99466238D01*
X159371858Y-99499723D01*
X159302166Y-99494739D01*
X159246233Y-99452867D01*
X159221816Y-99387403D01*
X159221500Y-99378557D01*
X159221500Y-92600853D01*
X170364500Y-92600853D01*
X170364500Y-92876188D01*
X170364501Y-92876205D01*
X170400438Y-93149176D01*
X170400439Y-93149181D01*
X170400440Y-93149187D01*
X170400441Y-93149189D01*
X170471704Y-93415151D01*
X170577075Y-93669538D01*
X170577080Y-93669549D01*
X170656809Y-93807642D01*
X170714751Y-93908000D01*
X170714753Y-93908003D01*
X170714754Y-93908004D01*
X170882370Y-94126447D01*
X170882376Y-94126454D01*
X171077066Y-94321144D01*
X171077072Y-94321149D01*
X171295521Y-94488770D01*
X171448778Y-94577253D01*
X171533971Y-94626440D01*
X171533976Y-94626442D01*
X171533979Y-94626444D01*
X171788368Y-94731816D01*
X172054334Y-94803081D01*
X172327326Y-94839021D01*
X172327333Y-94839021D01*
X172602667Y-94839021D01*
X172602674Y-94839021D01*
X172875666Y-94803081D01*
X173141632Y-94731816D01*
X173396021Y-94626444D01*
X173634479Y-94488770D01*
X173852928Y-94321149D01*
X174047628Y-94126449D01*
X174215249Y-93908000D01*
X174352923Y-93669542D01*
X174458295Y-93415153D01*
X174529560Y-93149187D01*
X174565500Y-92876195D01*
X174565500Y-92600847D01*
X174529560Y-92327855D01*
X174458295Y-92061889D01*
X174352923Y-91807500D01*
X174352921Y-91807497D01*
X174352919Y-91807492D01*
X174281908Y-91684499D01*
X174215249Y-91569042D01*
X174047628Y-91350593D01*
X174047623Y-91350587D01*
X173852933Y-91155897D01*
X173852926Y-91155891D01*
X173634483Y-90988275D01*
X173634482Y-90988274D01*
X173634479Y-90988272D01*
X173531997Y-90929104D01*
X173396028Y-90850601D01*
X173396017Y-90850596D01*
X173141630Y-90745225D01*
X173008649Y-90709593D01*
X172875666Y-90673961D01*
X172875660Y-90673960D01*
X172875655Y-90673959D01*
X172602684Y-90638022D01*
X172602679Y-90638021D01*
X172602674Y-90638021D01*
X172327326Y-90638021D01*
X172327320Y-90638021D01*
X172327315Y-90638022D01*
X172054344Y-90673959D01*
X172054337Y-90673960D01*
X172054334Y-90673961D01*
X171998125Y-90689021D01*
X171788369Y-90745225D01*
X171533982Y-90850596D01*
X171533971Y-90850601D01*
X171295516Y-90988275D01*
X171077073Y-91155891D01*
X171077066Y-91155897D01*
X170882376Y-91350587D01*
X170882370Y-91350594D01*
X170714754Y-91569037D01*
X170577080Y-91807492D01*
X170577075Y-91807503D01*
X170471704Y-92061890D01*
X170430354Y-92216212D01*
X170401391Y-92324308D01*
X170400441Y-92327852D01*
X170400438Y-92327865D01*
X170364501Y-92600836D01*
X170364500Y-92600853D01*
X159221500Y-92600853D01*
X159221500Y-83369096D01*
X159241185Y-83302057D01*
X159257814Y-83281420D01*
X165345158Y-77194075D01*
X165406479Y-77160592D01*
X165471151Y-77163825D01*
X165485466Y-77168477D01*
X165687648Y-77200500D01*
X165687649Y-77200500D01*
X165892351Y-77200500D01*
X165892352Y-77200500D01*
X166094534Y-77168477D01*
X166289219Y-77105220D01*
X166471610Y-77012287D01*
X166575067Y-76937122D01*
X166637213Y-76891971D01*
X166637215Y-76891968D01*
X166637219Y-76891966D01*
X166781966Y-76747219D01*
X166781968Y-76747215D01*
X166781971Y-76747213D01*
X166850018Y-76653553D01*
X166902287Y-76581610D01*
X166995220Y-76399219D01*
X167058477Y-76204534D01*
X167090500Y-76002352D01*
X167090500Y-75797648D01*
X167058477Y-75595466D01*
X167052119Y-75575899D01*
X167012116Y-75452781D01*
X166995220Y-75400781D01*
X166995218Y-75400778D01*
X166995218Y-75400776D01*
X166947960Y-75308028D01*
X166902287Y-75218390D01*
X166888085Y-75198842D01*
X166781971Y-75052786D01*
X166637213Y-74908028D01*
X166471613Y-74787715D01*
X166471612Y-74787714D01*
X166471610Y-74787713D01*
X166414653Y-74758691D01*
X166289223Y-74694781D01*
X166094534Y-74631522D01*
X165919995Y-74603878D01*
X165892352Y-74599500D01*
X165687648Y-74599500D01*
X165663329Y-74603351D01*
X165485465Y-74631522D01*
X165290776Y-74694781D01*
X165108386Y-74787715D01*
X164942786Y-74908028D01*
X164798028Y-75052786D01*
X164677715Y-75218386D01*
X164584781Y-75400776D01*
X164521522Y-75595465D01*
X164489500Y-75797648D01*
X164489500Y-76002351D01*
X164521522Y-76204534D01*
X164526173Y-76218848D01*
X164528165Y-76288690D01*
X164495921Y-76344842D01*
X158252286Y-82588478D01*
X158140481Y-82700282D01*
X158140479Y-82700285D01*
X158108698Y-82755333D01*
X158108697Y-82755335D01*
X158061423Y-82837214D01*
X158061423Y-82837215D01*
X158020499Y-82989943D01*
X158020499Y-82989945D01*
X158020499Y-83158046D01*
X158020500Y-83158059D01*
X158020500Y-112697981D01*
X158000815Y-112765020D01*
X157948011Y-112810775D01*
X157878853Y-112820719D01*
X157858183Y-112815912D01*
X157835639Y-112808587D01*
X157688429Y-112785271D01*
X157639361Y-112777500D01*
X157440639Y-112777500D01*
X157375214Y-112787862D01*
X157244362Y-112808587D01*
X157055370Y-112869993D01*
X157055367Y-112869994D01*
X156878305Y-112960213D01*
X156717533Y-113077021D01*
X156577021Y-113217533D01*
X156460213Y-113378305D01*
X156369994Y-113555367D01*
X156369993Y-113555370D01*
X156308587Y-113744362D01*
X156308587Y-113744364D01*
X156277500Y-113940639D01*
X156277500Y-114139361D01*
X156287917Y-114205132D01*
X156308587Y-114335637D01*
X156369993Y-114524629D01*
X156369994Y-114524632D01*
X156448891Y-114679474D01*
X156460213Y-114701694D01*
X156577019Y-114862464D01*
X156717536Y-115002981D01*
X156878306Y-115119787D01*
X156986569Y-115174950D01*
X157034780Y-115199515D01*
X157085576Y-115247490D01*
X157102371Y-115315311D01*
X157079833Y-115381446D01*
X157034780Y-115420485D01*
X156878305Y-115500213D01*
X156717533Y-115617021D01*
X156577021Y-115757533D01*
X156460213Y-115918305D01*
X156369994Y-116095367D01*
X156369993Y-116095370D01*
X156308587Y-116284362D01*
X156305987Y-116300781D01*
X156277500Y-116480639D01*
X156277500Y-116679361D01*
X156281244Y-116703000D01*
X156308587Y-116875637D01*
X156369993Y-117064629D01*
X156369994Y-117064632D01*
X156450059Y-117221765D01*
X156460213Y-117241694D01*
X156577019Y-117402464D01*
X156577021Y-117402466D01*
X156653323Y-117478768D01*
X156686808Y-117540091D01*
X156681824Y-117609783D01*
X156653323Y-117654130D01*
X154530026Y-119777428D01*
X150312800Y-123994655D01*
X148204274Y-126103181D01*
X148142951Y-126136666D01*
X148116593Y-126139500D01*
X143486730Y-126139500D01*
X143419691Y-126119815D01*
X143382808Y-126082133D01*
X143382651Y-126082248D01*
X143381872Y-126081176D01*
X143381000Y-126080285D01*
X143379789Y-126078309D01*
X143352888Y-126041283D01*
X143262981Y-125917536D01*
X143122464Y-125777019D01*
X142961694Y-125660213D01*
X142805218Y-125580484D01*
X142754423Y-125532510D01*
X142737628Y-125464689D01*
X142760165Y-125398554D01*
X142805218Y-125359515D01*
X142961694Y-125279787D01*
X143122464Y-125162981D01*
X143262981Y-125022464D01*
X143379787Y-124861694D01*
X143470005Y-124684632D01*
X143487339Y-124631284D01*
X143532919Y-124491002D01*
X143534127Y-124491394D01*
X143565991Y-124435881D01*
X143628012Y-124403707D01*
X143697582Y-124410172D01*
X143752613Y-124453222D01*
X143768830Y-124484451D01*
X143771259Y-124491394D01*
X143796878Y-124564606D01*
X143889853Y-124712576D01*
X144013424Y-124836147D01*
X144161394Y-124929122D01*
X144326343Y-124986841D01*
X144326349Y-124986841D01*
X144326351Y-124986842D01*
X144367750Y-124991506D01*
X144456442Y-125001499D01*
X144456445Y-125001500D01*
X144456448Y-125001500D01*
X146493555Y-125001500D01*
X146493556Y-125001499D01*
X146623657Y-124986841D01*
X146788606Y-124929122D01*
X146936576Y-124836147D01*
X147060147Y-124712576D01*
X147153122Y-124564606D01*
X147210841Y-124399657D01*
X147225500Y-124269552D01*
X147225500Y-123632448D01*
X147210841Y-123502343D01*
X147153122Y-123337394D01*
X147060147Y-123189424D01*
X146956904Y-123086181D01*
X146923419Y-123024858D01*
X146928403Y-122955166D01*
X146956904Y-122910819D01*
X147000233Y-122867490D01*
X147060147Y-122807576D01*
X147153122Y-122659606D01*
X147210841Y-122494657D01*
X147225500Y-122364552D01*
X147225500Y-121727448D01*
X147210841Y-121597343D01*
X147153122Y-121432394D01*
X147060147Y-121284424D01*
X146936576Y-121160853D01*
X146788606Y-121067878D01*
X146788605Y-121067877D01*
X146788604Y-121067877D01*
X146623658Y-121010159D01*
X146623648Y-121010157D01*
X146493558Y-120995500D01*
X146493552Y-120995500D01*
X144648500Y-120995500D01*
X144581461Y-120975815D01*
X144535706Y-120923011D01*
X144524500Y-120871500D01*
X144524500Y-120076097D01*
X144544185Y-120009058D01*
X144560819Y-119988416D01*
X145483018Y-119066217D01*
X146455159Y-118094075D01*
X146516480Y-118060592D01*
X146581154Y-118063826D01*
X146595466Y-118068477D01*
X146797648Y-118100500D01*
X146797649Y-118100500D01*
X147002351Y-118100500D01*
X147002352Y-118100500D01*
X147204534Y-118068477D01*
X147399219Y-118005220D01*
X147581610Y-117912287D01*
X147680629Y-117840346D01*
X147747213Y-117791971D01*
X147747215Y-117791968D01*
X147747219Y-117791966D01*
X147891966Y-117647219D01*
X147891968Y-117647215D01*
X147891971Y-117647213D01*
X148012284Y-117481614D01*
X148012285Y-117481613D01*
X148012287Y-117481610D01*
X148019117Y-117468204D01*
X148067091Y-117417409D01*
X148129602Y-117400500D01*
X150470398Y-117400500D01*
X150537437Y-117420185D01*
X150580883Y-117468205D01*
X150587715Y-117481614D01*
X150708028Y-117647213D01*
X150852786Y-117791971D01*
X150985769Y-117888587D01*
X151018390Y-117912287D01*
X151099499Y-117953614D01*
X151200776Y-118005218D01*
X151200778Y-118005218D01*
X151200781Y-118005220D01*
X151275818Y-118029601D01*
X151395465Y-118068477D01*
X151496557Y-118084488D01*
X151597648Y-118100500D01*
X151597649Y-118100500D01*
X151802351Y-118100500D01*
X151802352Y-118100500D01*
X152004534Y-118068477D01*
X152199219Y-118005220D01*
X152381610Y-117912287D01*
X152480629Y-117840346D01*
X152547213Y-117791971D01*
X152547215Y-117791968D01*
X152547219Y-117791966D01*
X152691966Y-117647219D01*
X152691968Y-117647215D01*
X152691971Y-117647213D01*
X152753349Y-117562732D01*
X152812287Y-117481610D01*
X152905220Y-117299219D01*
X152968477Y-117104534D01*
X153000500Y-116902352D01*
X153000500Y-116697648D01*
X152968477Y-116495466D01*
X152963659Y-116480639D01*
X152905218Y-116300776D01*
X152854918Y-116202058D01*
X152812287Y-116118390D01*
X152795560Y-116095367D01*
X152691971Y-115952786D01*
X152547213Y-115808028D01*
X152381613Y-115687715D01*
X152381612Y-115687714D01*
X152381610Y-115687713D01*
X152324653Y-115658691D01*
X152199223Y-115594781D01*
X152004534Y-115531522D01*
X151829995Y-115503878D01*
X151802352Y-115499500D01*
X151597648Y-115499500D01*
X151573329Y-115503351D01*
X151395465Y-115531522D01*
X151200776Y-115594781D01*
X151018386Y-115687715D01*
X150852786Y-115808028D01*
X150708028Y-115952786D01*
X150587715Y-116118385D01*
X150580883Y-116131795D01*
X150532909Y-116182591D01*
X150470398Y-116199500D01*
X148129602Y-116199500D01*
X148062563Y-116179815D01*
X148019117Y-116131795D01*
X148012284Y-116118385D01*
X147891971Y-115952786D01*
X147747213Y-115808028D01*
X147581613Y-115687715D01*
X147581612Y-115687714D01*
X147581610Y-115687713D01*
X147524653Y-115658691D01*
X147399223Y-115594781D01*
X147204534Y-115531522D01*
X147029995Y-115503878D01*
X147002352Y-115499500D01*
X146797648Y-115499500D01*
X146741652Y-115508369D01*
X146595464Y-115531523D01*
X146595457Y-115531524D01*
X146561817Y-115542455D01*
X146533698Y-115543258D01*
X146505853Y-115547262D01*
X146499241Y-115544242D01*
X146491976Y-115544450D01*
X146467887Y-115529923D01*
X146442297Y-115518237D01*
X146438366Y-115512121D01*
X146432144Y-115508369D01*
X146419733Y-115483126D01*
X146404523Y-115459459D01*
X146403046Y-115449186D01*
X146401316Y-115445668D01*
X146399500Y-115424524D01*
X146399500Y-115174950D01*
X146419185Y-115107911D01*
X146471989Y-115062156D01*
X146541147Y-115052212D01*
X146561820Y-115057020D01*
X146595575Y-115067988D01*
X146595581Y-115067989D01*
X146797683Y-115100000D01*
X147002317Y-115100000D01*
X147204417Y-115067990D01*
X147399031Y-115004755D01*
X147581349Y-114911859D01*
X147625921Y-114879474D01*
X147029408Y-114282961D01*
X147092992Y-114265924D01*
X147207006Y-114200098D01*
X147300098Y-114107006D01*
X147365924Y-113992992D01*
X147382961Y-113929409D01*
X147979474Y-114525922D01*
X147979474Y-114525921D01*
X148011859Y-114481349D01*
X148104755Y-114299031D01*
X148167990Y-114104417D01*
X148200000Y-113902317D01*
X148200000Y-113697682D01*
X150400000Y-113697682D01*
X150400000Y-113902317D01*
X150432009Y-114104417D01*
X150495244Y-114299031D01*
X150588141Y-114481350D01*
X150588147Y-114481359D01*
X150620523Y-114525921D01*
X150620524Y-114525922D01*
X151217038Y-113929408D01*
X151234076Y-113992992D01*
X151299902Y-114107006D01*
X151392994Y-114200098D01*
X151507008Y-114265924D01*
X151570590Y-114282961D01*
X150974076Y-114879474D01*
X151018650Y-114911859D01*
X151200968Y-115004755D01*
X151395582Y-115067990D01*
X151597683Y-115100000D01*
X151802317Y-115100000D01*
X152004417Y-115067990D01*
X152199031Y-115004755D01*
X152381349Y-114911859D01*
X152425921Y-114879474D01*
X151829408Y-114282961D01*
X151892992Y-114265924D01*
X152007006Y-114200098D01*
X152100098Y-114107006D01*
X152165924Y-113992992D01*
X152182961Y-113929408D01*
X152779474Y-114525921D01*
X152811859Y-114481349D01*
X152904755Y-114299031D01*
X152967990Y-114104417D01*
X153000000Y-113902317D01*
X153000000Y-113697682D01*
X152967990Y-113495582D01*
X152904755Y-113300968D01*
X152811859Y-113118650D01*
X152779474Y-113074077D01*
X152779474Y-113074076D01*
X152182961Y-113670590D01*
X152165924Y-113607008D01*
X152100098Y-113492994D01*
X152007006Y-113399902D01*
X151892992Y-113334076D01*
X151829407Y-113317038D01*
X152425922Y-112720524D01*
X152425921Y-112720523D01*
X152381359Y-112688147D01*
X152381350Y-112688141D01*
X152199031Y-112595244D01*
X152004417Y-112532009D01*
X151802317Y-112500000D01*
X151597683Y-112500000D01*
X151395582Y-112532009D01*
X151200968Y-112595244D01*
X151018644Y-112688143D01*
X150974077Y-112720523D01*
X150974077Y-112720524D01*
X151570592Y-113317038D01*
X151507008Y-113334076D01*
X151392994Y-113399902D01*
X151299902Y-113492994D01*
X151234076Y-113607008D01*
X151217038Y-113670591D01*
X150620524Y-113074077D01*
X150620523Y-113074077D01*
X150588143Y-113118644D01*
X150495244Y-113300968D01*
X150432009Y-113495582D01*
X150400000Y-113697682D01*
X148200000Y-113697682D01*
X148167990Y-113495582D01*
X148104755Y-113300968D01*
X148011859Y-113118650D01*
X147979474Y-113074077D01*
X147979474Y-113074076D01*
X147382961Y-113670590D01*
X147365924Y-113607008D01*
X147300098Y-113492994D01*
X147207006Y-113399902D01*
X147092992Y-113334076D01*
X147029407Y-113317038D01*
X147625922Y-112720524D01*
X147625921Y-112720523D01*
X147581359Y-112688147D01*
X147581350Y-112688141D01*
X147399031Y-112595244D01*
X147204417Y-112532009D01*
X147002317Y-112500000D01*
X146797683Y-112500000D01*
X146595581Y-112532010D01*
X146595574Y-112532011D01*
X146561817Y-112542980D01*
X146491976Y-112544975D01*
X146432144Y-112508894D01*
X146401316Y-112446193D01*
X146399500Y-112425049D01*
X146399500Y-111501096D01*
X146419185Y-111434057D01*
X146435814Y-111413420D01*
X154358506Y-103490727D01*
X154358511Y-103490724D01*
X154368714Y-103480520D01*
X154368716Y-103480520D01*
X154480520Y-103368716D01*
X154559577Y-103231784D01*
X154600500Y-103079057D01*
X154600500Y-77345943D01*
X154600500Y-77345941D01*
X154597625Y-77335210D01*
X154597625Y-77335211D01*
X154597624Y-77335207D01*
X154559577Y-77193215D01*
X154504612Y-77098013D01*
X154480520Y-77056284D01*
X154368716Y-76944480D01*
X154368713Y-76944478D01*
X154248438Y-76824203D01*
X154214953Y-76762880D01*
X154215834Y-76745258D01*
X158964500Y-76745258D01*
X158964500Y-76974741D01*
X158980730Y-77098013D01*
X158994452Y-77202238D01*
X159050733Y-77412284D01*
X159053842Y-77423887D01*
X159141650Y-77635876D01*
X159141657Y-77635890D01*
X159256392Y-77834617D01*
X159396081Y-78016661D01*
X159396089Y-78016670D01*
X159558330Y-78178911D01*
X159558338Y-78178918D01*
X159740382Y-78318607D01*
X159740385Y-78318608D01*
X159740388Y-78318611D01*
X159939112Y-78433344D01*
X159939117Y-78433346D01*
X159939123Y-78433349D01*
X160030480Y-78471190D01*
X160151113Y-78521158D01*
X160372762Y-78580548D01*
X160600266Y-78610500D01*
X160600273Y-78610500D01*
X160829727Y-78610500D01*
X160829734Y-78610500D01*
X161057238Y-78580548D01*
X161278887Y-78521158D01*
X161490888Y-78433344D01*
X161689612Y-78318611D01*
X161871661Y-78178919D01*
X161871665Y-78178914D01*
X161871670Y-78178911D01*
X162033911Y-78016670D01*
X162033914Y-78016665D01*
X162033919Y-78016661D01*
X162173611Y-77834612D01*
X162288344Y-77635888D01*
X162376158Y-77423887D01*
X162435548Y-77202238D01*
X162465500Y-76974734D01*
X162465500Y-76745266D01*
X162435548Y-76517762D01*
X162376158Y-76296113D01*
X162288344Y-76084112D01*
X162173611Y-75885388D01*
X162173608Y-75885385D01*
X162173607Y-75885382D01*
X162072764Y-75753962D01*
X162033919Y-75703339D01*
X162033918Y-75703338D01*
X162033911Y-75703330D01*
X161871670Y-75541089D01*
X161871661Y-75541081D01*
X161689617Y-75401392D01*
X161490890Y-75286657D01*
X161490876Y-75286650D01*
X161278887Y-75198842D01*
X161237360Y-75187715D01*
X161057238Y-75139452D01*
X161019215Y-75134446D01*
X160829741Y-75109500D01*
X160829734Y-75109500D01*
X160600266Y-75109500D01*
X160600258Y-75109500D01*
X160383715Y-75138009D01*
X160372762Y-75139452D01*
X160337382Y-75148932D01*
X160151112Y-75198842D01*
X159939123Y-75286650D01*
X159939109Y-75286657D01*
X159740382Y-75401392D01*
X159558338Y-75541081D01*
X159396081Y-75703338D01*
X159256392Y-75885382D01*
X159141657Y-76084109D01*
X159141650Y-76084123D01*
X159053842Y-76296112D01*
X158994453Y-76517759D01*
X158994451Y-76517770D01*
X158964500Y-76745258D01*
X154215834Y-76745258D01*
X154218187Y-76698205D01*
X154241015Y-76627951D01*
X154275500Y-76410222D01*
X154275500Y-76189778D01*
X154241015Y-75972049D01*
X154176993Y-75775007D01*
X154172896Y-75762396D01*
X154172895Y-75762393D01*
X154138237Y-75694375D01*
X154072815Y-75565978D01*
X153990573Y-75452781D01*
X153943247Y-75387641D01*
X153943243Y-75387636D01*
X153787363Y-75231756D01*
X153787358Y-75231752D01*
X153609025Y-75102187D01*
X153609024Y-75102186D01*
X153609022Y-75102185D01*
X153525549Y-75059653D01*
X153412606Y-75002104D01*
X153412603Y-75002103D01*
X153202952Y-74933985D01*
X153039065Y-74908028D01*
X152985222Y-74899500D01*
X152764778Y-74899500D01*
X152710935Y-74908028D01*
X152547047Y-74933985D01*
X152337396Y-75002103D01*
X152337393Y-75002104D01*
X152140974Y-75102187D01*
X151962641Y-75231752D01*
X151962636Y-75231756D01*
X151806756Y-75387636D01*
X151806752Y-75387641D01*
X151705318Y-75527254D01*
X151649988Y-75569920D01*
X151580375Y-75575899D01*
X151518580Y-75543293D01*
X151504682Y-75527254D01*
X151403247Y-75387641D01*
X151403243Y-75387636D01*
X151247363Y-75231756D01*
X151247358Y-75231752D01*
X151069025Y-75102187D01*
X151069024Y-75102186D01*
X151069022Y-75102185D01*
X150985549Y-75059653D01*
X150872606Y-75002104D01*
X150872603Y-75002103D01*
X150662952Y-74933985D01*
X150499065Y-74908028D01*
X150445222Y-74899500D01*
X150224778Y-74899500D01*
X150170935Y-74908028D01*
X150007047Y-74933985D01*
X149797396Y-75002103D01*
X149797393Y-75002104D01*
X149600974Y-75102187D01*
X149422641Y-75231752D01*
X149422636Y-75231756D01*
X149266756Y-75387636D01*
X149266752Y-75387641D01*
X149165318Y-75527254D01*
X149109988Y-75569920D01*
X149040375Y-75575899D01*
X148978580Y-75543293D01*
X148964682Y-75527254D01*
X148863247Y-75387641D01*
X148863243Y-75387636D01*
X148707363Y-75231756D01*
X148707358Y-75231752D01*
X148529025Y-75102187D01*
X148529024Y-75102186D01*
X148529022Y-75102185D01*
X148445549Y-75059653D01*
X148332606Y-75002104D01*
X148332603Y-75002103D01*
X148122952Y-74933985D01*
X147959065Y-74908028D01*
X147905222Y-74899500D01*
X147684778Y-74899500D01*
X147630935Y-74908028D01*
X147467047Y-74933985D01*
X147257396Y-75002103D01*
X147257393Y-75002104D01*
X147060974Y-75102187D01*
X146882641Y-75231752D01*
X146882636Y-75231756D01*
X146726756Y-75387636D01*
X146625008Y-75527681D01*
X146569678Y-75570346D01*
X146500065Y-75576325D01*
X146438270Y-75543719D01*
X146424371Y-75527680D01*
X146406066Y-75502485D01*
X146406065Y-75502485D01*
X145758369Y-76150182D01*
X145744215Y-76097360D01*
X145675099Y-75977647D01*
X145577353Y-75879901D01*
X145457640Y-75810785D01*
X145404814Y-75796630D01*
X146052513Y-75148932D01*
X145988756Y-75102611D01*
X145792410Y-75002567D01*
X145582835Y-74934473D01*
X145365181Y-74900000D01*
X145144819Y-74900000D01*
X144927164Y-74934473D01*
X144717589Y-75002567D01*
X144521233Y-75102616D01*
X144457485Y-75148931D01*
X144457485Y-75148932D01*
X145105183Y-75796630D01*
X145052360Y-75810785D01*
X144932647Y-75879901D01*
X144834901Y-75977647D01*
X144765785Y-76097360D01*
X144751630Y-76150183D01*
X144103932Y-75502485D01*
X144103931Y-75502485D01*
X144057616Y-75566233D01*
X143957567Y-75762589D01*
X143889473Y-75972164D01*
X143855000Y-76189818D01*
X143855000Y-76410181D01*
X143889473Y-76627835D01*
X143957567Y-76837410D01*
X144057611Y-77033756D01*
X144103932Y-77097513D01*
X144751630Y-76449815D01*
X144765785Y-76502640D01*
X144834901Y-76622353D01*
X144932647Y-76720099D01*
X145052360Y-76789215D01*
X145105183Y-76803369D01*
X144457485Y-77451065D01*
X144457485Y-77451066D01*
X144521243Y-77497388D01*
X144717589Y-77597432D01*
X144927164Y-77665526D01*
X145144819Y-77700000D01*
X145365181Y-77700000D01*
X145582835Y-77665526D01*
X145792410Y-77597432D01*
X145988760Y-77497386D01*
X146052513Y-77451066D01*
X146052514Y-77451066D01*
X145404816Y-76803369D01*
X145457640Y-76789215D01*
X145577353Y-76720099D01*
X145675099Y-76622353D01*
X145744215Y-76502640D01*
X145758369Y-76449817D01*
X146406066Y-77097514D01*
X146406066Y-77097513D01*
X146424372Y-77072319D01*
X146479701Y-77029653D01*
X146549315Y-77023674D01*
X146611110Y-77056279D01*
X146625008Y-77072319D01*
X146726752Y-77212358D01*
X146726756Y-77212363D01*
X146882636Y-77368243D01*
X146882641Y-77368247D01*
X146943258Y-77412287D01*
X147060978Y-77497815D01*
X147189375Y-77563237D01*
X147257393Y-77597895D01*
X147257396Y-77597896D01*
X147324525Y-77619707D01*
X147467049Y-77666015D01*
X147684778Y-77700500D01*
X147684779Y-77700500D01*
X147905221Y-77700500D01*
X147905222Y-77700500D01*
X148122951Y-77666015D01*
X148332606Y-77597895D01*
X148529022Y-77497815D01*
X148707365Y-77368242D01*
X148863242Y-77212365D01*
X148895128Y-77168477D01*
X148964682Y-77072745D01*
X149020011Y-77030079D01*
X149089625Y-77024100D01*
X149151420Y-77056705D01*
X149165318Y-77072745D01*
X149266752Y-77212358D01*
X149266756Y-77212363D01*
X149422636Y-77368243D01*
X149422641Y-77368247D01*
X149600976Y-77497814D01*
X149666794Y-77531350D01*
X149717591Y-77579324D01*
X149734500Y-77641835D01*
X149734500Y-100034902D01*
X149714815Y-100101941D01*
X149698181Y-100122583D01*
X144519481Y-105301282D01*
X144519479Y-105301285D01*
X144473918Y-105380201D01*
X144473917Y-105380202D01*
X144452575Y-105417168D01*
X144440423Y-105438215D01*
X144399499Y-105590943D01*
X144399499Y-105590945D01*
X144399499Y-105759046D01*
X144399500Y-105759059D01*
X144399500Y-114699902D01*
X144379815Y-114766941D01*
X144363181Y-114787583D01*
X143415785Y-115734978D01*
X143354462Y-115768463D01*
X143284770Y-115763479D01*
X143240423Y-115734978D01*
X143122466Y-115617021D01*
X143122464Y-115617019D01*
X142961694Y-115500213D01*
X142805218Y-115420484D01*
X142754423Y-115372510D01*
X142737628Y-115304689D01*
X142760165Y-115238554D01*
X142805218Y-115199515D01*
X142961694Y-115119787D01*
X143122464Y-115002981D01*
X143262981Y-114862464D01*
X143379787Y-114701694D01*
X143470005Y-114524632D01*
X143531413Y-114335636D01*
X143562500Y-114139361D01*
X143562500Y-113940639D01*
X143531413Y-113744364D01*
X143484507Y-113600001D01*
X143470006Y-113555370D01*
X143470005Y-113555367D01*
X143394411Y-113407008D01*
X143379787Y-113378306D01*
X143262981Y-113217536D01*
X143122464Y-113077019D01*
X142961694Y-112960213D01*
X142784632Y-112869994D01*
X142784629Y-112869993D01*
X142595637Y-112808587D01*
X142497498Y-112793043D01*
X142399361Y-112777500D01*
X142200639Y-112777500D01*
X142135214Y-112787862D01*
X142004362Y-112808587D01*
X141815370Y-112869993D01*
X141815367Y-112869994D01*
X141638305Y-112960213D01*
X141477533Y-113077021D01*
X141337021Y-113217533D01*
X141220213Y-113378305D01*
X141129994Y-113555367D01*
X141129993Y-113555370D01*
X141068587Y-113744362D01*
X141068587Y-113744364D01*
X141037500Y-113940639D01*
X141037500Y-114139361D01*
X141047917Y-114205132D01*
X141068587Y-114335637D01*
X141129993Y-114524629D01*
X141129994Y-114524632D01*
X141208891Y-114679474D01*
X141220213Y-114701694D01*
X141337019Y-114862464D01*
X141477536Y-115002981D01*
X141638306Y-115119787D01*
X141746569Y-115174950D01*
X141794780Y-115199515D01*
X141845576Y-115247490D01*
X141862371Y-115315311D01*
X141839833Y-115381446D01*
X141794780Y-115420485D01*
X141638305Y-115500213D01*
X141477533Y-115617021D01*
X141337021Y-115757533D01*
X141220213Y-115918305D01*
X141129994Y-116095367D01*
X141129993Y-116095370D01*
X141068587Y-116284362D01*
X141065987Y-116300781D01*
X141037500Y-116480639D01*
X141037500Y-116679361D01*
X141041244Y-116703000D01*
X141068587Y-116875637D01*
X141129993Y-117064629D01*
X141129994Y-117064632D01*
X141210059Y-117221765D01*
X141220213Y-117241694D01*
X141337019Y-117402464D01*
X141477536Y-117542981D01*
X141638306Y-117659787D01*
X141741337Y-117712284D01*
X141794780Y-117739515D01*
X141845576Y-117787490D01*
X141862371Y-117855311D01*
X141839833Y-117921446D01*
X141794780Y-117960485D01*
X141638305Y-118040213D01*
X141477533Y-118157021D01*
X141337021Y-118297533D01*
X141220213Y-118458305D01*
X141129994Y-118635367D01*
X141129993Y-118635370D01*
X141068587Y-118824362D01*
X141037500Y-119020639D01*
X141037500Y-119219360D01*
X141068587Y-119415637D01*
X141129993Y-119604629D01*
X141129994Y-119604632D01*
X141187528Y-119717547D01*
X141220213Y-119781694D01*
X141337019Y-119942464D01*
X141477536Y-120082981D01*
X141638306Y-120199787D01*
X141756832Y-120260179D01*
X141794780Y-120279515D01*
X141845576Y-120327490D01*
X141862371Y-120395311D01*
X141839833Y-120461446D01*
X141794780Y-120500485D01*
X141638305Y-120580213D01*
X141477533Y-120697021D01*
X141337021Y-120837533D01*
X141220213Y-120998305D01*
X141129994Y-121175367D01*
X141129993Y-121175370D01*
X141068587Y-121364362D01*
X141037500Y-121560639D01*
X141037500Y-121759360D01*
X141068587Y-121955637D01*
X141129993Y-122144629D01*
X141129994Y-122144632D01*
X141220213Y-122321694D01*
X141337019Y-122482464D01*
X141477536Y-122622981D01*
X141638306Y-122739787D01*
X141729447Y-122786226D01*
X141794780Y-122819515D01*
X141845576Y-122867490D01*
X141862371Y-122935311D01*
X141839833Y-123001446D01*
X141794780Y-123040485D01*
X141638305Y-123120213D01*
X141477533Y-123237021D01*
X141337021Y-123377533D01*
X141220213Y-123538305D01*
X141129994Y-123715367D01*
X141129993Y-123715370D01*
X141068587Y-123904362D01*
X141037500Y-124100639D01*
X141037500Y-124299360D01*
X141068587Y-124495637D01*
X141129993Y-124684629D01*
X141129994Y-124684632D01*
X141207196Y-124836147D01*
X141220213Y-124861694D01*
X141337019Y-125022464D01*
X141477536Y-125162981D01*
X141638306Y-125279787D01*
X141756832Y-125340179D01*
X141794780Y-125359515D01*
X141845576Y-125407490D01*
X141862371Y-125475311D01*
X141839833Y-125541446D01*
X141794780Y-125580485D01*
X141638305Y-125660213D01*
X141477533Y-125777021D01*
X141337021Y-125917533D01*
X141220213Y-126078305D01*
X141129994Y-126255367D01*
X141129993Y-126255370D01*
X141068587Y-126444362D01*
X141052153Y-126548125D01*
X141037500Y-126640639D01*
X141037500Y-126839361D01*
X141039697Y-126853231D01*
X141030740Y-126922524D01*
X140985743Y-126975975D01*
X140918991Y-126996613D01*
X140851677Y-126977887D01*
X140829542Y-126960307D01*
X138510208Y-124640973D01*
X138500521Y-124631286D01*
X138500520Y-124631284D01*
X138388716Y-124519480D01*
X138344631Y-124494027D01*
X138335222Y-124485677D01*
X138334089Y-124483867D01*
X138329849Y-124480614D01*
X137536819Y-123687584D01*
X137503334Y-123626261D01*
X137500500Y-123599903D01*
X137500500Y-118029601D01*
X137520185Y-117962562D01*
X137568206Y-117919116D01*
X137581610Y-117912287D01*
X137747219Y-117791966D01*
X137891966Y-117647219D01*
X137891968Y-117647215D01*
X137891971Y-117647213D01*
X137953349Y-117562732D01*
X138012287Y-117481610D01*
X138105220Y-117299219D01*
X138168477Y-117104534D01*
X138200500Y-116902352D01*
X138200500Y-116697648D01*
X138168477Y-116495466D01*
X138163659Y-116480639D01*
X138105218Y-116300776D01*
X138054918Y-116202058D01*
X138012287Y-116118390D01*
X137995560Y-116095367D01*
X137891971Y-115952786D01*
X137747213Y-115808028D01*
X137581613Y-115687715D01*
X137581612Y-115687714D01*
X137581610Y-115687713D01*
X137524653Y-115658691D01*
X137399223Y-115594781D01*
X137204534Y-115531522D01*
X137029995Y-115503878D01*
X137002352Y-115499500D01*
X136797648Y-115499500D01*
X136773329Y-115503351D01*
X136595465Y-115531522D01*
X136400776Y-115594781D01*
X136218386Y-115687715D01*
X136052786Y-115808028D01*
X135908028Y-115952786D01*
X135787715Y-116118385D01*
X135780883Y-116131795D01*
X135732909Y-116182591D01*
X135670398Y-116199500D01*
X133329602Y-116199500D01*
X133262563Y-116179815D01*
X133219117Y-116131795D01*
X133212284Y-116118385D01*
X133091971Y-115952786D01*
X132947213Y-115808028D01*
X132781613Y-115687715D01*
X132781612Y-115687714D01*
X132781610Y-115687713D01*
X132724653Y-115658691D01*
X132599223Y-115594781D01*
X132404534Y-115531522D01*
X132229995Y-115503878D01*
X132202352Y-115499500D01*
X131997648Y-115499500D01*
X131973329Y-115503351D01*
X131795465Y-115531522D01*
X131600776Y-115594781D01*
X131418386Y-115687715D01*
X131252786Y-115808028D01*
X131108028Y-115952786D01*
X130987715Y-116118386D01*
X130894781Y-116300776D01*
X130831522Y-116495465D01*
X130799500Y-116697648D01*
X130799500Y-116902351D01*
X130831522Y-117104534D01*
X130894781Y-117299223D01*
X130987715Y-117481613D01*
X131108028Y-117647213D01*
X131252786Y-117791971D01*
X131385769Y-117888587D01*
X131418390Y-117912287D01*
X131499499Y-117953614D01*
X131600776Y-118005218D01*
X131600778Y-118005218D01*
X131600781Y-118005220D01*
X131675818Y-118029601D01*
X131795465Y-118068477D01*
X131896557Y-118084488D01*
X131997648Y-118100500D01*
X131997649Y-118100500D01*
X132202351Y-118100500D01*
X132202352Y-118100500D01*
X132404534Y-118068477D01*
X132599219Y-118005220D01*
X132781610Y-117912287D01*
X132880629Y-117840346D01*
X132947213Y-117791971D01*
X132947215Y-117791968D01*
X132947219Y-117791966D01*
X133091966Y-117647219D01*
X133091968Y-117647215D01*
X133091971Y-117647213D01*
X133212284Y-117481614D01*
X133212285Y-117481613D01*
X133212287Y-117481610D01*
X133219117Y-117468204D01*
X133267091Y-117417409D01*
X133329602Y-117400500D01*
X135670398Y-117400500D01*
X135737437Y-117420185D01*
X135780883Y-117468205D01*
X135787715Y-117481614D01*
X135908028Y-117647213D01*
X135908034Y-117647219D01*
X136052781Y-117791966D01*
X136218390Y-117912287D01*
X136231793Y-117919116D01*
X136282589Y-117967088D01*
X136299500Y-118029601D01*
X136299500Y-123813330D01*
X136299499Y-123813348D01*
X136299499Y-123979054D01*
X136299498Y-123979054D01*
X136340423Y-124131785D01*
X136369358Y-124181900D01*
X136369359Y-124181904D01*
X136369360Y-124181904D01*
X136419479Y-124268714D01*
X136419481Y-124268717D01*
X136538349Y-124387585D01*
X136538355Y-124387590D01*
X137519478Y-125368713D01*
X137519480Y-125368716D01*
X137631284Y-125480520D01*
X137675314Y-125505940D01*
X137684687Y-125514242D01*
X137685837Y-125516076D01*
X137690151Y-125519386D01*
X141036237Y-128865472D01*
X141069722Y-128926795D01*
X141069160Y-128979522D01*
X141069349Y-128979552D01*
X141069146Y-128980831D01*
X141069133Y-128982087D01*
X141068587Y-128984360D01*
X141037500Y-129180639D01*
X141037500Y-129379360D01*
X141068587Y-129575637D01*
X141129993Y-129764629D01*
X141129994Y-129764632D01*
X141220213Y-129941694D01*
X141337019Y-130102464D01*
X141477536Y-130242981D01*
X141638306Y-130359787D01*
X141696256Y-130389314D01*
X141815367Y-130450005D01*
X141815370Y-130450006D01*
X141835899Y-130456676D01*
X142004364Y-130511413D01*
X142200639Y-130542500D01*
X142200640Y-130542500D01*
X142399360Y-130542500D01*
X142399361Y-130542500D01*
X142595636Y-130511413D01*
X142784632Y-130450005D01*
X142961694Y-130359787D01*
X143122464Y-130242981D01*
X143262981Y-130102464D01*
X143379787Y-129941694D01*
X143470005Y-129764632D01*
X143531413Y-129575636D01*
X143562500Y-129379361D01*
X143562500Y-129180639D01*
X143531413Y-128984364D01*
X143492783Y-128865472D01*
X143470006Y-128795370D01*
X143470005Y-128795367D01*
X143379786Y-128618305D01*
X143262981Y-128457536D01*
X143122464Y-128317019D01*
X142961694Y-128200213D01*
X142805218Y-128120484D01*
X142754423Y-128072510D01*
X142737628Y-128004689D01*
X142760165Y-127938554D01*
X142805218Y-127899515D01*
X142961694Y-127819787D01*
X143122464Y-127702981D01*
X143262981Y-127562464D01*
X143379787Y-127401694D01*
X143379789Y-127401689D01*
X143381000Y-127399715D01*
X143381656Y-127399121D01*
X143382651Y-127397752D01*
X143382938Y-127397960D01*
X143432810Y-127352837D01*
X143486730Y-127340500D01*
X148330021Y-127340500D01*
X148330037Y-127340501D01*
X148337633Y-127340501D01*
X148495744Y-127340501D01*
X148495747Y-127340501D01*
X148648475Y-127299577D01*
X148720443Y-127258026D01*
X148785406Y-127220520D01*
X148897210Y-127108716D01*
X148897210Y-127108714D01*
X148907414Y-127098511D01*
X148907417Y-127098506D01*
X156259878Y-119746046D01*
X156321199Y-119712563D01*
X156390891Y-119717547D01*
X156446824Y-119759419D01*
X156458039Y-119777428D01*
X156460213Y-119781694D01*
X156577019Y-119942464D01*
X156717536Y-120082981D01*
X156878306Y-120199787D01*
X156996832Y-120260179D01*
X157034780Y-120279515D01*
X157085576Y-120327490D01*
X157102371Y-120395311D01*
X157079833Y-120461446D01*
X157034780Y-120500485D01*
X156878305Y-120580213D01*
X156717533Y-120697021D01*
X156577021Y-120837533D01*
X156460213Y-120998305D01*
X156369994Y-121175367D01*
X156369993Y-121175370D01*
X156308587Y-121364362D01*
X156277500Y-121560639D01*
X156277500Y-121759360D01*
X156308587Y-121955637D01*
X156369993Y-122144629D01*
X156369994Y-122144632D01*
X156460213Y-122321694D01*
X156577019Y-122482464D01*
X156717536Y-122622981D01*
X156878306Y-122739787D01*
X156969447Y-122786226D01*
X157034780Y-122819515D01*
X157085576Y-122867490D01*
X157102371Y-122935311D01*
X157079833Y-123001446D01*
X157034780Y-123040485D01*
X156878305Y-123120213D01*
X156717533Y-123237021D01*
X156577021Y-123377533D01*
X156460213Y-123538305D01*
X156369994Y-123715367D01*
X156369993Y-123715370D01*
X156308587Y-123904362D01*
X156277500Y-124100639D01*
X156277500Y-124299360D01*
X156308587Y-124495637D01*
X156369993Y-124684629D01*
X156369994Y-124684632D01*
X156447196Y-124836147D01*
X156460213Y-124861694D01*
X156577019Y-125022464D01*
X156717536Y-125162981D01*
X156878306Y-125279787D01*
X157035332Y-125359796D01*
X157086127Y-125407769D01*
X157102922Y-125475590D01*
X157080385Y-125541725D01*
X157035332Y-125580764D01*
X156878566Y-125660641D01*
X156841283Y-125687729D01*
X156841282Y-125687730D01*
X157455906Y-126302352D01*
X157368429Y-126325792D01*
X157267070Y-126384311D01*
X157184311Y-126467070D01*
X157125792Y-126568429D01*
X157102352Y-126655905D01*
X156487730Y-126041282D01*
X156487729Y-126041283D01*
X156460643Y-126078564D01*
X156370457Y-126255562D01*
X156309075Y-126444476D01*
X156309075Y-126444479D01*
X156278000Y-126640678D01*
X156278000Y-126839321D01*
X156309075Y-127035520D01*
X156309075Y-127035523D01*
X156370457Y-127224437D01*
X156460641Y-127401432D01*
X156487730Y-127438715D01*
X156487731Y-127438716D01*
X157102352Y-126824094D01*
X157125792Y-126911571D01*
X157184311Y-127012930D01*
X157267070Y-127095689D01*
X157368429Y-127154208D01*
X157455905Y-127177647D01*
X156841283Y-127792268D01*
X156841283Y-127792269D01*
X156878567Y-127819358D01*
X157035331Y-127899234D01*
X157086127Y-127947209D01*
X157102922Y-128015030D01*
X157080384Y-128081165D01*
X157035331Y-128120204D01*
X156878305Y-128200213D01*
X156717533Y-128317021D01*
X156577021Y-128457533D01*
X156460213Y-128618305D01*
X156369994Y-128795367D01*
X156369993Y-128795370D01*
X156308587Y-128984362D01*
X156277500Y-129180639D01*
X156277500Y-129379360D01*
X156308587Y-129575637D01*
X156369993Y-129764629D01*
X156369994Y-129764632D01*
X156460213Y-129941694D01*
X156577019Y-130102464D01*
X156717536Y-130242981D01*
X156878306Y-130359787D01*
X156936256Y-130389314D01*
X157055367Y-130450005D01*
X157055370Y-130450006D01*
X157075899Y-130456676D01*
X157244364Y-130511413D01*
X157440639Y-130542500D01*
X157440640Y-130542500D01*
X157556241Y-130542500D01*
X157623280Y-130562185D01*
X157669035Y-130614989D01*
X157678979Y-130684147D01*
X157649954Y-130747703D01*
X157591176Y-130785477D01*
X157586148Y-130786839D01*
X156756328Y-130993070D01*
X156749837Y-130994500D01*
X155045241Y-131322293D01*
X155038636Y-131323379D01*
X153306349Y-131560414D01*
X153299658Y-131561145D01*
X151541708Y-131705092D01*
X151534963Y-131705460D01*
X149753376Y-131753973D01*
X149746626Y-131753973D01*
X147965038Y-131705460D01*
X147958293Y-131705092D01*
X146268043Y-131566687D01*
X146200339Y-131561143D01*
X146193650Y-131560413D01*
X146052405Y-131541086D01*
X145667290Y-131488389D01*
X144461361Y-131323378D01*
X144454756Y-131322292D01*
X142750164Y-130994500D01*
X142743673Y-130993070D01*
X141068904Y-130576847D01*
X141062552Y-130575088D01*
X139419697Y-130072747D01*
X139413507Y-130070675D01*
X137804650Y-129484502D01*
X137798641Y-129482133D01*
X136626193Y-128984364D01*
X136225967Y-128814445D01*
X136220157Y-128811801D01*
X136186403Y-128795370D01*
X134685782Y-128064880D01*
X134680174Y-128061971D01*
X133186290Y-127238126D01*
X133180898Y-127234973D01*
X131729637Y-126336479D01*
X131724468Y-126333097D01*
X130812942Y-125703886D01*
X130318108Y-125362311D01*
X130313171Y-125358721D01*
X130210079Y-125279786D01*
X129107913Y-124435881D01*
X128953846Y-124317915D01*
X128949134Y-124314122D01*
X127639042Y-123205600D01*
X127634562Y-123201619D01*
X126375991Y-122027771D01*
X126371744Y-122023616D01*
X125166829Y-120786700D01*
X125162816Y-120782379D01*
X124013813Y-119484769D01*
X124010034Y-119480292D01*
X122919181Y-118124352D01*
X122915636Y-118119727D01*
X122494696Y-117542978D01*
X121885081Y-116707718D01*
X121881798Y-116702990D01*
X121866192Y-116679361D01*
X120913833Y-115237358D01*
X120910759Y-115232459D01*
X120710223Y-114895652D01*
X120344465Y-114281350D01*
X120007563Y-113715511D01*
X120004731Y-113710493D01*
X119997890Y-113697682D01*
X130800000Y-113697682D01*
X130800000Y-113902317D01*
X130832009Y-114104417D01*
X130895244Y-114299031D01*
X130988141Y-114481350D01*
X130988147Y-114481359D01*
X131020523Y-114525921D01*
X131020524Y-114525922D01*
X131617038Y-113929408D01*
X131634076Y-113992992D01*
X131699902Y-114107006D01*
X131792994Y-114200098D01*
X131907008Y-114265924D01*
X131970590Y-114282961D01*
X131374076Y-114879474D01*
X131418650Y-114911859D01*
X131600968Y-115004755D01*
X131795582Y-115067990D01*
X131997683Y-115100000D01*
X132202317Y-115100000D01*
X132404417Y-115067990D01*
X132599031Y-115004755D01*
X132781349Y-114911859D01*
X132825921Y-114879474D01*
X132229408Y-114282961D01*
X132292992Y-114265924D01*
X132407006Y-114200098D01*
X132500098Y-114107006D01*
X132565924Y-113992992D01*
X132582961Y-113929408D01*
X133179474Y-114525921D01*
X133211859Y-114481349D01*
X133304755Y-114299031D01*
X133367990Y-114104417D01*
X133400000Y-113902317D01*
X133400000Y-113697682D01*
X135600000Y-113697682D01*
X135600000Y-113902317D01*
X135632009Y-114104417D01*
X135695244Y-114299031D01*
X135788141Y-114481350D01*
X135788147Y-114481359D01*
X135820523Y-114525921D01*
X135820524Y-114525922D01*
X136417038Y-113929408D01*
X136434076Y-113992992D01*
X136499902Y-114107006D01*
X136592994Y-114200098D01*
X136707008Y-114265924D01*
X136770590Y-114282961D01*
X136174076Y-114879474D01*
X136218650Y-114911859D01*
X136400968Y-115004755D01*
X136595582Y-115067990D01*
X136797683Y-115100000D01*
X137002317Y-115100000D01*
X137204417Y-115067990D01*
X137399031Y-115004755D01*
X137581349Y-114911859D01*
X137625921Y-114879474D01*
X137029408Y-114282961D01*
X137092992Y-114265924D01*
X137207006Y-114200098D01*
X137300098Y-114107006D01*
X137365924Y-113992992D01*
X137382961Y-113929408D01*
X137979474Y-114525921D01*
X138011859Y-114481349D01*
X138104755Y-114299031D01*
X138167990Y-114104417D01*
X138200000Y-113902317D01*
X138200000Y-113697682D01*
X138167990Y-113495582D01*
X138104755Y-113300968D01*
X138011859Y-113118650D01*
X137979474Y-113074077D01*
X137979474Y-113074076D01*
X137382961Y-113670590D01*
X137365924Y-113607008D01*
X137300098Y-113492994D01*
X137207006Y-113399902D01*
X137092992Y-113334076D01*
X137029407Y-113317038D01*
X137625922Y-112720524D01*
X137625921Y-112720523D01*
X137581359Y-112688147D01*
X137581350Y-112688141D01*
X137399031Y-112595244D01*
X137204417Y-112532009D01*
X137002317Y-112500000D01*
X136797683Y-112500000D01*
X136595582Y-112532009D01*
X136400968Y-112595244D01*
X136218644Y-112688143D01*
X136174077Y-112720523D01*
X136174077Y-112720524D01*
X136770592Y-113317038D01*
X136707008Y-113334076D01*
X136592994Y-113399902D01*
X136499902Y-113492994D01*
X136434076Y-113607008D01*
X136417038Y-113670591D01*
X135820524Y-113074077D01*
X135820523Y-113074077D01*
X135788143Y-113118644D01*
X135695244Y-113300968D01*
X135632009Y-113495582D01*
X135600000Y-113697682D01*
X133400000Y-113697682D01*
X133367990Y-113495582D01*
X133304755Y-113300968D01*
X133211859Y-113118650D01*
X133179474Y-113074077D01*
X133179474Y-113074076D01*
X132582961Y-113670590D01*
X132565924Y-113607008D01*
X132500098Y-113492994D01*
X132407006Y-113399902D01*
X132292992Y-113334076D01*
X132229407Y-113317038D01*
X132825922Y-112720524D01*
X132825921Y-112720523D01*
X132781359Y-112688147D01*
X132781350Y-112688141D01*
X132599031Y-112595244D01*
X132404417Y-112532009D01*
X132202317Y-112500000D01*
X131997683Y-112500000D01*
X131795582Y-112532009D01*
X131600968Y-112595244D01*
X131418644Y-112688143D01*
X131374077Y-112720523D01*
X131374077Y-112720524D01*
X131970592Y-113317038D01*
X131907008Y-113334076D01*
X131792994Y-113399902D01*
X131699902Y-113492994D01*
X131634076Y-113607008D01*
X131617038Y-113670591D01*
X131020524Y-113074077D01*
X131020523Y-113074077D01*
X130988143Y-113118644D01*
X130895244Y-113300968D01*
X130832009Y-113495582D01*
X130800000Y-113697682D01*
X119997890Y-113697682D01*
X119980878Y-113665826D01*
X119664878Y-113074076D01*
X119532506Y-112826194D01*
X119168511Y-112144570D01*
X119165915Y-112139423D01*
X118616002Y-110983337D01*
X118398913Y-110526949D01*
X118396561Y-110521692D01*
X117878958Y-109288918D01*
X117700924Y-108864895D01*
X117698827Y-108859556D01*
X117076792Y-107160850D01*
X117074956Y-107155450D01*
X116528711Y-105417153D01*
X116527112Y-105411614D01*
X116518828Y-105380203D01*
X116058872Y-103636110D01*
X116057528Y-103630480D01*
X116025386Y-103480521D01*
X115669489Y-101820092D01*
X115668414Y-101814435D01*
X115457927Y-100545258D01*
X135664500Y-100545258D01*
X135664500Y-100774741D01*
X135686199Y-100939553D01*
X135694452Y-101002238D01*
X135731006Y-101138662D01*
X135753842Y-101223887D01*
X135841650Y-101435876D01*
X135841657Y-101435890D01*
X135956392Y-101634617D01*
X136096081Y-101816661D01*
X136096089Y-101816670D01*
X136258330Y-101978911D01*
X136258338Y-101978918D01*
X136258339Y-101978919D01*
X136291239Y-102004164D01*
X136440382Y-102118607D01*
X136440385Y-102118608D01*
X136440388Y-102118611D01*
X136639112Y-102233344D01*
X136639117Y-102233346D01*
X136639123Y-102233349D01*
X136730480Y-102271190D01*
X136851113Y-102321158D01*
X137072762Y-102380548D01*
X137300266Y-102410500D01*
X137300273Y-102410500D01*
X137529727Y-102410500D01*
X137529734Y-102410500D01*
X137757238Y-102380548D01*
X137978887Y-102321158D01*
X138190888Y-102233344D01*
X138389612Y-102118611D01*
X138571661Y-101978919D01*
X138571665Y-101978914D01*
X138571670Y-101978911D01*
X138733911Y-101816670D01*
X138733914Y-101816665D01*
X138733919Y-101816661D01*
X138873611Y-101634612D01*
X138988344Y-101435888D01*
X139076158Y-101223887D01*
X139135548Y-101002238D01*
X139165500Y-100774734D01*
X139165500Y-100545266D01*
X139135548Y-100317762D01*
X139076158Y-100096113D01*
X138988344Y-99884112D01*
X138873611Y-99685388D01*
X138873608Y-99685385D01*
X138873607Y-99685382D01*
X138733918Y-99503338D01*
X138733911Y-99503330D01*
X138571670Y-99341089D01*
X138571661Y-99341081D01*
X138389617Y-99201392D01*
X138190890Y-99086657D01*
X138190876Y-99086650D01*
X137978887Y-98998842D01*
X137757238Y-98939452D01*
X137719215Y-98934446D01*
X137529741Y-98909500D01*
X137529734Y-98909500D01*
X137300266Y-98909500D01*
X137300258Y-98909500D01*
X137083715Y-98938009D01*
X137072762Y-98939452D01*
X136979076Y-98964554D01*
X136851112Y-98998842D01*
X136639123Y-99086650D01*
X136639109Y-99086657D01*
X136440382Y-99201392D01*
X136258338Y-99341081D01*
X136096081Y-99503338D01*
X135956392Y-99685382D01*
X135841657Y-99884109D01*
X135841650Y-99884123D01*
X135753842Y-100096112D01*
X135694453Y-100317759D01*
X135694451Y-100317770D01*
X135664500Y-100545258D01*
X115457927Y-100545258D01*
X115362764Y-99971455D01*
X115361950Y-99965719D01*
X115356434Y-99918976D01*
X115140896Y-98092480D01*
X115140351Y-98086692D01*
X115013037Y-96283783D01*
X115006099Y-96185539D01*
X115005828Y-96179764D01*
X114960581Y-94252892D01*
X114960581Y-94247086D01*
X114968544Y-93908004D01*
X114999238Y-92600853D01*
X124564500Y-92600853D01*
X124564500Y-92876188D01*
X124564501Y-92876205D01*
X124600438Y-93149176D01*
X124600439Y-93149181D01*
X124600440Y-93149187D01*
X124600441Y-93149189D01*
X124671704Y-93415151D01*
X124777075Y-93669538D01*
X124777080Y-93669549D01*
X124856809Y-93807642D01*
X124914751Y-93908000D01*
X124914753Y-93908003D01*
X124914754Y-93908004D01*
X125082370Y-94126447D01*
X125082376Y-94126454D01*
X125277066Y-94321144D01*
X125277072Y-94321149D01*
X125495521Y-94488770D01*
X125648778Y-94577253D01*
X125733971Y-94626440D01*
X125733976Y-94626442D01*
X125733979Y-94626444D01*
X125988368Y-94731816D01*
X126254334Y-94803081D01*
X126527326Y-94839021D01*
X126527333Y-94839021D01*
X126802667Y-94839021D01*
X126802674Y-94839021D01*
X127075666Y-94803081D01*
X127341632Y-94731816D01*
X127596021Y-94626444D01*
X127834479Y-94488770D01*
X128052928Y-94321149D01*
X128247628Y-94126449D01*
X128415249Y-93908000D01*
X128552923Y-93669542D01*
X128658295Y-93415153D01*
X128729560Y-93149187D01*
X128765500Y-92876195D01*
X128765500Y-92600847D01*
X128729560Y-92327855D01*
X128658295Y-92061889D01*
X128552923Y-91807500D01*
X128552921Y-91807497D01*
X128552919Y-91807492D01*
X128481908Y-91684499D01*
X128415249Y-91569042D01*
X128247628Y-91350593D01*
X128247623Y-91350587D01*
X128052933Y-91155897D01*
X128052926Y-91155891D01*
X127834483Y-90988275D01*
X127834482Y-90988274D01*
X127834479Y-90988272D01*
X127731997Y-90929104D01*
X127596028Y-90850601D01*
X127596017Y-90850596D01*
X127341630Y-90745225D01*
X127208649Y-90709593D01*
X127075666Y-90673961D01*
X127075660Y-90673960D01*
X127075655Y-90673959D01*
X126802684Y-90638022D01*
X126802679Y-90638021D01*
X126802674Y-90638021D01*
X126527326Y-90638021D01*
X126527320Y-90638021D01*
X126527315Y-90638022D01*
X126254344Y-90673959D01*
X126254337Y-90673960D01*
X126254334Y-90673961D01*
X126198125Y-90689021D01*
X125988369Y-90745225D01*
X125733982Y-90850596D01*
X125733971Y-90850601D01*
X125495516Y-90988275D01*
X125277073Y-91155891D01*
X125277066Y-91155897D01*
X125082376Y-91350587D01*
X125082370Y-91350594D01*
X124914754Y-91569037D01*
X124777080Y-91807492D01*
X124777075Y-91807503D01*
X124671704Y-92061890D01*
X124630354Y-92216212D01*
X124601391Y-92324308D01*
X124600441Y-92327852D01*
X124600438Y-92327865D01*
X124564501Y-92600836D01*
X124564500Y-92600853D01*
X114999238Y-92600853D01*
X115005828Y-92320227D01*
X115006099Y-92314456D01*
X115140352Y-90413287D01*
X115140897Y-90407503D01*
X115150697Y-90324457D01*
X115305559Y-89012135D01*
X143564500Y-89012135D01*
X143564500Y-91107870D01*
X143564501Y-91107876D01*
X143570908Y-91167483D01*
X143621202Y-91302328D01*
X143621206Y-91302335D01*
X143707452Y-91417544D01*
X143707455Y-91417547D01*
X143822664Y-91503793D01*
X143822671Y-91503797D01*
X143867618Y-91520561D01*
X143957517Y-91554091D01*
X144017127Y-91560500D01*
X144340500Y-91560499D01*
X144407539Y-91580183D01*
X144453294Y-91632987D01*
X144464500Y-91684499D01*
X144464500Y-98836860D01*
X144464499Y-98836878D01*
X144464499Y-99002584D01*
X144464498Y-99002584D01*
X144505424Y-99155319D01*
X144505425Y-99155320D01*
X144532023Y-99201388D01*
X144532024Y-99201390D01*
X144584475Y-99292239D01*
X144584481Y-99292247D01*
X144703349Y-99411115D01*
X144703355Y-99411120D01*
X145736160Y-100443925D01*
X145769645Y-100505248D01*
X145770096Y-100507414D01*
X145800996Y-100662756D01*
X145800999Y-100662766D01*
X145861337Y-100808437D01*
X145861344Y-100808450D01*
X145948945Y-100939553D01*
X145948948Y-100939557D01*
X146060442Y-101051051D01*
X146060446Y-101051054D01*
X146191549Y-101138655D01*
X146191562Y-101138662D01*
X146337233Y-101199000D01*
X146337238Y-101199002D01*
X146491888Y-101229764D01*
X146491891Y-101229765D01*
X146491893Y-101229765D01*
X146649579Y-101229765D01*
X146649580Y-101229764D01*
X146804232Y-101199002D01*
X146949914Y-101138659D01*
X147081024Y-101051054D01*
X147192524Y-100939554D01*
X147280129Y-100808444D01*
X147340472Y-100662762D01*
X147371235Y-100508107D01*
X147371235Y-100350423D01*
X147371235Y-100350420D01*
X147371234Y-100350418D01*
X147340473Y-100195775D01*
X147340472Y-100195768D01*
X147331480Y-100174059D01*
X147280132Y-100050092D01*
X147280125Y-100050079D01*
X147192524Y-99918976D01*
X147192521Y-99918972D01*
X147081027Y-99807478D01*
X147081023Y-99807475D01*
X146949920Y-99719874D01*
X146949907Y-99719867D01*
X146804236Y-99659529D01*
X146804226Y-99659526D01*
X146648884Y-99628626D01*
X146586973Y-99596241D01*
X146585395Y-99594690D01*
X145701819Y-98711114D01*
X145668334Y-98649791D01*
X145665500Y-98623433D01*
X145665500Y-91684499D01*
X145685185Y-91617460D01*
X145737989Y-91571705D01*
X145789500Y-91560499D01*
X146112871Y-91560499D01*
X146112872Y-91560499D01*
X146172483Y-91554091D01*
X146307331Y-91503796D01*
X146422546Y-91417546D01*
X146508796Y-91302331D01*
X146559091Y-91167483D01*
X146565500Y-91107873D01*
X146565499Y-89012128D01*
X146559091Y-88952517D01*
X146508796Y-88817669D01*
X146508795Y-88817668D01*
X146508793Y-88817664D01*
X146422547Y-88702455D01*
X146422544Y-88702452D01*
X146307335Y-88616206D01*
X146307328Y-88616202D01*
X146172482Y-88565908D01*
X146172483Y-88565908D01*
X146112883Y-88559501D01*
X146112881Y-88559500D01*
X146112873Y-88559500D01*
X146112864Y-88559500D01*
X144017129Y-88559500D01*
X144017123Y-88559501D01*
X143957516Y-88565908D01*
X143822671Y-88616202D01*
X143822664Y-88616206D01*
X143707455Y-88702452D01*
X143707452Y-88702455D01*
X143621206Y-88817664D01*
X143621202Y-88817671D01*
X143570908Y-88952517D01*
X143566419Y-88994274D01*
X143564501Y-89012123D01*
X143564500Y-89012135D01*
X115305559Y-89012135D01*
X115361953Y-88534247D01*
X115362763Y-88528543D01*
X115668415Y-86685550D01*
X115669487Y-86679908D01*
X116057530Y-84869502D01*
X116058873Y-84863882D01*
X116527119Y-83088354D01*
X116528716Y-83082827D01*
X117074960Y-81344532D01*
X117076787Y-81339158D01*
X117698837Y-79640410D01*
X117700918Y-79635115D01*
X118396569Y-77978283D01*
X118398906Y-77973061D01*
X119165925Y-76360550D01*
X119168499Y-76355446D01*
X119252765Y-76197648D01*
X121989500Y-76197648D01*
X121989500Y-76402351D01*
X122021522Y-76604534D01*
X122084781Y-76799223D01*
X122148691Y-76924653D01*
X122174209Y-76974734D01*
X122177715Y-76981613D01*
X122298028Y-77147213D01*
X122442786Y-77291971D01*
X122597749Y-77404556D01*
X122608390Y-77412287D01*
X122724607Y-77471503D01*
X122790776Y-77505218D01*
X122790778Y-77505218D01*
X122790781Y-77505220D01*
X122825987Y-77516659D01*
X122985465Y-77568477D01*
X123053950Y-77579324D01*
X123187648Y-77600500D01*
X123187649Y-77600500D01*
X123392351Y-77600500D01*
X123392352Y-77600500D01*
X123594534Y-77568477D01*
X123789219Y-77505220D01*
X123971610Y-77412287D01*
X124077698Y-77335210D01*
X124137213Y-77291971D01*
X124137215Y-77291968D01*
X124137219Y-77291966D01*
X124281966Y-77147219D01*
X124281968Y-77147215D01*
X124281971Y-77147213D01*
X124347728Y-77056705D01*
X124402287Y-76981610D01*
X124495220Y-76799219D01*
X124558477Y-76604534D01*
X124590500Y-76402352D01*
X124590500Y-76197648D01*
X129609500Y-76197648D01*
X129609500Y-76402351D01*
X129641522Y-76604534D01*
X129704781Y-76799223D01*
X129768691Y-76924653D01*
X129794209Y-76974734D01*
X129797715Y-76981613D01*
X129918028Y-77147213D01*
X130062786Y-77291971D01*
X130217749Y-77404556D01*
X130228390Y-77412287D01*
X130344607Y-77471503D01*
X130410776Y-77505218D01*
X130410778Y-77505218D01*
X130410781Y-77505220D01*
X130445987Y-77516659D01*
X130605465Y-77568477D01*
X130673950Y-77579324D01*
X130807648Y-77600500D01*
X130807649Y-77600500D01*
X131012351Y-77600500D01*
X131012352Y-77600500D01*
X131214534Y-77568477D01*
X131409219Y-77505220D01*
X131591610Y-77412287D01*
X131697698Y-77335210D01*
X131757213Y-77291971D01*
X131757215Y-77291968D01*
X131757219Y-77291966D01*
X131901966Y-77147219D01*
X131901968Y-77147215D01*
X131901971Y-77147213D01*
X131967728Y-77056705D01*
X132022287Y-76981610D01*
X132115220Y-76799219D01*
X132132753Y-76745258D01*
X135664500Y-76745258D01*
X135664500Y-76974741D01*
X135680730Y-77098013D01*
X135694452Y-77202238D01*
X135750733Y-77412284D01*
X135753842Y-77423887D01*
X135841650Y-77635876D01*
X135841657Y-77635890D01*
X135956392Y-77834617D01*
X136096081Y-78016661D01*
X136096089Y-78016670D01*
X136258330Y-78178911D01*
X136258338Y-78178918D01*
X136440382Y-78318607D01*
X136440385Y-78318608D01*
X136440388Y-78318611D01*
X136639112Y-78433344D01*
X136639117Y-78433346D01*
X136639123Y-78433349D01*
X136730480Y-78471190D01*
X136851113Y-78521158D01*
X137072762Y-78580548D01*
X137300266Y-78610500D01*
X137300273Y-78610500D01*
X137529727Y-78610500D01*
X137529734Y-78610500D01*
X137757238Y-78580548D01*
X137978887Y-78521158D01*
X138190888Y-78433344D01*
X138389612Y-78318611D01*
X138571661Y-78178919D01*
X138571665Y-78178914D01*
X138571670Y-78178911D01*
X138733911Y-78016670D01*
X138733914Y-78016665D01*
X138733919Y-78016661D01*
X138873611Y-77834612D01*
X138988344Y-77635888D01*
X139076158Y-77423887D01*
X139135548Y-77202238D01*
X139165500Y-76974734D01*
X139165500Y-76745266D01*
X139135548Y-76517762D01*
X139076158Y-76296113D01*
X138988344Y-76084112D01*
X138873611Y-75885388D01*
X138873608Y-75885385D01*
X138873607Y-75885382D01*
X138772764Y-75753962D01*
X138733919Y-75703339D01*
X138733918Y-75703338D01*
X138733911Y-75703330D01*
X138571670Y-75541089D01*
X138571661Y-75541081D01*
X138389617Y-75401392D01*
X138220198Y-75303578D01*
X138190891Y-75286657D01*
X138190876Y-75286650D01*
X137978887Y-75198842D01*
X137937360Y-75187715D01*
X137757238Y-75139452D01*
X137719215Y-75134446D01*
X137529741Y-75109500D01*
X137529734Y-75109500D01*
X137300266Y-75109500D01*
X137300258Y-75109500D01*
X137083715Y-75138009D01*
X137072762Y-75139452D01*
X137037382Y-75148932D01*
X136851112Y-75198842D01*
X136639123Y-75286650D01*
X136639109Y-75286657D01*
X136440382Y-75401392D01*
X136258338Y-75541081D01*
X136096081Y-75703338D01*
X135956392Y-75885382D01*
X135841657Y-76084109D01*
X135841650Y-76084123D01*
X135753842Y-76296112D01*
X135694453Y-76517759D01*
X135694451Y-76517770D01*
X135664500Y-76745258D01*
X132132753Y-76745258D01*
X132162550Y-76653553D01*
X132178476Y-76604538D01*
X132178476Y-76604537D01*
X132178477Y-76604534D01*
X132210500Y-76402352D01*
X132210500Y-76197648D01*
X132179568Y-76002352D01*
X132178478Y-75995472D01*
X132178477Y-75995471D01*
X132178477Y-75995466D01*
X132173825Y-75981151D01*
X132171832Y-75911312D01*
X132204075Y-75855158D01*
X133358506Y-74700728D01*
X133358511Y-74700724D01*
X133368714Y-74690520D01*
X133368716Y-74690520D01*
X133480520Y-74578716D01*
X133559577Y-74441784D01*
X133600500Y-74289057D01*
X133600500Y-71874499D01*
X133620185Y-71807460D01*
X133672989Y-71761705D01*
X133724500Y-71750499D01*
X134147871Y-71750499D01*
X134147872Y-71750499D01*
X134207483Y-71744091D01*
X134342331Y-71693796D01*
X134457546Y-71607546D01*
X134543796Y-71492331D01*
X134594091Y-71357483D01*
X134600500Y-71297873D01*
X134600500Y-71197844D01*
X164000000Y-71197844D01*
X164006401Y-71257372D01*
X164006403Y-71257379D01*
X164056645Y-71392086D01*
X164056649Y-71392093D01*
X164142809Y-71507187D01*
X164142812Y-71507190D01*
X164257906Y-71593350D01*
X164257913Y-71593354D01*
X164392620Y-71643596D01*
X164392627Y-71643598D01*
X164452155Y-71649999D01*
X164452172Y-71650000D01*
X164750000Y-71650000D01*
X164750000Y-70150000D01*
X164000000Y-70150000D01*
X164000000Y-71197844D01*
X134600500Y-71197844D01*
X134600499Y-69821881D01*
X134600499Y-68702129D01*
X134600498Y-68702123D01*
X134594091Y-68642516D01*
X134593967Y-68642184D01*
X134579037Y-68602155D01*
X164000000Y-68602155D01*
X164000000Y-69650000D01*
X164750000Y-69650000D01*
X164750000Y-68150000D01*
X165250000Y-68150000D01*
X165250000Y-71650000D01*
X165547828Y-71650000D01*
X165547844Y-71649999D01*
X165607372Y-71643598D01*
X165607375Y-71643597D01*
X165655949Y-71625480D01*
X165725640Y-71620494D01*
X165742610Y-71625477D01*
X165792517Y-71644091D01*
X165852127Y-71650500D01*
X168147872Y-71650499D01*
X168207483Y-71644091D01*
X168342331Y-71593796D01*
X168457546Y-71507546D01*
X168543796Y-71392331D01*
X168594091Y-71257483D01*
X168600500Y-71197873D01*
X168600500Y-70624500D01*
X168620185Y-70557461D01*
X168672989Y-70511706D01*
X168724500Y-70500500D01*
X171599903Y-70500500D01*
X171666942Y-70520185D01*
X171687584Y-70536819D01*
X172773181Y-71622416D01*
X172806666Y-71683739D01*
X172809500Y-71710097D01*
X172809500Y-74670397D01*
X172789815Y-74737436D01*
X172741800Y-74780879D01*
X172728389Y-74787712D01*
X172562786Y-74908028D01*
X172418028Y-75052786D01*
X172297715Y-75218386D01*
X172204781Y-75400776D01*
X172141522Y-75595465D01*
X172109500Y-75797648D01*
X172109500Y-76002351D01*
X172141522Y-76204534D01*
X172204781Y-76399223D01*
X172297715Y-76581613D01*
X172418028Y-76747213D01*
X172562786Y-76891971D01*
X172717749Y-77004556D01*
X172728390Y-77012287D01*
X172844607Y-77071503D01*
X172910776Y-77105218D01*
X172910778Y-77105218D01*
X172910781Y-77105220D01*
X173015137Y-77139127D01*
X173105465Y-77168477D01*
X173206557Y-77184488D01*
X173307648Y-77200500D01*
X173307649Y-77200500D01*
X173512351Y-77200500D01*
X173512352Y-77200500D01*
X173714534Y-77168477D01*
X173909219Y-77105220D01*
X174091610Y-77012287D01*
X174195067Y-76937122D01*
X174257213Y-76891971D01*
X174257215Y-76891968D01*
X174257219Y-76891966D01*
X174401966Y-76747219D01*
X174401968Y-76747215D01*
X174401971Y-76747213D01*
X174470018Y-76653553D01*
X174522287Y-76581610D01*
X174615220Y-76399219D01*
X174678477Y-76204534D01*
X174710500Y-76002352D01*
X174710500Y-75797648D01*
X174678477Y-75595466D01*
X174672119Y-75575899D01*
X174632116Y-75452781D01*
X174615220Y-75400781D01*
X174615218Y-75400778D01*
X174615218Y-75400776D01*
X174567960Y-75308028D01*
X174522287Y-75218390D01*
X174508085Y-75198842D01*
X174401971Y-75052786D01*
X174257213Y-74908028D01*
X174091610Y-74787712D01*
X174078200Y-74780879D01*
X174027406Y-74732903D01*
X174010500Y-74670397D01*
X174010500Y-71330945D01*
X174010500Y-71330943D01*
X173969577Y-71178216D01*
X173965006Y-71170298D01*
X173890524Y-71041290D01*
X173890521Y-71041286D01*
X173890520Y-71041284D01*
X173778716Y-70929480D01*
X173778715Y-70929479D01*
X173774385Y-70925149D01*
X173774374Y-70925139D01*
X172387590Y-69538355D01*
X172387588Y-69538352D01*
X172268717Y-69419481D01*
X172268716Y-69419480D01*
X172181904Y-69369360D01*
X172181904Y-69369359D01*
X172181900Y-69369358D01*
X172131785Y-69340423D01*
X171979057Y-69299499D01*
X171820943Y-69299499D01*
X171813347Y-69299499D01*
X171813331Y-69299500D01*
X168724499Y-69299500D01*
X168657460Y-69279815D01*
X168611705Y-69227011D01*
X168600499Y-69175500D01*
X168600499Y-68602129D01*
X168600498Y-68602123D01*
X168594091Y-68542516D01*
X168543797Y-68407671D01*
X168543793Y-68407664D01*
X168457547Y-68292455D01*
X168457544Y-68292452D01*
X168342335Y-68206206D01*
X168342328Y-68206202D01*
X168207482Y-68155908D01*
X168207483Y-68155908D01*
X168147883Y-68149501D01*
X168147881Y-68149500D01*
X168147873Y-68149500D01*
X168147864Y-68149500D01*
X165852129Y-68149500D01*
X165852123Y-68149501D01*
X165792517Y-68155908D01*
X165742616Y-68174520D01*
X165672925Y-68179503D01*
X165655953Y-68174519D01*
X165607383Y-68156403D01*
X165607372Y-68156401D01*
X165547844Y-68150000D01*
X165250000Y-68150000D01*
X164750000Y-68150000D01*
X164452155Y-68150000D01*
X164392627Y-68156401D01*
X164392620Y-68156403D01*
X164257913Y-68206645D01*
X164257906Y-68206649D01*
X164142812Y-68292809D01*
X164142809Y-68292812D01*
X164056649Y-68407906D01*
X164056645Y-68407913D01*
X164006403Y-68542620D01*
X164006401Y-68542627D01*
X164000000Y-68602155D01*
X134579037Y-68602155D01*
X134543797Y-68507671D01*
X134543793Y-68507664D01*
X134457547Y-68392455D01*
X134457544Y-68392452D01*
X134342335Y-68306206D01*
X134342328Y-68306202D01*
X134207482Y-68255908D01*
X134207483Y-68255908D01*
X134147883Y-68249501D01*
X134147881Y-68249500D01*
X134147873Y-68249500D01*
X134147864Y-68249500D01*
X131852129Y-68249500D01*
X131852123Y-68249501D01*
X131792517Y-68255908D01*
X131742616Y-68274520D01*
X131672925Y-68279503D01*
X131655953Y-68274519D01*
X131607383Y-68256403D01*
X131607372Y-68256401D01*
X131547844Y-68250000D01*
X131250000Y-68250000D01*
X131250000Y-71750000D01*
X131547828Y-71750000D01*
X131547844Y-71749999D01*
X131607372Y-71743598D01*
X131607375Y-71743597D01*
X131655949Y-71725480D01*
X131725640Y-71720494D01*
X131742610Y-71725477D01*
X131792517Y-71744091D01*
X131852127Y-71750500D01*
X132275500Y-71750499D01*
X132342539Y-71770183D01*
X132388294Y-71822987D01*
X132399500Y-71874499D01*
X132399500Y-73909902D01*
X132379815Y-73976941D01*
X132363181Y-73997583D01*
X131354842Y-75005921D01*
X131293519Y-75039406D01*
X131228848Y-75036173D01*
X131214534Y-75031522D01*
X131028799Y-75002105D01*
X131012352Y-74999500D01*
X130807648Y-74999500D01*
X130791201Y-75002105D01*
X130605465Y-75031522D01*
X130410776Y-75094781D01*
X130228386Y-75187715D01*
X130062786Y-75308028D01*
X129918028Y-75452786D01*
X129797715Y-75618386D01*
X129704781Y-75800776D01*
X129641522Y-75995465D01*
X129609500Y-76197648D01*
X124590500Y-76197648D01*
X124589260Y-76189818D01*
X124558477Y-75995465D01*
X124522710Y-75885388D01*
X124495220Y-75800781D01*
X124495218Y-75800778D01*
X124495218Y-75800776D01*
X124447766Y-75707647D01*
X124402287Y-75618390D01*
X124385631Y-75595465D01*
X124281971Y-75452786D01*
X124137213Y-75308028D01*
X123971613Y-75187715D01*
X123971612Y-75187714D01*
X123971610Y-75187713D01*
X123876891Y-75139451D01*
X123789223Y-75094781D01*
X123594534Y-75031522D01*
X123408799Y-75002105D01*
X123392352Y-74999500D01*
X123187648Y-74999500D01*
X123171201Y-75002105D01*
X122985465Y-75031522D01*
X122790776Y-75094781D01*
X122608386Y-75187715D01*
X122442786Y-75308028D01*
X122298028Y-75452786D01*
X122177715Y-75618386D01*
X122084781Y-75800776D01*
X122021522Y-75995465D01*
X121989500Y-76197648D01*
X119252765Y-76197648D01*
X120004746Y-74789476D01*
X120007552Y-74784503D01*
X120910771Y-73267516D01*
X120913821Y-73262656D01*
X121881817Y-71796977D01*
X121885086Y-71792271D01*
X122245944Y-71297844D01*
X130000000Y-71297844D01*
X130006401Y-71357372D01*
X130006403Y-71357379D01*
X130056645Y-71492086D01*
X130056649Y-71492093D01*
X130142809Y-71607187D01*
X130142812Y-71607190D01*
X130257906Y-71693350D01*
X130257913Y-71693354D01*
X130392620Y-71743596D01*
X130392627Y-71743598D01*
X130452155Y-71749999D01*
X130452172Y-71750000D01*
X130750000Y-71750000D01*
X130750000Y-70250000D01*
X130000000Y-70250000D01*
X130000000Y-71297844D01*
X122245944Y-71297844D01*
X122915640Y-70380264D01*
X122919181Y-70375645D01*
X124010044Y-69019693D01*
X124013813Y-69015228D01*
X124291032Y-68702155D01*
X130000000Y-68702155D01*
X130000000Y-69750000D01*
X130750000Y-69750000D01*
X130750000Y-68250000D01*
X130452155Y-68250000D01*
X130392627Y-68256401D01*
X130392620Y-68256403D01*
X130257913Y-68306645D01*
X130257906Y-68306649D01*
X130142812Y-68392809D01*
X130142809Y-68392812D01*
X130056649Y-68507906D01*
X130056645Y-68507913D01*
X130006403Y-68642620D01*
X130006401Y-68642627D01*
X130000000Y-68702155D01*
X124291032Y-68702155D01*
X124291057Y-68702127D01*
X125162825Y-67717606D01*
X125166829Y-67713296D01*
X126371761Y-66476363D01*
X126375972Y-66472243D01*
X127634583Y-65298358D01*
X127639019Y-65294416D01*
X128752619Y-64352155D01*
X146875000Y-64352155D01*
X146875000Y-65000000D01*
X147791988Y-65000000D01*
X147759075Y-65057007D01*
X147725000Y-65184174D01*
X147725000Y-65315826D01*
X147759075Y-65442993D01*
X147791988Y-65500000D01*
X146875000Y-65500000D01*
X146875000Y-66147844D01*
X146881401Y-66207372D01*
X146881403Y-66207379D01*
X146931645Y-66342086D01*
X146931649Y-66342093D01*
X147017809Y-66457187D01*
X147017812Y-66457190D01*
X147132906Y-66543350D01*
X147132913Y-66543354D01*
X147267620Y-66593596D01*
X147267627Y-66593598D01*
X147327155Y-66599999D01*
X147327172Y-66600000D01*
X147975000Y-66600000D01*
X147975000Y-65683012D01*
X148032007Y-65715925D01*
X148159174Y-65750000D01*
X148290826Y-65750000D01*
X148417993Y-65715925D01*
X148475000Y-65683012D01*
X148475000Y-66600000D01*
X149122828Y-66600000D01*
X149122844Y-66599999D01*
X149182372Y-66593598D01*
X149182379Y-66593596D01*
X149317086Y-66543354D01*
X149317093Y-66543350D01*
X149432187Y-66457190D01*
X149432190Y-66457187D01*
X149518350Y-66342093D01*
X149518354Y-66342086D01*
X149567422Y-66210529D01*
X149609293Y-66154595D01*
X149674757Y-66130178D01*
X149743030Y-66145030D01*
X149771285Y-66166181D01*
X149885213Y-66280109D01*
X150057179Y-66405048D01*
X150057181Y-66405049D01*
X150057184Y-66405051D01*
X150246588Y-66501557D01*
X150448757Y-66567246D01*
X150658713Y-66600500D01*
X150658714Y-66600500D01*
X150871286Y-66600500D01*
X150871287Y-66600500D01*
X151081243Y-66567246D01*
X151283412Y-66501557D01*
X151472816Y-66405051D01*
X151559471Y-66342093D01*
X151644786Y-66280109D01*
X151644788Y-66280106D01*
X151644792Y-66280104D01*
X151795104Y-66129792D01*
X151795106Y-66129788D01*
X151795109Y-66129786D01*
X151920048Y-65957820D01*
X151920047Y-65957820D01*
X151920051Y-65957816D01*
X152016557Y-65768412D01*
X152082246Y-65566243D01*
X152115500Y-65356287D01*
X152115500Y-65143713D01*
X152082246Y-64933757D01*
X152016557Y-64731588D01*
X151920051Y-64542184D01*
X151920049Y-64542181D01*
X151920048Y-64542179D01*
X151795109Y-64370213D01*
X151644786Y-64219890D01*
X151472820Y-64094951D01*
X151283414Y-63998444D01*
X151283413Y-63998443D01*
X151283412Y-63998443D01*
X151081243Y-63932754D01*
X151081241Y-63932753D01*
X151081240Y-63932753D01*
X150919957Y-63907208D01*
X150871287Y-63899500D01*
X150658713Y-63899500D01*
X150610042Y-63907208D01*
X150448760Y-63932753D01*
X150246585Y-63998444D01*
X150057179Y-64094951D01*
X149885215Y-64219889D01*
X149771285Y-64333819D01*
X149709962Y-64367303D01*
X149640270Y-64362319D01*
X149584337Y-64320447D01*
X149567422Y-64289470D01*
X149518354Y-64157913D01*
X149518350Y-64157906D01*
X149432190Y-64042812D01*
X149432187Y-64042809D01*
X149317093Y-63956649D01*
X149317086Y-63956645D01*
X149182379Y-63906403D01*
X149182372Y-63906401D01*
X149122844Y-63900000D01*
X148475000Y-63900000D01*
X148475000Y-64816988D01*
X148417993Y-64784075D01*
X148290826Y-64750000D01*
X148159174Y-64750000D01*
X148032007Y-64784075D01*
X147975000Y-64816988D01*
X147975000Y-63900000D01*
X147327155Y-63900000D01*
X147267627Y-63906401D01*
X147267620Y-63906403D01*
X147132913Y-63956645D01*
X147132906Y-63956649D01*
X147017812Y-64042809D01*
X147017809Y-64042812D01*
X146931649Y-64157906D01*
X146931645Y-64157913D01*
X146881403Y-64292620D01*
X146881401Y-64292627D01*
X146875000Y-64352155D01*
X128752619Y-64352155D01*
X128949134Y-64185876D01*
X128953821Y-64182101D01*
X130313203Y-63141252D01*
X130318081Y-63137705D01*
X131724486Y-62166888D01*
X131729613Y-62163532D01*
X133180903Y-61265021D01*
X133186265Y-61261885D01*
X134680204Y-60438010D01*
X134685749Y-60435134D01*
X135348872Y-60112332D01*
X147249500Y-60112332D01*
X147249500Y-60387667D01*
X147249501Y-60387684D01*
X147285438Y-60660655D01*
X147285439Y-60660660D01*
X147285440Y-60660666D01*
X147285441Y-60660668D01*
X147356704Y-60926630D01*
X147462075Y-61181017D01*
X147462080Y-61181028D01*
X147526484Y-61292577D01*
X147599751Y-61419479D01*
X147599753Y-61419482D01*
X147599754Y-61419483D01*
X147767370Y-61637926D01*
X147767376Y-61637933D01*
X147962066Y-61832623D01*
X147962072Y-61832628D01*
X148180521Y-62000249D01*
X148333778Y-62088732D01*
X148418971Y-62137919D01*
X148418976Y-62137921D01*
X148418979Y-62137923D01*
X148673368Y-62243295D01*
X148939334Y-62314560D01*
X149212326Y-62350500D01*
X149212333Y-62350500D01*
X149487667Y-62350500D01*
X149487674Y-62350500D01*
X149760666Y-62314560D01*
X150026632Y-62243295D01*
X150281021Y-62137923D01*
X150519479Y-62000249D01*
X150737928Y-61832628D01*
X150932628Y-61637928D01*
X151100249Y-61419479D01*
X151237923Y-61181021D01*
X151343295Y-60926632D01*
X151414560Y-60660666D01*
X151450500Y-60387674D01*
X151450500Y-60112326D01*
X151414560Y-59839334D01*
X151343295Y-59573368D01*
X151237923Y-59318979D01*
X151237921Y-59318976D01*
X151237919Y-59318971D01*
X151188732Y-59233778D01*
X151100249Y-59080521D01*
X150932628Y-58862072D01*
X150932623Y-58862066D01*
X150737933Y-58667376D01*
X150737926Y-58667370D01*
X150519483Y-58499754D01*
X150519482Y-58499753D01*
X150519479Y-58499751D01*
X150395565Y-58428209D01*
X150281028Y-58362080D01*
X150281017Y-58362075D01*
X150026630Y-58256704D01*
X149893649Y-58221072D01*
X149760666Y-58185440D01*
X149760660Y-58185439D01*
X149760655Y-58185438D01*
X149487684Y-58149501D01*
X149487679Y-58149500D01*
X149487674Y-58149500D01*
X149212326Y-58149500D01*
X149212320Y-58149500D01*
X149212315Y-58149501D01*
X148939344Y-58185438D01*
X148939337Y-58185439D01*
X148939334Y-58185440D01*
X148883125Y-58200500D01*
X148673369Y-58256704D01*
X148418982Y-58362075D01*
X148418971Y-58362080D01*
X148180516Y-58499754D01*
X147962073Y-58667370D01*
X147962066Y-58667376D01*
X147767376Y-58862066D01*
X147767370Y-58862073D01*
X147599754Y-59080516D01*
X147462080Y-59318971D01*
X147462075Y-59318982D01*
X147356704Y-59573369D01*
X147285441Y-59839331D01*
X147285438Y-59839344D01*
X147249501Y-60112315D01*
X147249500Y-60112332D01*
X135348872Y-60112332D01*
X136220193Y-59688181D01*
X136225934Y-59685567D01*
X137798669Y-59017854D01*
X137804621Y-59015508D01*
X139413515Y-58429321D01*
X139419688Y-58427254D01*
X141062569Y-57924905D01*
X141068887Y-57923155D01*
X142743697Y-57506923D01*
X142750138Y-57505504D01*
X144454788Y-57177701D01*
X144461330Y-57176626D01*
X146193688Y-56939581D01*
X146200303Y-56938859D01*
X147958300Y-56794906D01*
X147965031Y-56794539D01*
X149746659Y-56746026D01*
X149753343Y-56746026D01*
X151534968Y-56794539D01*
G37*
%TD.AperFunction*%
%TA.AperFunction,Conductor*%
G36*
X151140703Y-90210901D02*
G01*
X151178477Y-90269679D01*
X151181973Y-90285216D01*
X151201934Y-90411247D01*
X151274897Y-90635802D01*
X151382087Y-90846174D01*
X151442338Y-90929104D01*
X151442340Y-90929105D01*
X152182037Y-90189408D01*
X152199075Y-90252993D01*
X152264901Y-90367007D01*
X152357993Y-90460099D01*
X152472007Y-90525925D01*
X152535589Y-90542962D01*
X151795893Y-91282658D01*
X151878828Y-91342914D01*
X152089197Y-91450102D01*
X152313752Y-91523065D01*
X152313751Y-91523065D01*
X152546948Y-91560000D01*
X152783052Y-91560000D01*
X153016247Y-91523065D01*
X153237182Y-91451279D01*
X153307023Y-91449284D01*
X153366856Y-91485364D01*
X153397684Y-91548065D01*
X153399500Y-91569210D01*
X153399500Y-102699903D01*
X153379815Y-102766942D01*
X153363181Y-102787584D01*
X145812181Y-110338584D01*
X145750858Y-110372069D01*
X145681166Y-110367085D01*
X145625233Y-110325213D01*
X145600816Y-110259749D01*
X145600500Y-110250903D01*
X145600500Y-105970096D01*
X145620185Y-105903057D01*
X145636814Y-105882420D01*
X150693506Y-100825727D01*
X150693511Y-100825724D01*
X150703714Y-100815520D01*
X150703716Y-100815520D01*
X150815520Y-100703716D01*
X150894577Y-100566784D01*
X150935500Y-100414057D01*
X150935500Y-90304614D01*
X150955185Y-90237575D01*
X151007989Y-90191820D01*
X151077147Y-90181876D01*
X151140703Y-90210901D01*
G37*
%TD.AperFunction*%
%TA.AperFunction,Conductor*%
G36*
X151622384Y-77024721D02*
G01*
X151629625Y-77024100D01*
X151654503Y-77037226D01*
X151680721Y-77047434D01*
X151687952Y-77054875D01*
X151691420Y-77056705D01*
X151705318Y-77072745D01*
X151806752Y-77212358D01*
X151806756Y-77212363D01*
X151962636Y-77368243D01*
X151962641Y-77368247D01*
X152023258Y-77412287D01*
X152140978Y-77497815D01*
X152269375Y-77563237D01*
X152337393Y-77597895D01*
X152337396Y-77597896D01*
X152404525Y-77619707D01*
X152547049Y-77666015D01*
X152764778Y-77700500D01*
X152764779Y-77700500D01*
X152985221Y-77700500D01*
X152985222Y-77700500D01*
X153202951Y-77666015D01*
X153237181Y-77654893D01*
X153307022Y-77652898D01*
X153366855Y-77688978D01*
X153397684Y-77751678D01*
X153399500Y-77772824D01*
X153399500Y-88550789D01*
X153379815Y-88617828D01*
X153327011Y-88663583D01*
X153257853Y-88673527D01*
X153237182Y-88668720D01*
X153016248Y-88596934D01*
X152783052Y-88560000D01*
X152546948Y-88560000D01*
X152313752Y-88596934D01*
X152089197Y-88669897D01*
X151878830Y-88777084D01*
X151795894Y-88837340D01*
X152535591Y-89577037D01*
X152472007Y-89594075D01*
X152357993Y-89659901D01*
X152264901Y-89752993D01*
X152199075Y-89867007D01*
X152182037Y-89930591D01*
X151442340Y-89190894D01*
X151382084Y-89273830D01*
X151274897Y-89484197D01*
X151201934Y-89708752D01*
X151181973Y-89834783D01*
X151152044Y-89897918D01*
X151092732Y-89934849D01*
X151022870Y-89933851D01*
X150964637Y-89895241D01*
X150936523Y-89831278D01*
X150935500Y-89815385D01*
X150935500Y-77641835D01*
X150955185Y-77574796D01*
X151003206Y-77531350D01*
X151003547Y-77531175D01*
X151069022Y-77497815D01*
X151247365Y-77368242D01*
X151403242Y-77212365D01*
X151435128Y-77168477D01*
X151504682Y-77072745D01*
X151526960Y-77055564D01*
X151547134Y-77035960D01*
X151554255Y-77034516D01*
X151560011Y-77030079D01*
X151588039Y-77027671D01*
X151615612Y-77022085D01*
X151622384Y-77024721D01*
G37*
%TD.AperFunction*%
%TD*%
M02*
