%TF.GenerationSoftware,KiCad,Pcbnew,9.0.2*%
%TF.CreationDate,2026-06-16T13:28:00-04:00*%
%TF.ProjectId,tamagotchi,74616d61-676f-4746-9368-692e6b696361,rev?*%
%TF.SameCoordinates,Original*%
%TF.FileFunction,Copper,L2,Bot*%
%TF.FilePolarity,Positive*%
%FSLAX46Y46*%
G04 Gerber Fmt 4.6, Leading zero omitted, Abs format (unit mm)*
G04 Created by KiCad (PCBNEW 9.0.2) date 2026-06-16 13:28:00*
%MOMM*%
%LPD*%
G01*
G04 APERTURE LIST*
G04 Aperture macros list*
%AMRoundRect*
0 Rectangle with rounded corners*
0 $1 Rounding radius*
0 $2 $3 $4 $5 $6 $7 $8 $9 X,Y pos of 4 corners*
0 Add a 4 corners polygon primitive as box body*
4,1,4,$2,$3,$4,$5,$6,$7,$8,$9,$2,$3,0*
0 Add four circle primitives for the rounded corners*
1,1,$1+$1,$2,$3*
1,1,$1+$1,$4,$5*
1,1,$1+$1,$6,$7*
1,1,$1+$1,$8,$9*
0 Add four rect primitives between the rounded corners*
20,1,$1+$1,$2,$3,$4,$5,0*
20,1,$1+$1,$4,$5,$6,$7,0*
20,1,$1+$1,$6,$7,$8,$9,0*
20,1,$1+$1,$8,$9,$2,$3,0*%
G04 Aperture macros list end*
%TA.AperFunction,ComponentPad*%
%ADD10C,1.600000*%
%TD*%
%TA.AperFunction,ComponentPad*%
%ADD11R,1.700000X1.700000*%
%TD*%
%TA.AperFunction,ComponentPad*%
%ADD12C,1.700000*%
%TD*%
%TA.AperFunction,ComponentPad*%
%ADD13C,2.500000*%
%TD*%
%TA.AperFunction,ComponentPad*%
%ADD14C,1.800000*%
%TD*%
%TA.AperFunction,ComponentPad*%
%ADD15C,1.524000*%
%TD*%
%TA.AperFunction,SMDPad,CuDef*%
%ADD16RoundRect,0.152400X1.063600X0.609600X-1.063600X0.609600X-1.063600X-0.609600X1.063600X-0.609600X0*%
%TD*%
%TA.AperFunction,SMDPad,CuDef*%
%ADD17RoundRect,0.152400X-1.063600X-0.609600X1.063600X-0.609600X1.063600X0.609600X-1.063600X0.609600X0*%
%TD*%
%TA.AperFunction,ComponentPad*%
%ADD18RoundRect,0.275000X0.975000X0.275000X-0.975000X0.275000X-0.975000X-0.275000X0.975000X-0.275000X0*%
%TD*%
%TA.AperFunction,SMDPad,CuDef*%
%ADD19C,1.700000*%
%TD*%
%TA.AperFunction,ComponentPad*%
%ADD20R,2.000000X2.000000*%
%TD*%
%TA.AperFunction,ComponentPad*%
%ADD21C,2.000000*%
%TD*%
%TA.AperFunction,ViaPad*%
%ADD22C,0.600000*%
%TD*%
%TA.AperFunction,Conductor*%
%ADD23C,0.200000*%
%TD*%
G04 APERTURE END LIST*
D10*
%TO.P,SW1,1,1*%
%TO.N,GND*%
X132100000Y-113800000D03*
X136900000Y-113800000D03*
%TO.P,SW1,2,2*%
%TO.N,Net-(U1-GPIO2_A0_D0)*%
X132100000Y-116800000D03*
X136900000Y-116800000D03*
%TD*%
D11*
%TO.P,BT1,1,+*%
%TO.N,GND*%
X148225000Y-65250000D03*
D12*
%TO.P,BT1,2,-*%
%TO.N,+BATT*%
X150765000Y-65250000D03*
%TD*%
D10*
%TO.P,R2,1*%
%TO.N,Net-(U1-GPIO8_D8_SCK)*%
X165790000Y-75900000D03*
%TO.P,R2,2*%
%TO.N,Net-(D2-A)*%
X173410000Y-75900000D03*
%TD*%
%TO.P,SW2,1,1*%
%TO.N,GND*%
X146900000Y-113800000D03*
X151700000Y-113800000D03*
%TO.P,SW2,2,2*%
%TO.N,Net-(U1-GPIO4_A2_D2)*%
X146900000Y-116800000D03*
X151700000Y-116800000D03*
%TD*%
D13*
%TO.P,U2,*%
%TO.N,*%
X137415000Y-76860000D03*
X137415000Y-100660000D03*
X160715000Y-76860000D03*
X160715000Y-100660000D03*
D14*
%TO.P,U2,1,GND*%
%TO.N,GND*%
X145255000Y-76300000D03*
%TO.P,U2,2,VCC*%
%TO.N,+3V3*%
X147795000Y-76300000D03*
%TO.P,U2,3,SCL*%
%TO.N,Net-(U1-GPIO7_D5_SCL)*%
X150335000Y-76300000D03*
%TO.P,U2,4,SDA*%
%TO.N,Net-(U1-GPIO6_D4_SDA)*%
X152875000Y-76300000D03*
%TD*%
D10*
%TO.P,R1,1*%
%TO.N,Net-(U1-GPIO20_D7_RX)*%
X123290000Y-76300000D03*
%TO.P,R1,2*%
%TO.N,Net-(D1-A)*%
X130910000Y-76300000D03*
%TD*%
%TO.P,SW3,1,1*%
%TO.N,GND*%
X161165000Y-113600000D03*
X165965000Y-113600000D03*
%TO.P,SW3,2,2*%
%TO.N,Net-(U1-GPIO3_A1_D1)*%
X161165000Y-116600000D03*
X165965000Y-116600000D03*
%TD*%
D15*
%TO.P,U1,1,GPIO2_A0_D0*%
%TO.N,Net-(U1-GPIO2_A0_D0)*%
X142300000Y-129280000D03*
D16*
X141465000Y-129280000D03*
D15*
%TO.P,U1,2,GPIO3_A1_D1*%
%TO.N,Net-(U1-GPIO3_A1_D1)*%
X142300000Y-126740000D03*
D16*
X141465000Y-126740000D03*
D15*
%TO.P,U1,3,GPIO4_A2_D2*%
%TO.N,Net-(U1-GPIO4_A2_D2)*%
X142300000Y-124200000D03*
D16*
X141465000Y-124200000D03*
D15*
%TO.P,U1,4,GPIO5_A3_D3*%
%TO.N,unconnected-(U1-GPIO5_A3_D3-Pad4)_1*%
X142300000Y-121660000D03*
D16*
%TO.N,unconnected-(U1-GPIO5_A3_D3-Pad4)*%
X141465000Y-121660000D03*
D15*
%TO.P,U1,5,GPIO6_D4_SDA*%
%TO.N,Net-(U1-GPIO6_D4_SDA)*%
X142300000Y-119120000D03*
D16*
X141465000Y-119120000D03*
D15*
%TO.P,U1,6,GPIO7_D5_SCL*%
%TO.N,Net-(U1-GPIO7_D5_SCL)*%
X142300000Y-116580000D03*
D16*
X141465000Y-116580000D03*
D15*
%TO.P,U1,7,GPIO21_D6_TX*%
%TO.N,unconnected-(U1-GPIO21_D6_TX-Pad7)_1*%
X142300000Y-114040000D03*
D16*
%TO.N,unconnected-(U1-GPIO21_D6_TX-Pad7)*%
X141465000Y-114040000D03*
D17*
%TO.P,U1,8,GPIO20_D7_RX*%
%TO.N,Net-(U1-GPIO20_D7_RX)*%
X158375000Y-114040000D03*
D15*
X157540000Y-114040000D03*
D17*
%TO.P,U1,9,GPIO8_D8_SCK*%
%TO.N,Net-(U1-GPIO8_D8_SCK)*%
X158375000Y-116580000D03*
D15*
X157540000Y-116580000D03*
D17*
%TO.P,U1,10,GPIO9_D9_MISO*%
%TO.N,unconnected-(U1-GPIO9_D9_MISO-Pad10)_1*%
X158375000Y-119120000D03*
D15*
%TO.N,unconnected-(U1-GPIO9_D9_MISO-Pad10)*%
X157540000Y-119120000D03*
D17*
%TO.P,U1,11,GPIO10_D10_MOSI*%
%TO.N,Net-(BUZZER1-+)*%
X158375000Y-121660000D03*
D15*
X157540000Y-121660000D03*
D17*
%TO.P,U1,12,3V3*%
%TO.N,+3V3*%
X158375000Y-124200000D03*
D15*
X157540000Y-124200000D03*
D17*
%TO.P,U1,13,GND*%
%TO.N,GND*%
X158375000Y-126740000D03*
D15*
X157540000Y-126740000D03*
D17*
%TO.P,U1,14,VBUS*%
%TO.N,+5V*%
X158375000Y-129280000D03*
D15*
X157540000Y-129280000D03*
D18*
%TO.P,U1,15*%
%TO.N,N/C*%
X145475000Y-122046000D03*
%TO.P,U1,16*%
X145475000Y-123951000D03*
D19*
%TO.P,U1,17*%
X148650000Y-130296000D03*
%TO.P,U1,18*%
X151190000Y-130296000D03*
%TO.P,U1,19*%
X148650000Y-127756000D03*
%TO.P,U1,20*%
X151190000Y-127756000D03*
%TO.P,U1,21*%
X148650000Y-125216000D03*
%TO.P,U1,22*%
X151190000Y-125216000D03*
%TD*%
D20*
%TO.P,BUZZER1,1,+*%
%TO.N,Net-(BUZZER1-+)*%
X145065000Y-90060000D03*
D21*
%TO.P,BUZZER1,2,-*%
%TO.N,GND*%
X152665000Y-90060000D03*
%TD*%
D22*
%TO.N,Net-(BUZZER1-+)*%
X146570735Y-100429265D03*
%TD*%
D23*
%TO.N,Net-(BUZZER1-+)*%
X155000000Y-110000000D02*
X148000000Y-103000000D01*
X146852165Y-100429265D02*
X146570735Y-100429265D01*
X148000000Y-101577100D02*
X146852165Y-100429265D01*
X157540000Y-121660000D02*
X155660000Y-121660000D01*
X155660000Y-121660000D02*
X155000000Y-121000000D01*
X155000000Y-121000000D02*
X155000000Y-110000000D01*
X148000000Y-103000000D02*
X148000000Y-101577100D01*
%TO.N,+3V3*%
X169000000Y-121000000D02*
X165800000Y-124200000D01*
X169000000Y-112000000D02*
X169000000Y-121000000D01*
X165800000Y-124200000D02*
X157540000Y-124200000D01*
X147795000Y-90795000D02*
X169000000Y-112000000D01*
X147795000Y-76300000D02*
X147795000Y-90795000D01*
%TO.N,Net-(U1-GPIO20_D7_RX)*%
X157540000Y-110550000D02*
X123290000Y-76300000D01*
X157540000Y-114040000D02*
X157540000Y-110550000D01*
%TD*%
%TA.AperFunction,Conductor*%
%TO.N,GND*%
G36*
X151534968Y-56794539D02*
G01*
X151541703Y-56794906D01*
X153299692Y-56938857D01*
X153306315Y-56939581D01*
X155038661Y-57176624D01*
X155045215Y-57177701D01*
X156749854Y-57505502D01*
X156756310Y-57506925D01*
X158431103Y-57923153D01*
X158437441Y-57924908D01*
X159625931Y-58288316D01*
X160080303Y-58427252D01*
X160086493Y-58429324D01*
X161695366Y-59015503D01*
X161701344Y-59017860D01*
X163274051Y-59685561D01*
X163279821Y-59688188D01*
X164814235Y-60435126D01*
X164819811Y-60438019D01*
X165705817Y-60926632D01*
X166313710Y-61261872D01*
X166319102Y-61265025D01*
X166568585Y-61419483D01*
X167770354Y-62163513D01*
X167775504Y-62166882D01*
X169181913Y-63137700D01*
X169186829Y-63141276D01*
X170432356Y-64094951D01*
X170546161Y-64182089D01*
X170550866Y-64185876D01*
X171682873Y-65143713D01*
X171860945Y-65294387D01*
X171865425Y-65298368D01*
X173124009Y-66472226D01*
X173128256Y-66476381D01*
X174333180Y-67713307D01*
X174337193Y-67717628D01*
X175486176Y-69015216D01*
X175489955Y-69019693D01*
X176580820Y-70375645D01*
X176584365Y-70380270D01*
X177614888Y-71792236D01*
X177618195Y-71796998D01*
X178273593Y-72789358D01*
X178586148Y-73262607D01*
X178589223Y-73267506D01*
X179492436Y-74784485D01*
X179495272Y-74789511D01*
X180331482Y-76355411D01*
X180334078Y-76360558D01*
X181101081Y-77973033D01*
X181103435Y-77978293D01*
X181799064Y-79635073D01*
X181801172Y-79640439D01*
X182423196Y-81339113D01*
X182423197Y-81339114D01*
X182425055Y-81344578D01*
X182971284Y-83082827D01*
X182972888Y-83088381D01*
X183441125Y-84863877D01*
X183442470Y-84869509D01*
X183830507Y-86679882D01*
X183831590Y-86685582D01*
X184137233Y-88528517D01*
X184138050Y-88534273D01*
X184359103Y-90407505D01*
X184359649Y-90413302D01*
X184493899Y-92314430D01*
X184494173Y-92320254D01*
X184539418Y-94247086D01*
X184539418Y-94252908D01*
X184494173Y-96179739D01*
X184493899Y-96185563D01*
X184359649Y-98086690D01*
X184359103Y-98092487D01*
X184138050Y-99965719D01*
X184137233Y-99971475D01*
X183831590Y-101814411D01*
X183830507Y-101820111D01*
X183442470Y-103630485D01*
X183441125Y-103636117D01*
X182972888Y-105411614D01*
X182971284Y-105417168D01*
X182425055Y-107155417D01*
X182423197Y-107160881D01*
X181801172Y-108859556D01*
X181799064Y-108864922D01*
X181103435Y-110521701D01*
X181101081Y-110526961D01*
X180334081Y-112139430D01*
X180331485Y-112144577D01*
X179495268Y-113710493D01*
X179492432Y-113715519D01*
X178589241Y-115232459D01*
X178586167Y-115237358D01*
X177618195Y-116703000D01*
X177614884Y-116707766D01*
X176584364Y-118119726D01*
X176580819Y-118124351D01*
X175489955Y-119480304D01*
X175486176Y-119484781D01*
X174337184Y-120782379D01*
X174333171Y-120786700D01*
X173128256Y-122023616D01*
X173124009Y-122027771D01*
X171865425Y-123201629D01*
X171860945Y-123205610D01*
X170550873Y-124314115D01*
X170546161Y-124317908D01*
X169186843Y-125358711D01*
X169181901Y-125362306D01*
X167775507Y-126333113D01*
X167770338Y-126336494D01*
X166319101Y-127234974D01*
X166313709Y-127238127D01*
X164819826Y-128061971D01*
X164814218Y-128064880D01*
X163279843Y-128811801D01*
X163274028Y-128814448D01*
X161701359Y-129482133D01*
X161695350Y-129484502D01*
X160257949Y-130008207D01*
X160188221Y-130012661D01*
X160127154Y-129978711D01*
X160094137Y-129917135D01*
X160091500Y-129891699D01*
X160091500Y-128604473D01*
X160091499Y-128604458D01*
X160088587Y-128567453D01*
X160088586Y-128567447D01*
X160042565Y-128409045D01*
X160042564Y-128409042D01*
X160042564Y-128409041D01*
X159958592Y-128267053D01*
X159958590Y-128267051D01*
X159958587Y-128267047D01*
X159841952Y-128150412D01*
X159841949Y-128150410D01*
X159841947Y-128150408D01*
X159784511Y-128116440D01*
X159736829Y-128065371D01*
X159724326Y-127996630D01*
X159750972Y-127932040D01*
X159784514Y-127902976D01*
X159841637Y-127869193D01*
X159841643Y-127869189D01*
X159958189Y-127752643D01*
X159958196Y-127752634D01*
X160042102Y-127610756D01*
X160042103Y-127610753D01*
X160088088Y-127452473D01*
X160088089Y-127452467D01*
X160090999Y-127415488D01*
X160090999Y-126064530D01*
X160090998Y-126064508D01*
X160088089Y-126027533D01*
X160042102Y-125869242D01*
X159958196Y-125727365D01*
X159958189Y-125727356D01*
X159841643Y-125610810D01*
X159841634Y-125610803D01*
X159784513Y-125577022D01*
X159736829Y-125525953D01*
X159724326Y-125457211D01*
X159750972Y-125392622D01*
X159784514Y-125363558D01*
X159841941Y-125329596D01*
X159841942Y-125329594D01*
X159841947Y-125329592D01*
X159958592Y-125212947D01*
X160042564Y-125070959D01*
X160088587Y-124912548D01*
X160088587Y-124912545D01*
X160089726Y-124906312D01*
X160091512Y-124906638D01*
X160113294Y-124849486D01*
X160169524Y-124808013D01*
X160212030Y-124800500D01*
X165713331Y-124800500D01*
X165713347Y-124800501D01*
X165720943Y-124800501D01*
X165879054Y-124800501D01*
X165879057Y-124800501D01*
X166031785Y-124759577D01*
X166082792Y-124730128D01*
X166082793Y-124730128D01*
X166168709Y-124680524D01*
X166168708Y-124680524D01*
X166168716Y-124680520D01*
X166280520Y-124568716D01*
X166280520Y-124568714D01*
X166290724Y-124558511D01*
X166290728Y-124558506D01*
X169358506Y-121490728D01*
X169358511Y-121490724D01*
X169368714Y-121480520D01*
X169368716Y-121480520D01*
X169480520Y-121368716D01*
X169559577Y-121231784D01*
X169589534Y-121119981D01*
X169600500Y-121079058D01*
X169600500Y-120920943D01*
X169600500Y-112089060D01*
X169600501Y-112089047D01*
X169600501Y-111920944D01*
X169559576Y-111768214D01*
X169559573Y-111768209D01*
X169480524Y-111631290D01*
X169480518Y-111631282D01*
X160466406Y-102617171D01*
X160432921Y-102555848D01*
X160437905Y-102486156D01*
X160479777Y-102430223D01*
X160545241Y-102405806D01*
X160570269Y-102406550D01*
X160600266Y-102410500D01*
X160600273Y-102410500D01*
X160829727Y-102410500D01*
X160829734Y-102410500D01*
X161057238Y-102380548D01*
X161278887Y-102321158D01*
X161490888Y-102233344D01*
X161689612Y-102118611D01*
X161871661Y-101978919D01*
X161871665Y-101978914D01*
X161871670Y-101978911D01*
X162033911Y-101816670D01*
X162033914Y-101816665D01*
X162033919Y-101816661D01*
X162173611Y-101634612D01*
X162288344Y-101435888D01*
X162376158Y-101223887D01*
X162435548Y-101002238D01*
X162465500Y-100774734D01*
X162465500Y-100545266D01*
X162435548Y-100317762D01*
X162376158Y-100096113D01*
X162288344Y-99884112D01*
X162173611Y-99685388D01*
X162173608Y-99685385D01*
X162173607Y-99685382D01*
X162033918Y-99503338D01*
X162033911Y-99503330D01*
X161871670Y-99341089D01*
X161871661Y-99341081D01*
X161689617Y-99201392D01*
X161490890Y-99086657D01*
X161490876Y-99086650D01*
X161278887Y-98998842D01*
X161057238Y-98939452D01*
X161019215Y-98934446D01*
X160829741Y-98909500D01*
X160829734Y-98909500D01*
X160600266Y-98909500D01*
X160600258Y-98909500D01*
X160383715Y-98938009D01*
X160372762Y-98939452D01*
X160279076Y-98964554D01*
X160151112Y-98998842D01*
X159939123Y-99086650D01*
X159939109Y-99086657D01*
X159740382Y-99201392D01*
X159558338Y-99341081D01*
X159396081Y-99503338D01*
X159256392Y-99685382D01*
X159141657Y-99884109D01*
X159141650Y-99884123D01*
X159053842Y-100096112D01*
X158994453Y-100317759D01*
X158994451Y-100317770D01*
X158964500Y-100545258D01*
X158964500Y-100774727D01*
X158964501Y-100774746D01*
X158968448Y-100804728D01*
X158957682Y-100873763D01*
X158911301Y-100926019D01*
X158844032Y-100944903D01*
X158777232Y-100924421D01*
X158757828Y-100908593D01*
X150533705Y-92684469D01*
X150450089Y-92600853D01*
X170364500Y-92600853D01*
X170364500Y-92876188D01*
X170364501Y-92876205D01*
X170400438Y-93149176D01*
X170400439Y-93149181D01*
X170400440Y-93149187D01*
X170400441Y-93149189D01*
X170471704Y-93415151D01*
X170577075Y-93669538D01*
X170577080Y-93669549D01*
X170656809Y-93807642D01*
X170714751Y-93908000D01*
X170714753Y-93908003D01*
X170714754Y-93908004D01*
X170882370Y-94126447D01*
X170882376Y-94126454D01*
X171077066Y-94321144D01*
X171077072Y-94321149D01*
X171295521Y-94488770D01*
X171448778Y-94577253D01*
X171533971Y-94626440D01*
X171533976Y-94626442D01*
X171533979Y-94626444D01*
X171788368Y-94731816D01*
X172054334Y-94803081D01*
X172327326Y-94839021D01*
X172327333Y-94839021D01*
X172602667Y-94839021D01*
X172602674Y-94839021D01*
X172875666Y-94803081D01*
X173141632Y-94731816D01*
X173396021Y-94626444D01*
X173634479Y-94488770D01*
X173852928Y-94321149D01*
X174047628Y-94126449D01*
X174215249Y-93908000D01*
X174352923Y-93669542D01*
X174458295Y-93415153D01*
X174529560Y-93149187D01*
X174565500Y-92876195D01*
X174565500Y-92600847D01*
X174529560Y-92327855D01*
X174458295Y-92061889D01*
X174352923Y-91807500D01*
X174352921Y-91807497D01*
X174352919Y-91807492D01*
X174303732Y-91722299D01*
X174215249Y-91569042D01*
X174047628Y-91350593D01*
X174047623Y-91350587D01*
X173852933Y-91155897D01*
X173852926Y-91155891D01*
X173634483Y-90988275D01*
X173634482Y-90988274D01*
X173634479Y-90988272D01*
X173531997Y-90929104D01*
X173396028Y-90850601D01*
X173396017Y-90850596D01*
X173141630Y-90745225D01*
X173004001Y-90708348D01*
X172875666Y-90673961D01*
X172875660Y-90673960D01*
X172875655Y-90673959D01*
X172602684Y-90638022D01*
X172602679Y-90638021D01*
X172602674Y-90638021D01*
X172327326Y-90638021D01*
X172327320Y-90638021D01*
X172327315Y-90638022D01*
X172054344Y-90673959D01*
X172054337Y-90673960D01*
X172054334Y-90673961D01*
X171998125Y-90689021D01*
X171788369Y-90745225D01*
X171533982Y-90850596D01*
X171533971Y-90850601D01*
X171295516Y-90988275D01*
X171077073Y-91155891D01*
X171077066Y-91155897D01*
X170882376Y-91350587D01*
X170882370Y-91350594D01*
X170714754Y-91569037D01*
X170577080Y-91807492D01*
X170577075Y-91807503D01*
X170471704Y-92061890D01*
X170430354Y-92216212D01*
X170401391Y-92324308D01*
X170400441Y-92327852D01*
X170400438Y-92327865D01*
X170364501Y-92600836D01*
X170364500Y-92600853D01*
X150450089Y-92600853D01*
X148431819Y-90582583D01*
X148398334Y-90521260D01*
X148395500Y-90494902D01*
X148395500Y-89941947D01*
X151165000Y-89941947D01*
X151165000Y-90178052D01*
X151201934Y-90411247D01*
X151274897Y-90635802D01*
X151382087Y-90846174D01*
X151442338Y-90929104D01*
X151442340Y-90929105D01*
X152182037Y-90189408D01*
X152199075Y-90252993D01*
X152264901Y-90367007D01*
X152357993Y-90460099D01*
X152472007Y-90525925D01*
X152535590Y-90542962D01*
X151795893Y-91282658D01*
X151878828Y-91342914D01*
X152089197Y-91450102D01*
X152313752Y-91523065D01*
X152313751Y-91523065D01*
X152546948Y-91560000D01*
X152783052Y-91560000D01*
X153016247Y-91523065D01*
X153240802Y-91450102D01*
X153451163Y-91342918D01*
X153451169Y-91342914D01*
X153534104Y-91282658D01*
X153534105Y-91282658D01*
X152794408Y-90542962D01*
X152857993Y-90525925D01*
X152972007Y-90460099D01*
X153065099Y-90367007D01*
X153130925Y-90252993D01*
X153147962Y-90189409D01*
X153887658Y-90929105D01*
X153887658Y-90929104D01*
X153947914Y-90846169D01*
X153947918Y-90846163D01*
X154055102Y-90635802D01*
X154128065Y-90411247D01*
X154165000Y-90178052D01*
X154165000Y-89941947D01*
X154128065Y-89708752D01*
X154055102Y-89484197D01*
X153947914Y-89273828D01*
X153887658Y-89190894D01*
X153887658Y-89190893D01*
X153147962Y-89930590D01*
X153130925Y-89867007D01*
X153065099Y-89752993D01*
X152972007Y-89659901D01*
X152857993Y-89594075D01*
X152794409Y-89577037D01*
X153534105Y-88837340D01*
X153534104Y-88837338D01*
X153451174Y-88777087D01*
X153240802Y-88669897D01*
X153016247Y-88596934D01*
X153016248Y-88596934D01*
X152783052Y-88560000D01*
X152546948Y-88560000D01*
X152313752Y-88596934D01*
X152089197Y-88669897D01*
X151878830Y-88777084D01*
X151795894Y-88837340D01*
X152535591Y-89577037D01*
X152472007Y-89594075D01*
X152357993Y-89659901D01*
X152264901Y-89752993D01*
X152199075Y-89867007D01*
X152182037Y-89930591D01*
X151442340Y-89190894D01*
X151382084Y-89273830D01*
X151274897Y-89484197D01*
X151201934Y-89708752D01*
X151165000Y-89941947D01*
X148395500Y-89941947D01*
X148395500Y-77641835D01*
X148415185Y-77574796D01*
X148463206Y-77531350D01*
X148463547Y-77531175D01*
X148529022Y-77497815D01*
X148707365Y-77368242D01*
X148863242Y-77212365D01*
X148910573Y-77147219D01*
X148964682Y-77072745D01*
X149020011Y-77030079D01*
X149089625Y-77024100D01*
X149151420Y-77056705D01*
X149165318Y-77072745D01*
X149266752Y-77212358D01*
X149266756Y-77212363D01*
X149422636Y-77368243D01*
X149422641Y-77368247D01*
X149483258Y-77412287D01*
X149600978Y-77497815D01*
X149726615Y-77561831D01*
X149797393Y-77597895D01*
X149797396Y-77597896D01*
X149887855Y-77627287D01*
X150007049Y-77666015D01*
X150224778Y-77700500D01*
X150224779Y-77700500D01*
X150445221Y-77700500D01*
X150445222Y-77700500D01*
X150662951Y-77666015D01*
X150872606Y-77597895D01*
X151069022Y-77497815D01*
X151247365Y-77368242D01*
X151403242Y-77212365D01*
X151450573Y-77147219D01*
X151504682Y-77072745D01*
X151560011Y-77030079D01*
X151629625Y-77024100D01*
X151691420Y-77056705D01*
X151705318Y-77072745D01*
X151806752Y-77212358D01*
X151806756Y-77212363D01*
X151962636Y-77368243D01*
X151962641Y-77368247D01*
X152023258Y-77412287D01*
X152140978Y-77497815D01*
X152266615Y-77561831D01*
X152337393Y-77597895D01*
X152337396Y-77597896D01*
X152427855Y-77627287D01*
X152547049Y-77666015D01*
X152764778Y-77700500D01*
X152764779Y-77700500D01*
X152985221Y-77700500D01*
X152985222Y-77700500D01*
X153202951Y-77666015D01*
X153412606Y-77597895D01*
X153609022Y-77497815D01*
X153787365Y-77368242D01*
X153943242Y-77212365D01*
X154072815Y-77034022D01*
X154172895Y-76837606D01*
X154202898Y-76745266D01*
X154202901Y-76745258D01*
X158964500Y-76745258D01*
X158964500Y-76974741D01*
X158981679Y-77105218D01*
X158994452Y-77202238D01*
X159050733Y-77412284D01*
X159053842Y-77423887D01*
X159141650Y-77635876D01*
X159141657Y-77635890D01*
X159256392Y-77834617D01*
X159396081Y-78016661D01*
X159396089Y-78016670D01*
X159558330Y-78178911D01*
X159558338Y-78178918D01*
X159740382Y-78318607D01*
X159740385Y-78318608D01*
X159740388Y-78318611D01*
X159939112Y-78433344D01*
X159939117Y-78433346D01*
X159939123Y-78433349D01*
X160030480Y-78471190D01*
X160151113Y-78521158D01*
X160372762Y-78580548D01*
X160600266Y-78610500D01*
X160600273Y-78610500D01*
X160829727Y-78610500D01*
X160829734Y-78610500D01*
X161057238Y-78580548D01*
X161278887Y-78521158D01*
X161490888Y-78433344D01*
X161689612Y-78318611D01*
X161871661Y-78178919D01*
X161871665Y-78178914D01*
X161871670Y-78178911D01*
X162033911Y-78016670D01*
X162033914Y-78016665D01*
X162033919Y-78016661D01*
X162173611Y-77834612D01*
X162288344Y-77635888D01*
X162376158Y-77423887D01*
X162435548Y-77202238D01*
X162465500Y-76974734D01*
X162465500Y-76745266D01*
X162435548Y-76517762D01*
X162376158Y-76296113D01*
X162288344Y-76084112D01*
X162173611Y-75885388D01*
X162106285Y-75797648D01*
X164489500Y-75797648D01*
X164489500Y-76002351D01*
X164521522Y-76204534D01*
X164584781Y-76399223D01*
X164677715Y-76581613D01*
X164798028Y-76747213D01*
X164942786Y-76891971D01*
X165097749Y-77004556D01*
X165108390Y-77012287D01*
X165224607Y-77071503D01*
X165290776Y-77105218D01*
X165290778Y-77105218D01*
X165290781Y-77105220D01*
X165395137Y-77139127D01*
X165485465Y-77168477D01*
X165586557Y-77184488D01*
X165687648Y-77200500D01*
X165687649Y-77200500D01*
X165892351Y-77200500D01*
X165892352Y-77200500D01*
X166094534Y-77168477D01*
X166289219Y-77105220D01*
X166471610Y-77012287D01*
X166564590Y-76944732D01*
X166637213Y-76891971D01*
X166637215Y-76891968D01*
X166637219Y-76891966D01*
X166781966Y-76747219D01*
X166781968Y-76747215D01*
X166781971Y-76747213D01*
X166868616Y-76627954D01*
X166902287Y-76581610D01*
X166995220Y-76399219D01*
X167058477Y-76204534D01*
X167090500Y-76002352D01*
X167090500Y-75797648D01*
X172109500Y-75797648D01*
X172109500Y-76002351D01*
X172141522Y-76204534D01*
X172204781Y-76399223D01*
X172297715Y-76581613D01*
X172418028Y-76747213D01*
X172562786Y-76891971D01*
X172717749Y-77004556D01*
X172728390Y-77012287D01*
X172844607Y-77071503D01*
X172910776Y-77105218D01*
X172910778Y-77105218D01*
X172910781Y-77105220D01*
X173015137Y-77139127D01*
X173105465Y-77168477D01*
X173206557Y-77184488D01*
X173307648Y-77200500D01*
X173307649Y-77200500D01*
X173512351Y-77200500D01*
X173512352Y-77200500D01*
X173714534Y-77168477D01*
X173909219Y-77105220D01*
X174091610Y-77012287D01*
X174184590Y-76944732D01*
X174257213Y-76891971D01*
X174257215Y-76891968D01*
X174257219Y-76891966D01*
X174401966Y-76747219D01*
X174401968Y-76747215D01*
X174401971Y-76747213D01*
X174488616Y-76627954D01*
X174522287Y-76581610D01*
X174615220Y-76399219D01*
X174678477Y-76204534D01*
X174710500Y-76002352D01*
X174710500Y-75797648D01*
X174678477Y-75595466D01*
X174672119Y-75575899D01*
X174632116Y-75452781D01*
X174615220Y-75400781D01*
X174615218Y-75400778D01*
X174615218Y-75400776D01*
X174567960Y-75308028D01*
X174522287Y-75218390D01*
X174508085Y-75198842D01*
X174401971Y-75052786D01*
X174257213Y-74908028D01*
X174091613Y-74787715D01*
X174091612Y-74787714D01*
X174091610Y-74787713D01*
X174034653Y-74758691D01*
X173909223Y-74694781D01*
X173714534Y-74631522D01*
X173539995Y-74603878D01*
X173512352Y-74599500D01*
X173307648Y-74599500D01*
X173283329Y-74603351D01*
X173105465Y-74631522D01*
X172910776Y-74694781D01*
X172728386Y-74787715D01*
X172562786Y-74908028D01*
X172418028Y-75052786D01*
X172297715Y-75218386D01*
X172204781Y-75400776D01*
X172141522Y-75595465D01*
X172109500Y-75797648D01*
X167090500Y-75797648D01*
X167058477Y-75595466D01*
X167052119Y-75575899D01*
X167012116Y-75452781D01*
X166995220Y-75400781D01*
X166995218Y-75400778D01*
X166995218Y-75400776D01*
X166947960Y-75308028D01*
X166902287Y-75218390D01*
X166888085Y-75198842D01*
X166781971Y-75052786D01*
X166637213Y-74908028D01*
X166471613Y-74787715D01*
X166471612Y-74787714D01*
X166471610Y-74787713D01*
X166414653Y-74758691D01*
X166289223Y-74694781D01*
X166094534Y-74631522D01*
X165919995Y-74603878D01*
X165892352Y-74599500D01*
X165687648Y-74599500D01*
X165663329Y-74603351D01*
X165485465Y-74631522D01*
X165290776Y-74694781D01*
X165108386Y-74787715D01*
X164942786Y-74908028D01*
X164798028Y-75052786D01*
X164677715Y-75218386D01*
X164584781Y-75400776D01*
X164521522Y-75595465D01*
X164489500Y-75797648D01*
X162106285Y-75797648D01*
X162033919Y-75703339D01*
X162033918Y-75703338D01*
X162033911Y-75703330D01*
X161871670Y-75541089D01*
X161871661Y-75541081D01*
X161689617Y-75401392D01*
X161490890Y-75286657D01*
X161490876Y-75286650D01*
X161278887Y-75198842D01*
X161237360Y-75187715D01*
X161057238Y-75139452D01*
X161019215Y-75134446D01*
X160829741Y-75109500D01*
X160829734Y-75109500D01*
X160600266Y-75109500D01*
X160600258Y-75109500D01*
X160383715Y-75138009D01*
X160372762Y-75139452D01*
X160337382Y-75148932D01*
X160151112Y-75198842D01*
X159939123Y-75286650D01*
X159939109Y-75286657D01*
X159740382Y-75401392D01*
X159558338Y-75541081D01*
X159396081Y-75703338D01*
X159256392Y-75885382D01*
X159141657Y-76084109D01*
X159141650Y-76084123D01*
X159053842Y-76296112D01*
X158994453Y-76517759D01*
X158994451Y-76517770D01*
X158964500Y-76745258D01*
X154202901Y-76745258D01*
X154216667Y-76702889D01*
X154216667Y-76702888D01*
X154241014Y-76627954D01*
X154241013Y-76627954D01*
X154241015Y-76627951D01*
X154275500Y-76410222D01*
X154275500Y-76189778D01*
X154241015Y-75972049D01*
X154176993Y-75775007D01*
X154172896Y-75762396D01*
X154172895Y-75762393D01*
X154138237Y-75694375D01*
X154072815Y-75565978D01*
X153990573Y-75452781D01*
X153943247Y-75387641D01*
X153943243Y-75387636D01*
X153787363Y-75231756D01*
X153787358Y-75231752D01*
X153609025Y-75102187D01*
X153609024Y-75102186D01*
X153609022Y-75102185D01*
X153546096Y-75070122D01*
X153412606Y-75002104D01*
X153412603Y-75002103D01*
X153202952Y-74933985D01*
X153039065Y-74908028D01*
X152985222Y-74899500D01*
X152764778Y-74899500D01*
X152710935Y-74908028D01*
X152547047Y-74933985D01*
X152337396Y-75002103D01*
X152337393Y-75002104D01*
X152140974Y-75102187D01*
X151962641Y-75231752D01*
X151962636Y-75231756D01*
X151806756Y-75387636D01*
X151806752Y-75387641D01*
X151705318Y-75527254D01*
X151649988Y-75569920D01*
X151580375Y-75575899D01*
X151518580Y-75543293D01*
X151504682Y-75527254D01*
X151403247Y-75387641D01*
X151403243Y-75387636D01*
X151247363Y-75231756D01*
X151247358Y-75231752D01*
X151069025Y-75102187D01*
X151069024Y-75102186D01*
X151069022Y-75102185D01*
X151006096Y-75070122D01*
X150872606Y-75002104D01*
X150872603Y-75002103D01*
X150662952Y-74933985D01*
X150499065Y-74908028D01*
X150445222Y-74899500D01*
X150224778Y-74899500D01*
X150170935Y-74908028D01*
X150007047Y-74933985D01*
X149797396Y-75002103D01*
X149797393Y-75002104D01*
X149600974Y-75102187D01*
X149422641Y-75231752D01*
X149422636Y-75231756D01*
X149266756Y-75387636D01*
X149266752Y-75387641D01*
X149165318Y-75527254D01*
X149109988Y-75569920D01*
X149040375Y-75575899D01*
X148978580Y-75543293D01*
X148964682Y-75527254D01*
X148863247Y-75387641D01*
X148863243Y-75387636D01*
X148707363Y-75231756D01*
X148707358Y-75231752D01*
X148529025Y-75102187D01*
X148529024Y-75102186D01*
X148529022Y-75102185D01*
X148466096Y-75070122D01*
X148332606Y-75002104D01*
X148332603Y-75002103D01*
X148122952Y-74933985D01*
X147959065Y-74908028D01*
X147905222Y-74899500D01*
X147684778Y-74899500D01*
X147630935Y-74908028D01*
X147467047Y-74933985D01*
X147257396Y-75002103D01*
X147257393Y-75002104D01*
X147060974Y-75102187D01*
X146882641Y-75231752D01*
X146882636Y-75231756D01*
X146726756Y-75387636D01*
X146625008Y-75527681D01*
X146569678Y-75570346D01*
X146500065Y-75576325D01*
X146438270Y-75543719D01*
X146424371Y-75527680D01*
X146406066Y-75502485D01*
X146406065Y-75502485D01*
X145758369Y-76150182D01*
X145744215Y-76097360D01*
X145675099Y-75977647D01*
X145577353Y-75879901D01*
X145457640Y-75810785D01*
X145404814Y-75796630D01*
X146052513Y-75148932D01*
X145988756Y-75102611D01*
X145792410Y-75002567D01*
X145582835Y-74934473D01*
X145365181Y-74900000D01*
X145144819Y-74900000D01*
X144927164Y-74934473D01*
X144717589Y-75002567D01*
X144521233Y-75102616D01*
X144457485Y-75148931D01*
X144457485Y-75148932D01*
X145105183Y-75796630D01*
X145052360Y-75810785D01*
X144932647Y-75879901D01*
X144834901Y-75977647D01*
X144765785Y-76097360D01*
X144751630Y-76150183D01*
X144103932Y-75502485D01*
X144103931Y-75502485D01*
X144057616Y-75566233D01*
X143957567Y-75762589D01*
X143889473Y-75972164D01*
X143855000Y-76189818D01*
X143855000Y-76410181D01*
X143889473Y-76627835D01*
X143957567Y-76837410D01*
X144057611Y-77033756D01*
X144103932Y-77097513D01*
X144751630Y-76449815D01*
X144765785Y-76502640D01*
X144834901Y-76622353D01*
X144932647Y-76720099D01*
X145052360Y-76789215D01*
X145105183Y-76803369D01*
X144457485Y-77451065D01*
X144457485Y-77451066D01*
X144521243Y-77497388D01*
X144717589Y-77597432D01*
X144927164Y-77665526D01*
X145144819Y-77700000D01*
X145365181Y-77700000D01*
X145582835Y-77665526D01*
X145792410Y-77597432D01*
X145988760Y-77497386D01*
X146052513Y-77451066D01*
X146052514Y-77451066D01*
X145404816Y-76803369D01*
X145457640Y-76789215D01*
X145577353Y-76720099D01*
X145675099Y-76622353D01*
X145744215Y-76502640D01*
X145758369Y-76449817D01*
X146406066Y-77097514D01*
X146406066Y-77097513D01*
X146424372Y-77072319D01*
X146479701Y-77029653D01*
X146549315Y-77023674D01*
X146611110Y-77056279D01*
X146625008Y-77072319D01*
X146726752Y-77212358D01*
X146726756Y-77212363D01*
X146882636Y-77368243D01*
X146882641Y-77368247D01*
X147060976Y-77497814D01*
X147126794Y-77531350D01*
X147177591Y-77579324D01*
X147194500Y-77641835D01*
X147194500Y-90708330D01*
X147194499Y-90708348D01*
X147194499Y-90874054D01*
X147194498Y-90874054D01*
X147235423Y-91026785D01*
X147254887Y-91060496D01*
X147254888Y-91060500D01*
X147314475Y-91163709D01*
X147314481Y-91163717D01*
X147433349Y-91282585D01*
X147433355Y-91282590D01*
X168363181Y-112212416D01*
X168396666Y-112273739D01*
X168399500Y-112300097D01*
X168399500Y-120699903D01*
X168379815Y-120766942D01*
X168363181Y-120787584D01*
X165587584Y-123563181D01*
X165526261Y-123596666D01*
X165499903Y-123599500D01*
X160212030Y-123599500D01*
X160144991Y-123579815D01*
X160099236Y-123527011D01*
X160090564Y-123493534D01*
X160089726Y-123493688D01*
X160088586Y-123487447D01*
X160042565Y-123329045D01*
X160042564Y-123329042D01*
X160042564Y-123329041D01*
X159967212Y-123201629D01*
X159958594Y-123187056D01*
X159958587Y-123187047D01*
X159841952Y-123070412D01*
X159841944Y-123070406D01*
X159785004Y-123036732D01*
X159737321Y-122985663D01*
X159724817Y-122916921D01*
X159751462Y-122852332D01*
X159785004Y-122823268D01*
X159841947Y-122789592D01*
X159958592Y-122672947D01*
X160042564Y-122530959D01*
X160088587Y-122372548D01*
X160091500Y-122335534D01*
X160091500Y-120984466D01*
X160088587Y-120947452D01*
X160080885Y-120920943D01*
X160042565Y-120789045D01*
X160042564Y-120789042D01*
X160042564Y-120789041D01*
X159958592Y-120647053D01*
X159958590Y-120647051D01*
X159958587Y-120647047D01*
X159841952Y-120530412D01*
X159841944Y-120530406D01*
X159785004Y-120496732D01*
X159737321Y-120445663D01*
X159724817Y-120376921D01*
X159751462Y-120312332D01*
X159785004Y-120283268D01*
X159841947Y-120249592D01*
X159958592Y-120132947D01*
X160042564Y-119990959D01*
X160088587Y-119832548D01*
X160091500Y-119795534D01*
X160091500Y-118444466D01*
X160088587Y-118407452D01*
X160042564Y-118249041D01*
X159967480Y-118122082D01*
X159958594Y-118107056D01*
X159958587Y-118107047D01*
X159841952Y-117990412D01*
X159841944Y-117990406D01*
X159785004Y-117956732D01*
X159737321Y-117905663D01*
X159724817Y-117836921D01*
X159751462Y-117772332D01*
X159785004Y-117743268D01*
X159841947Y-117709592D01*
X159958592Y-117592947D01*
X160011064Y-117504221D01*
X160062133Y-117456538D01*
X160130875Y-117444035D01*
X160195464Y-117470680D01*
X160205477Y-117479662D01*
X160317786Y-117591971D01*
X160472749Y-117704556D01*
X160483390Y-117712287D01*
X160583526Y-117763309D01*
X160665776Y-117805218D01*
X160665778Y-117805218D01*
X160665781Y-117805220D01*
X160763347Y-117836921D01*
X160860465Y-117868477D01*
X160951970Y-117882970D01*
X161062648Y-117900500D01*
X161062649Y-117900500D01*
X161267351Y-117900500D01*
X161267352Y-117900500D01*
X161469534Y-117868477D01*
X161664219Y-117805220D01*
X161846610Y-117712287D01*
X161982723Y-117613396D01*
X162012213Y-117591971D01*
X162012215Y-117591968D01*
X162012219Y-117591966D01*
X162156966Y-117447219D01*
X162156968Y-117447215D01*
X162156971Y-117447213D01*
X162209732Y-117374590D01*
X162277287Y-117281610D01*
X162370220Y-117099219D01*
X162433477Y-116904534D01*
X162465500Y-116702352D01*
X162465500Y-116497648D01*
X164664500Y-116497648D01*
X164664500Y-116702351D01*
X164696522Y-116904534D01*
X164759781Y-117099223D01*
X164822220Y-117221765D01*
X164827867Y-117232848D01*
X164852715Y-117281613D01*
X164973028Y-117447213D01*
X165117786Y-117591971D01*
X165272749Y-117704556D01*
X165283390Y-117712287D01*
X165383526Y-117763309D01*
X165465776Y-117805218D01*
X165465778Y-117805218D01*
X165465781Y-117805220D01*
X165563347Y-117836921D01*
X165660465Y-117868477D01*
X165751970Y-117882970D01*
X165862648Y-117900500D01*
X165862649Y-117900500D01*
X166067351Y-117900500D01*
X166067352Y-117900500D01*
X166269534Y-117868477D01*
X166464219Y-117805220D01*
X166646610Y-117712287D01*
X166782723Y-117613396D01*
X166812213Y-117591971D01*
X166812215Y-117591968D01*
X166812219Y-117591966D01*
X166956966Y-117447219D01*
X166956968Y-117447215D01*
X166956971Y-117447213D01*
X167009732Y-117374590D01*
X167077287Y-117281610D01*
X167170220Y-117099219D01*
X167233477Y-116904534D01*
X167265500Y-116702352D01*
X167265500Y-116497648D01*
X167233477Y-116295466D01*
X167170220Y-116100781D01*
X167170218Y-116100778D01*
X167170218Y-116100776D01*
X167136503Y-116034607D01*
X167077287Y-115918390D01*
X167041302Y-115868860D01*
X166956971Y-115752786D01*
X166812213Y-115608028D01*
X166646613Y-115487715D01*
X166646612Y-115487714D01*
X166646610Y-115487713D01*
X166573391Y-115450406D01*
X166464223Y-115394781D01*
X166269534Y-115331522D01*
X166086293Y-115302500D01*
X166067352Y-115299500D01*
X165862648Y-115299500D01*
X165843707Y-115302500D01*
X165660465Y-115331522D01*
X165465776Y-115394781D01*
X165283386Y-115487715D01*
X165117786Y-115608028D01*
X164973028Y-115752786D01*
X164852715Y-115918386D01*
X164759781Y-116100776D01*
X164696522Y-116295465D01*
X164664500Y-116497648D01*
X162465500Y-116497648D01*
X162433477Y-116295466D01*
X162370220Y-116100781D01*
X162370218Y-116100778D01*
X162370218Y-116100776D01*
X162336503Y-116034607D01*
X162277287Y-115918390D01*
X162241302Y-115868860D01*
X162156971Y-115752786D01*
X162012213Y-115608028D01*
X161846613Y-115487715D01*
X161846612Y-115487714D01*
X161846610Y-115487713D01*
X161773391Y-115450406D01*
X161664223Y-115394781D01*
X161469534Y-115331522D01*
X161286293Y-115302500D01*
X161267352Y-115299500D01*
X161062648Y-115299500D01*
X161043707Y-115302500D01*
X160860465Y-115331522D01*
X160665776Y-115394781D01*
X160483386Y-115487715D01*
X160317788Y-115608027D01*
X160220341Y-115705474D01*
X160159017Y-115738958D01*
X160089326Y-115733974D01*
X160033393Y-115692102D01*
X160025937Y-115680926D01*
X159958592Y-115567053D01*
X159958590Y-115567051D01*
X159958587Y-115567047D01*
X159841952Y-115450412D01*
X159841944Y-115450406D01*
X159785004Y-115416732D01*
X159737321Y-115365663D01*
X159724817Y-115296921D01*
X159751462Y-115232332D01*
X159785004Y-115203268D01*
X159841947Y-115169592D01*
X159958592Y-115052947D01*
X160042564Y-114910959D01*
X160088587Y-114752548D01*
X160091500Y-114715534D01*
X160091500Y-114371308D01*
X160111185Y-114304269D01*
X160127819Y-114283627D01*
X160682038Y-113729407D01*
X160699076Y-113792992D01*
X160764902Y-113907006D01*
X160857994Y-114000098D01*
X160972008Y-114065924D01*
X161035590Y-114082961D01*
X160439076Y-114679474D01*
X160483650Y-114711859D01*
X160665968Y-114804755D01*
X160860582Y-114867990D01*
X161062683Y-114900000D01*
X161267317Y-114900000D01*
X161469417Y-114867990D01*
X161664031Y-114804755D01*
X161846349Y-114711859D01*
X161890921Y-114679474D01*
X161294408Y-114082961D01*
X161357992Y-114065924D01*
X161472006Y-114000098D01*
X161565098Y-113907006D01*
X161630924Y-113792992D01*
X161647961Y-113729409D01*
X162244474Y-114325922D01*
X162244474Y-114325921D01*
X162276859Y-114281349D01*
X162369755Y-114099031D01*
X162432990Y-113904417D01*
X162465000Y-113702317D01*
X162465000Y-113497682D01*
X164665000Y-113497682D01*
X164665000Y-113702317D01*
X164697009Y-113904417D01*
X164760244Y-114099031D01*
X164853141Y-114281350D01*
X164853147Y-114281359D01*
X164885523Y-114325921D01*
X164885524Y-114325922D01*
X165482038Y-113729408D01*
X165499076Y-113792992D01*
X165564902Y-113907006D01*
X165657994Y-114000098D01*
X165772008Y-114065924D01*
X165835590Y-114082961D01*
X165239076Y-114679474D01*
X165283650Y-114711859D01*
X165465968Y-114804755D01*
X165660582Y-114867990D01*
X165862683Y-114900000D01*
X166067317Y-114900000D01*
X166269417Y-114867990D01*
X166464031Y-114804755D01*
X166646349Y-114711859D01*
X166690921Y-114679474D01*
X166094408Y-114082961D01*
X166157992Y-114065924D01*
X166272006Y-114000098D01*
X166365098Y-113907006D01*
X166430924Y-113792992D01*
X166447961Y-113729409D01*
X167044474Y-114325922D01*
X167044474Y-114325921D01*
X167076859Y-114281349D01*
X167169755Y-114099031D01*
X167232990Y-113904417D01*
X167265000Y-113702317D01*
X167265000Y-113497682D01*
X167232990Y-113295582D01*
X167169755Y-113100968D01*
X167076859Y-112918650D01*
X167044474Y-112874077D01*
X167044474Y-112874076D01*
X166447961Y-113470590D01*
X166430924Y-113407008D01*
X166365098Y-113292994D01*
X166272006Y-113199902D01*
X166157992Y-113134076D01*
X166094407Y-113117038D01*
X166690922Y-112520524D01*
X166690921Y-112520523D01*
X166646359Y-112488147D01*
X166646350Y-112488141D01*
X166464031Y-112395244D01*
X166269417Y-112332009D01*
X166067317Y-112300000D01*
X165862683Y-112300000D01*
X165660582Y-112332009D01*
X165465968Y-112395244D01*
X165283644Y-112488143D01*
X165239077Y-112520523D01*
X165239077Y-112520524D01*
X165835592Y-113117038D01*
X165772008Y-113134076D01*
X165657994Y-113199902D01*
X165564902Y-113292994D01*
X165499076Y-113407008D01*
X165482038Y-113470591D01*
X164885524Y-112874077D01*
X164885523Y-112874077D01*
X164853143Y-112918644D01*
X164760244Y-113100968D01*
X164697009Y-113295582D01*
X164665000Y-113497682D01*
X162465000Y-113497682D01*
X162432990Y-113295582D01*
X162369755Y-113100968D01*
X162276859Y-112918650D01*
X162244474Y-112874077D01*
X162244474Y-112874076D01*
X161647961Y-113470590D01*
X161630924Y-113407008D01*
X161565098Y-113292994D01*
X161472006Y-113199902D01*
X161357992Y-113134076D01*
X161294407Y-113117038D01*
X161890922Y-112520524D01*
X161890921Y-112520523D01*
X161846359Y-112488147D01*
X161846350Y-112488141D01*
X161664031Y-112395244D01*
X161469417Y-112332009D01*
X161267317Y-112300000D01*
X161062683Y-112300000D01*
X160860582Y-112332009D01*
X160665968Y-112395244D01*
X160483644Y-112488143D01*
X160439077Y-112520523D01*
X160439077Y-112520524D01*
X161035592Y-113117038D01*
X160972008Y-113134076D01*
X160857994Y-113199902D01*
X160764902Y-113292994D01*
X160699076Y-113407008D01*
X160682038Y-113470591D01*
X160085524Y-112874077D01*
X160085523Y-112874077D01*
X160053076Y-112918739D01*
X159997747Y-112961405D01*
X159928134Y-112967386D01*
X159866338Y-112934781D01*
X159865076Y-112933536D01*
X159841952Y-112910412D01*
X159841943Y-112910405D01*
X159699957Y-112826435D01*
X159699954Y-112826434D01*
X159541552Y-112780413D01*
X159541546Y-112780412D01*
X159504541Y-112777500D01*
X159504534Y-112777500D01*
X158264500Y-112777500D01*
X158255814Y-112774949D01*
X158246853Y-112776238D01*
X158222812Y-112765259D01*
X158197461Y-112757815D01*
X158191533Y-112750974D01*
X158183297Y-112747213D01*
X158169007Y-112724978D01*
X158151706Y-112705011D01*
X158149418Y-112694496D01*
X158145523Y-112688435D01*
X158140500Y-112653500D01*
X158140500Y-110639060D01*
X158140501Y-110639047D01*
X158140501Y-110470944D01*
X158099576Y-110318214D01*
X158099573Y-110318209D01*
X158020524Y-110181290D01*
X158020518Y-110181282D01*
X147524618Y-99685382D01*
X136851371Y-89012135D01*
X143564500Y-89012135D01*
X143564500Y-91107870D01*
X143564501Y-91107876D01*
X143570908Y-91167483D01*
X143621202Y-91302328D01*
X143621206Y-91302335D01*
X143707452Y-91417544D01*
X143707455Y-91417547D01*
X143822664Y-91503793D01*
X143822671Y-91503797D01*
X143957517Y-91554091D01*
X143957516Y-91554091D01*
X143964444Y-91554835D01*
X144017127Y-91560500D01*
X146112872Y-91560499D01*
X146172483Y-91554091D01*
X146307331Y-91503796D01*
X146422546Y-91417546D01*
X146508796Y-91302331D01*
X146559091Y-91167483D01*
X146565500Y-91107873D01*
X146565499Y-89012128D01*
X146559091Y-88952517D01*
X146508796Y-88817669D01*
X146508795Y-88817668D01*
X146508793Y-88817664D01*
X146422547Y-88702455D01*
X146422544Y-88702452D01*
X146307335Y-88616206D01*
X146307328Y-88616202D01*
X146172482Y-88565908D01*
X146172483Y-88565908D01*
X146112883Y-88559501D01*
X146112881Y-88559500D01*
X146112873Y-88559500D01*
X146112864Y-88559500D01*
X144017129Y-88559500D01*
X144017123Y-88559501D01*
X143957516Y-88565908D01*
X143822671Y-88616202D01*
X143822664Y-88616206D01*
X143707455Y-88702452D01*
X143707452Y-88702455D01*
X143621206Y-88817664D01*
X143621202Y-88817671D01*
X143570908Y-88952517D01*
X143564501Y-89012116D01*
X143564501Y-89012123D01*
X143564500Y-89012135D01*
X136851371Y-89012135D01*
X124584076Y-76744841D01*
X124550592Y-76683519D01*
X124553828Y-76618841D01*
X124558477Y-76604534D01*
X124590500Y-76402352D01*
X124590500Y-76197648D01*
X129609500Y-76197648D01*
X129609500Y-76402351D01*
X129641522Y-76604534D01*
X129704781Y-76799223D01*
X129768691Y-76924653D01*
X129794209Y-76974734D01*
X129797715Y-76981613D01*
X129918028Y-77147213D01*
X130062786Y-77291971D01*
X130217749Y-77404556D01*
X130228390Y-77412287D01*
X130344607Y-77471503D01*
X130410776Y-77505218D01*
X130410778Y-77505218D01*
X130410781Y-77505220D01*
X130445987Y-77516659D01*
X130605465Y-77568477D01*
X130673950Y-77579324D01*
X130807648Y-77600500D01*
X130807649Y-77600500D01*
X131012351Y-77600500D01*
X131012352Y-77600500D01*
X131214534Y-77568477D01*
X131409219Y-77505220D01*
X131591610Y-77412287D01*
X131684590Y-77344732D01*
X131757213Y-77291971D01*
X131757215Y-77291968D01*
X131757219Y-77291966D01*
X131901966Y-77147219D01*
X131901968Y-77147215D01*
X131901971Y-77147213D01*
X131968037Y-77056279D01*
X132022287Y-76981610D01*
X132115220Y-76799219D01*
X132132753Y-76745258D01*
X135664500Y-76745258D01*
X135664500Y-76974741D01*
X135681679Y-77105218D01*
X135694452Y-77202238D01*
X135750733Y-77412284D01*
X135753842Y-77423887D01*
X135841650Y-77635876D01*
X135841657Y-77635890D01*
X135956392Y-77834617D01*
X136096081Y-78016661D01*
X136096089Y-78016670D01*
X136258330Y-78178911D01*
X136258338Y-78178918D01*
X136440382Y-78318607D01*
X136440385Y-78318608D01*
X136440388Y-78318611D01*
X136639112Y-78433344D01*
X136639117Y-78433346D01*
X136639123Y-78433349D01*
X136730480Y-78471190D01*
X136851113Y-78521158D01*
X137072762Y-78580548D01*
X137300266Y-78610500D01*
X137300273Y-78610500D01*
X137529727Y-78610500D01*
X137529734Y-78610500D01*
X137757238Y-78580548D01*
X137978887Y-78521158D01*
X138190888Y-78433344D01*
X138389612Y-78318611D01*
X138571661Y-78178919D01*
X138571665Y-78178914D01*
X138571670Y-78178911D01*
X138733911Y-78016670D01*
X138733914Y-78016665D01*
X138733919Y-78016661D01*
X138873611Y-77834612D01*
X138988344Y-77635888D01*
X139076158Y-77423887D01*
X139135548Y-77202238D01*
X139165500Y-76974734D01*
X139165500Y-76745266D01*
X139135548Y-76517762D01*
X139076158Y-76296113D01*
X138988344Y-76084112D01*
X138873611Y-75885388D01*
X138873608Y-75885385D01*
X138873607Y-75885382D01*
X138772764Y-75753962D01*
X138733919Y-75703339D01*
X138733918Y-75703338D01*
X138733911Y-75703330D01*
X138571670Y-75541089D01*
X138571661Y-75541081D01*
X138389617Y-75401392D01*
X138220198Y-75303578D01*
X138190891Y-75286657D01*
X138190876Y-75286650D01*
X137978887Y-75198842D01*
X137937360Y-75187715D01*
X137757238Y-75139452D01*
X137719215Y-75134446D01*
X137529741Y-75109500D01*
X137529734Y-75109500D01*
X137300266Y-75109500D01*
X137300258Y-75109500D01*
X137083715Y-75138009D01*
X137072762Y-75139452D01*
X137037382Y-75148932D01*
X136851112Y-75198842D01*
X136639123Y-75286650D01*
X136639109Y-75286657D01*
X136440382Y-75401392D01*
X136258338Y-75541081D01*
X136096081Y-75703338D01*
X135956392Y-75885382D01*
X135841657Y-76084109D01*
X135841650Y-76084123D01*
X135753842Y-76296112D01*
X135694453Y-76517759D01*
X135694451Y-76517770D01*
X135664500Y-76745258D01*
X132132753Y-76745258D01*
X132162550Y-76653553D01*
X132178476Y-76604538D01*
X132178476Y-76604537D01*
X132178477Y-76604534D01*
X132210500Y-76402352D01*
X132210500Y-76197648D01*
X132209260Y-76189818D01*
X132178477Y-75995465D01*
X132142709Y-75885383D01*
X132115220Y-75800781D01*
X132115218Y-75800778D01*
X132115218Y-75800776D01*
X132067766Y-75707647D01*
X132022287Y-75618390D01*
X132005631Y-75595465D01*
X131901971Y-75452786D01*
X131757213Y-75308028D01*
X131591613Y-75187715D01*
X131591612Y-75187714D01*
X131591610Y-75187713D01*
X131496891Y-75139451D01*
X131409223Y-75094781D01*
X131214534Y-75031522D01*
X131028799Y-75002105D01*
X131012352Y-74999500D01*
X130807648Y-74999500D01*
X130791201Y-75002105D01*
X130605465Y-75031522D01*
X130410776Y-75094781D01*
X130228386Y-75187715D01*
X130062786Y-75308028D01*
X129918028Y-75452786D01*
X129797715Y-75618386D01*
X129704781Y-75800776D01*
X129641522Y-75995465D01*
X129609500Y-76197648D01*
X124590500Y-76197648D01*
X124589260Y-76189818D01*
X124558477Y-75995465D01*
X124522709Y-75885383D01*
X124495220Y-75800781D01*
X124495218Y-75800778D01*
X124495218Y-75800776D01*
X124447766Y-75707647D01*
X124402287Y-75618390D01*
X124385631Y-75595465D01*
X124281971Y-75452786D01*
X124137213Y-75308028D01*
X123971613Y-75187715D01*
X123971612Y-75187714D01*
X123971610Y-75187713D01*
X123876891Y-75139451D01*
X123789223Y-75094781D01*
X123594534Y-75031522D01*
X123408799Y-75002105D01*
X123392352Y-74999500D01*
X123187648Y-74999500D01*
X123171201Y-75002105D01*
X122985465Y-75031522D01*
X122790776Y-75094781D01*
X122608386Y-75187715D01*
X122442786Y-75308028D01*
X122298028Y-75452786D01*
X122177715Y-75618386D01*
X122084781Y-75800776D01*
X122021522Y-75995465D01*
X121989500Y-76197648D01*
X121989500Y-76402351D01*
X122021522Y-76604534D01*
X122084781Y-76799223D01*
X122148691Y-76924653D01*
X122174209Y-76974734D01*
X122177715Y-76981613D01*
X122298028Y-77147213D01*
X122442786Y-77291971D01*
X122597749Y-77404556D01*
X122608390Y-77412287D01*
X122724607Y-77471503D01*
X122790776Y-77505218D01*
X122790778Y-77505218D01*
X122790781Y-77505220D01*
X122825987Y-77516659D01*
X122985465Y-77568477D01*
X123053950Y-77579324D01*
X123187648Y-77600500D01*
X123187649Y-77600500D01*
X123392351Y-77600500D01*
X123392352Y-77600500D01*
X123594534Y-77568477D01*
X123608842Y-77563827D01*
X123678682Y-77561831D01*
X123734842Y-77594077D01*
X145921365Y-99780600D01*
X145954850Y-99841923D01*
X145949866Y-99911615D01*
X145936787Y-99937171D01*
X145861343Y-100050081D01*
X145861337Y-100050092D01*
X145800999Y-100195763D01*
X145800996Y-100195775D01*
X145770235Y-100350418D01*
X145770235Y-100508111D01*
X145800996Y-100662754D01*
X145800999Y-100662766D01*
X145861337Y-100808437D01*
X145861344Y-100808450D01*
X145948945Y-100939553D01*
X145948948Y-100939557D01*
X146060442Y-101051051D01*
X146060446Y-101051054D01*
X146191549Y-101138655D01*
X146191562Y-101138662D01*
X146333730Y-101197549D01*
X146337238Y-101199002D01*
X146491888Y-101229764D01*
X146491891Y-101229765D01*
X146491893Y-101229765D01*
X146649577Y-101229765D01*
X146712899Y-101217169D01*
X146782487Y-101223395D01*
X146824770Y-101251105D01*
X147363181Y-101789516D01*
X147396666Y-101850839D01*
X147399500Y-101877197D01*
X147399500Y-102913330D01*
X147399499Y-102913348D01*
X147399499Y-103079054D01*
X147399498Y-103079054D01*
X147440423Y-103231785D01*
X147469358Y-103281900D01*
X147469359Y-103281904D01*
X147469360Y-103281904D01*
X147519479Y-103368714D01*
X147519481Y-103368717D01*
X147638349Y-103487585D01*
X147638355Y-103487590D01*
X154363181Y-110212416D01*
X154396666Y-110273739D01*
X154399500Y-110300097D01*
X154399500Y-120913330D01*
X154399499Y-120913348D01*
X154399499Y-121079054D01*
X154399498Y-121079054D01*
X154440423Y-121231785D01*
X154469358Y-121281900D01*
X154469359Y-121281904D01*
X154469360Y-121281904D01*
X154516967Y-121364364D01*
X154519479Y-121368714D01*
X154519481Y-121368717D01*
X154638349Y-121487585D01*
X154638355Y-121487590D01*
X155175139Y-122024374D01*
X155175149Y-122024385D01*
X155179479Y-122028715D01*
X155179480Y-122028716D01*
X155291284Y-122140520D01*
X155378095Y-122190639D01*
X155378097Y-122190641D01*
X155416151Y-122212611D01*
X155428215Y-122219577D01*
X155580943Y-122260501D01*
X155580946Y-122260501D01*
X155746653Y-122260501D01*
X155746669Y-122260500D01*
X156353270Y-122260500D01*
X156420309Y-122280185D01*
X156457191Y-122317866D01*
X156457349Y-122317752D01*
X156458127Y-122318823D01*
X156459000Y-122319715D01*
X156460210Y-122321690D01*
X156470268Y-122335534D01*
X156577019Y-122482464D01*
X156577021Y-122482466D01*
X156717539Y-122622984D01*
X156797060Y-122680758D01*
X156803824Y-122686039D01*
X156807998Y-122689537D01*
X156908053Y-122789592D01*
X156973737Y-122828437D01*
X156981522Y-122834962D01*
X156995488Y-122855926D01*
X157012679Y-122874338D01*
X157014528Y-122884506D01*
X157020260Y-122893110D01*
X157020674Y-122918297D01*
X157025182Y-122943079D01*
X157021239Y-122952634D01*
X157021410Y-122962970D01*
X157008143Y-122984381D01*
X156998536Y-123007669D01*
X156988122Y-123016692D01*
X156984609Y-123022363D01*
X156977871Y-123025575D01*
X156964996Y-123036732D01*
X156908053Y-123070408D01*
X156908046Y-123070413D01*
X156811854Y-123166604D01*
X156797061Y-123179239D01*
X156717536Y-123237018D01*
X156577021Y-123377533D01*
X156460213Y-123538305D01*
X156369994Y-123715367D01*
X156369993Y-123715370D01*
X156308587Y-123904362D01*
X156277500Y-124100639D01*
X156277500Y-124299360D01*
X156308587Y-124495637D01*
X156369993Y-124684629D01*
X156369994Y-124684632D01*
X156447196Y-124836147D01*
X156460213Y-124861694D01*
X156577019Y-125022464D01*
X156577021Y-125022466D01*
X156717539Y-125162984D01*
X156797060Y-125220758D01*
X156803786Y-125226007D01*
X156807979Y-125229518D01*
X156908053Y-125329592D01*
X156974208Y-125368716D01*
X156981975Y-125375220D01*
X156995962Y-125396197D01*
X157013170Y-125414627D01*
X157015015Y-125424773D01*
X157020736Y-125433353D01*
X157021161Y-125458564D01*
X157025673Y-125483369D01*
X157021740Y-125492900D01*
X157021915Y-125503212D01*
X157008643Y-125524649D01*
X156999028Y-125547958D01*
X156988643Y-125556956D01*
X156985137Y-125562620D01*
X156978391Y-125565838D01*
X156965487Y-125577021D01*
X156908370Y-125610800D01*
X156908357Y-125610810D01*
X156836360Y-125682806D01*
X156836360Y-125682807D01*
X157455905Y-126302352D01*
X157368429Y-126325792D01*
X157267070Y-126384311D01*
X157184311Y-126467070D01*
X157125792Y-126568429D01*
X157102352Y-126655905D01*
X156487730Y-126041282D01*
X156487729Y-126041283D01*
X156460643Y-126078564D01*
X156370457Y-126255562D01*
X156309075Y-126444476D01*
X156309075Y-126444479D01*
X156278000Y-126640678D01*
X156278000Y-126839321D01*
X156309075Y-127035520D01*
X156309075Y-127035523D01*
X156370457Y-127224437D01*
X156460641Y-127401432D01*
X156487730Y-127438715D01*
X156487731Y-127438716D01*
X157102352Y-126824094D01*
X157125792Y-126911571D01*
X157184311Y-127012930D01*
X157267070Y-127095689D01*
X157368429Y-127154208D01*
X157455904Y-127177647D01*
X156836360Y-127797191D01*
X156908360Y-127869192D01*
X156908364Y-127869195D01*
X156965486Y-127902977D01*
X157013169Y-127954046D01*
X157025673Y-128022788D01*
X156999028Y-128087377D01*
X156981975Y-128104779D01*
X156974204Y-128111285D01*
X156908053Y-128150408D01*
X156807990Y-128250469D01*
X156803784Y-128253992D01*
X156802598Y-128254509D01*
X156797061Y-128259239D01*
X156717536Y-128317018D01*
X156577021Y-128457533D01*
X156460213Y-128618305D01*
X156369994Y-128795367D01*
X156369993Y-128795370D01*
X156308587Y-128984362D01*
X156277500Y-129180639D01*
X156277500Y-129379360D01*
X156308587Y-129575637D01*
X156369993Y-129764629D01*
X156369994Y-129764632D01*
X156460213Y-129941694D01*
X156577019Y-130102464D01*
X156577021Y-130102466D01*
X156717539Y-130242984D01*
X156797060Y-130300758D01*
X156811851Y-130313390D01*
X156908053Y-130409592D01*
X157050041Y-130493564D01*
X157091816Y-130505701D01*
X157208447Y-130539586D01*
X157208450Y-130539586D01*
X157208452Y-130539587D01*
X157245466Y-130542500D01*
X157440639Y-130542500D01*
X157556241Y-130542500D01*
X157623280Y-130562185D01*
X157669035Y-130614989D01*
X157678979Y-130684147D01*
X157649954Y-130747703D01*
X157591176Y-130785477D01*
X157586148Y-130786839D01*
X156756328Y-130993070D01*
X156749837Y-130994500D01*
X155045241Y-131322293D01*
X155038636Y-131323379D01*
X153306349Y-131560414D01*
X153299658Y-131561145D01*
X151989847Y-131668397D01*
X151921424Y-131654250D01*
X151871513Y-131605356D01*
X151855958Y-131537240D01*
X151879700Y-131471527D01*
X151906837Y-131444496D01*
X152069792Y-131326104D01*
X152220104Y-131175792D01*
X152220106Y-131175788D01*
X152220109Y-131175786D01*
X152345048Y-131003820D01*
X152345047Y-131003820D01*
X152345051Y-131003816D01*
X152441557Y-130814412D01*
X152507246Y-130612243D01*
X152540500Y-130402287D01*
X152540500Y-130189713D01*
X152507246Y-129979757D01*
X152441557Y-129777588D01*
X152345051Y-129588184D01*
X152345049Y-129588181D01*
X152345048Y-129588179D01*
X152220109Y-129416213D01*
X152069786Y-129265890D01*
X151897820Y-129140951D01*
X151897115Y-129140591D01*
X151889054Y-129136485D01*
X151838259Y-129088512D01*
X151821463Y-129020692D01*
X151843999Y-128954556D01*
X151889054Y-128915515D01*
X151897816Y-128911051D01*
X152030780Y-128814448D01*
X152069786Y-128786109D01*
X152069788Y-128786106D01*
X152069792Y-128786104D01*
X152220104Y-128635792D01*
X152220106Y-128635788D01*
X152220109Y-128635786D01*
X152345048Y-128463820D01*
X152345047Y-128463820D01*
X152345051Y-128463816D01*
X152441557Y-128274412D01*
X152507246Y-128072243D01*
X152540500Y-127862287D01*
X152540500Y-127649713D01*
X152507246Y-127439757D01*
X152441557Y-127237588D01*
X152345051Y-127048184D01*
X152345049Y-127048181D01*
X152345048Y-127048179D01*
X152220109Y-126876213D01*
X152069786Y-126725890D01*
X151897820Y-126600951D01*
X151897115Y-126600591D01*
X151889054Y-126596485D01*
X151838259Y-126548512D01*
X151821463Y-126480692D01*
X151843999Y-126414556D01*
X151889054Y-126375515D01*
X151897816Y-126371051D01*
X151945401Y-126336479D01*
X152069786Y-126246109D01*
X152069788Y-126246106D01*
X152069792Y-126246104D01*
X152220104Y-126095792D01*
X152220106Y-126095788D01*
X152220109Y-126095786D01*
X152345048Y-125923820D01*
X152345047Y-125923820D01*
X152345051Y-125923816D01*
X152441557Y-125734412D01*
X152507246Y-125532243D01*
X152540500Y-125322287D01*
X152540500Y-125109713D01*
X152507246Y-124899757D01*
X152441557Y-124697588D01*
X152345051Y-124508184D01*
X152345049Y-124508181D01*
X152345048Y-124508179D01*
X152220109Y-124336213D01*
X152069786Y-124185890D01*
X151897820Y-124060951D01*
X151708414Y-123964444D01*
X151708413Y-123964443D01*
X151708412Y-123964443D01*
X151506243Y-123898754D01*
X151506241Y-123898753D01*
X151506240Y-123898753D01*
X151344957Y-123873208D01*
X151296287Y-123865500D01*
X151083713Y-123865500D01*
X151035042Y-123873208D01*
X150873760Y-123898753D01*
X150671585Y-123964444D01*
X150482179Y-124060951D01*
X150310213Y-124185890D01*
X150159890Y-124336213D01*
X150034949Y-124508182D01*
X150030484Y-124516946D01*
X149982509Y-124567742D01*
X149914688Y-124584536D01*
X149848553Y-124561998D01*
X149809516Y-124516946D01*
X149805050Y-124508182D01*
X149680109Y-124336213D01*
X149529786Y-124185890D01*
X149357820Y-124060951D01*
X149168414Y-123964444D01*
X149168413Y-123964443D01*
X149168412Y-123964443D01*
X148966243Y-123898754D01*
X148966241Y-123898753D01*
X148966240Y-123898753D01*
X148804957Y-123873208D01*
X148756287Y-123865500D01*
X148543713Y-123865500D01*
X148495042Y-123873208D01*
X148333760Y-123898753D01*
X148131585Y-123964444D01*
X147942179Y-124060951D01*
X147770213Y-124185890D01*
X147619890Y-124336213D01*
X147494951Y-124508179D01*
X147398444Y-124697585D01*
X147332753Y-124899760D01*
X147308396Y-125053546D01*
X147299500Y-125109713D01*
X147299500Y-125322287D01*
X147300658Y-125329596D01*
X147331757Y-125525953D01*
X147332754Y-125532243D01*
X147396153Y-125727365D01*
X147398444Y-125734414D01*
X147494951Y-125923820D01*
X147619890Y-126095786D01*
X147770213Y-126246109D01*
X147942182Y-126371050D01*
X147950946Y-126375516D01*
X148001742Y-126423491D01*
X148018536Y-126491312D01*
X147995998Y-126557447D01*
X147950946Y-126596484D01*
X147942182Y-126600949D01*
X147770213Y-126725890D01*
X147619890Y-126876213D01*
X147494951Y-127048179D01*
X147398444Y-127237585D01*
X147332753Y-127439760D01*
X147305671Y-127610753D01*
X147299500Y-127649713D01*
X147299500Y-127862287D01*
X147305945Y-127902976D01*
X147331711Y-128065663D01*
X147332754Y-128072243D01*
X147393513Y-128259240D01*
X147398444Y-128274414D01*
X147494951Y-128463820D01*
X147619890Y-128635786D01*
X147770213Y-128786109D01*
X147942182Y-128911050D01*
X147950946Y-128915516D01*
X148001742Y-128963491D01*
X148018536Y-129031312D01*
X147995998Y-129097447D01*
X147950946Y-129136484D01*
X147942182Y-129140949D01*
X147770213Y-129265890D01*
X147619890Y-129416213D01*
X147494951Y-129588179D01*
X147398444Y-129777585D01*
X147332753Y-129979760D01*
X147310193Y-130122202D01*
X147299500Y-130189713D01*
X147299500Y-130402287D01*
X147304784Y-130435647D01*
X147324825Y-130562185D01*
X147332754Y-130612243D01*
X147389041Y-130785477D01*
X147398444Y-130814414D01*
X147494951Y-131003820D01*
X147619890Y-131175786D01*
X147770213Y-131326109D01*
X147942182Y-131451050D01*
X147973081Y-131466794D01*
X148023878Y-131514768D01*
X148040673Y-131582589D01*
X148018136Y-131648724D01*
X147963421Y-131692176D01*
X147906667Y-131700865D01*
X146316664Y-131570669D01*
X146200339Y-131561143D01*
X146193650Y-131560413D01*
X146099696Y-131547557D01*
X145346481Y-131444492D01*
X144461361Y-131323378D01*
X144454756Y-131322292D01*
X142750164Y-130994500D01*
X142743673Y-130993070D01*
X141913854Y-130786839D01*
X141853541Y-130751567D01*
X141821873Y-130689286D01*
X141828903Y-130619771D01*
X141872400Y-130565092D01*
X141938553Y-130542609D01*
X141943761Y-130542500D01*
X142594526Y-130542500D01*
X142594534Y-130542500D01*
X142631548Y-130539587D01*
X142631550Y-130539586D01*
X142631552Y-130539586D01*
X142673323Y-130527449D01*
X142789959Y-130493564D01*
X142931947Y-130409592D01*
X143028148Y-130313389D01*
X143042939Y-130300758D01*
X143122464Y-130242981D01*
X143262981Y-130102464D01*
X143379787Y-129941694D01*
X143470005Y-129764632D01*
X143531413Y-129575636D01*
X143562500Y-129379361D01*
X143562500Y-129180639D01*
X143531413Y-128984364D01*
X143500709Y-128889866D01*
X143470006Y-128795370D01*
X143470005Y-128795367D01*
X143424035Y-128705149D01*
X143379787Y-128618306D01*
X143262981Y-128457536D01*
X143122464Y-128317019D01*
X143063820Y-128274412D01*
X143042938Y-128259240D01*
X143036175Y-128253960D01*
X143032000Y-128250461D01*
X142931947Y-128150408D01*
X142866259Y-128111560D01*
X142858477Y-128105038D01*
X142844510Y-128084073D01*
X142827321Y-128065663D01*
X142825471Y-128055492D01*
X142819740Y-128046890D01*
X142819324Y-128021702D01*
X142814817Y-127996921D01*
X142818758Y-127987366D01*
X142818588Y-127977030D01*
X142831856Y-127955616D01*
X142841462Y-127932332D01*
X142851874Y-127923309D01*
X142855389Y-127917638D01*
X142862127Y-127914425D01*
X142875004Y-127903268D01*
X142875498Y-127902976D01*
X142931947Y-127869592D01*
X143028148Y-127773389D01*
X143042939Y-127760758D01*
X143122464Y-127702981D01*
X143262981Y-127562464D01*
X143379787Y-127401694D01*
X143470005Y-127224632D01*
X143531413Y-127035636D01*
X143562500Y-126839361D01*
X143562500Y-126640639D01*
X143531413Y-126444364D01*
X143495266Y-126333113D01*
X143470006Y-126255370D01*
X143470005Y-126255367D01*
X143406330Y-126130400D01*
X143379787Y-126078306D01*
X143262981Y-125917536D01*
X143122464Y-125777019D01*
X143063820Y-125734412D01*
X143042938Y-125719240D01*
X143036175Y-125713960D01*
X143032000Y-125710461D01*
X142931947Y-125610408D01*
X142866259Y-125571560D01*
X142858477Y-125565038D01*
X142844510Y-125544073D01*
X142827321Y-125525663D01*
X142825471Y-125515492D01*
X142819740Y-125506890D01*
X142819324Y-125481702D01*
X142814817Y-125456921D01*
X142818758Y-125447366D01*
X142818588Y-125437030D01*
X142831856Y-125415616D01*
X142841462Y-125392332D01*
X142851874Y-125383309D01*
X142855389Y-125377638D01*
X142862127Y-125374425D01*
X142875004Y-125363268D01*
X142931947Y-125329592D01*
X143028148Y-125233389D01*
X143042939Y-125220758D01*
X143122464Y-125162981D01*
X143262981Y-125022464D01*
X143379787Y-124861694D01*
X143470005Y-124684632D01*
X143507985Y-124567742D01*
X143532919Y-124491002D01*
X143534127Y-124491394D01*
X143565991Y-124435881D01*
X143628012Y-124403707D01*
X143697582Y-124410172D01*
X143752613Y-124453222D01*
X143768830Y-124484451D01*
X143794741Y-124558501D01*
X143796878Y-124564606D01*
X143889853Y-124712576D01*
X144013424Y-124836147D01*
X144161394Y-124929122D01*
X144326343Y-124986841D01*
X144326349Y-124986841D01*
X144326351Y-124986842D01*
X144367750Y-124991506D01*
X144456442Y-125001499D01*
X144456445Y-125001500D01*
X144456448Y-125001500D01*
X146493555Y-125001500D01*
X146493556Y-125001499D01*
X146623657Y-124986841D01*
X146788606Y-124929122D01*
X146936576Y-124836147D01*
X147060147Y-124712576D01*
X147153122Y-124564606D01*
X147210841Y-124399657D01*
X147225500Y-124269552D01*
X147225500Y-123632448D01*
X147210841Y-123502343D01*
X147153122Y-123337394D01*
X147060147Y-123189424D01*
X146956904Y-123086181D01*
X146923419Y-123024858D01*
X146928403Y-122955166D01*
X146956904Y-122910819D01*
X146994159Y-122873564D01*
X147060147Y-122807576D01*
X147153122Y-122659606D01*
X147210841Y-122494657D01*
X147225500Y-122364552D01*
X147225500Y-121727448D01*
X147210841Y-121597343D01*
X147153122Y-121432394D01*
X147060147Y-121284424D01*
X146936576Y-121160853D01*
X146788606Y-121067878D01*
X146788605Y-121067877D01*
X146788604Y-121067877D01*
X146623658Y-121010159D01*
X146623648Y-121010157D01*
X146493558Y-120995500D01*
X146493552Y-120995500D01*
X144456448Y-120995500D01*
X144456441Y-120995500D01*
X144326351Y-121010157D01*
X144326341Y-121010159D01*
X144161395Y-121067877D01*
X144013423Y-121160853D01*
X143889853Y-121284423D01*
X143796878Y-121432394D01*
X143784080Y-121468968D01*
X143743358Y-121525744D01*
X143678405Y-121551490D01*
X143609843Y-121538033D01*
X143559441Y-121489645D01*
X143544566Y-121447409D01*
X143531413Y-121364363D01*
X143470006Y-121175370D01*
X143470005Y-121175367D01*
X143400937Y-121039815D01*
X143379787Y-120998306D01*
X143262981Y-120837536D01*
X143122464Y-120697019D01*
X143042937Y-120639239D01*
X143036175Y-120633960D01*
X143032000Y-120630461D01*
X142931947Y-120530408D01*
X142866259Y-120491560D01*
X142858477Y-120485038D01*
X142844510Y-120464073D01*
X142827321Y-120445663D01*
X142825471Y-120435492D01*
X142819740Y-120426890D01*
X142819324Y-120401702D01*
X142814817Y-120376921D01*
X142818758Y-120367366D01*
X142818588Y-120357030D01*
X142831856Y-120335616D01*
X142841462Y-120312332D01*
X142851874Y-120303309D01*
X142855389Y-120297638D01*
X142862127Y-120294425D01*
X142875004Y-120283268D01*
X142931947Y-120249592D01*
X143028148Y-120153389D01*
X143042939Y-120140758D01*
X143122464Y-120082981D01*
X143262981Y-119942464D01*
X143379787Y-119781694D01*
X143470005Y-119604632D01*
X143531413Y-119415636D01*
X143562500Y-119219361D01*
X143562500Y-119020639D01*
X143531413Y-118824364D01*
X143470005Y-118635368D01*
X143470005Y-118635367D01*
X143379786Y-118458305D01*
X143262981Y-118297536D01*
X143122464Y-118157019D01*
X143042937Y-118099239D01*
X143036175Y-118093960D01*
X143032000Y-118090461D01*
X142931947Y-117990408D01*
X142866259Y-117951560D01*
X142858477Y-117945038D01*
X142844510Y-117924073D01*
X142827321Y-117905663D01*
X142825471Y-117895492D01*
X142819740Y-117886890D01*
X142819324Y-117861702D01*
X142814817Y-117836921D01*
X142818758Y-117827366D01*
X142818588Y-117817030D01*
X142831856Y-117795616D01*
X142841462Y-117772332D01*
X142851874Y-117763309D01*
X142855389Y-117757638D01*
X142862127Y-117754425D01*
X142875004Y-117743268D01*
X142931947Y-117709592D01*
X143028148Y-117613389D01*
X143042939Y-117600758D01*
X143122464Y-117542981D01*
X143262981Y-117402464D01*
X143379787Y-117241694D01*
X143470005Y-117064632D01*
X143531413Y-116875636D01*
X143559604Y-116697648D01*
X145599500Y-116697648D01*
X145599500Y-116902351D01*
X145631522Y-117104534D01*
X145694781Y-117299223D01*
X145710310Y-117329699D01*
X145786720Y-117479662D01*
X145787715Y-117481613D01*
X145908028Y-117647213D01*
X146052786Y-117791971D01*
X146195273Y-117895492D01*
X146218390Y-117912287D01*
X146334607Y-117971503D01*
X146400776Y-118005218D01*
X146400778Y-118005218D01*
X146400781Y-118005220D01*
X146505137Y-118039127D01*
X146595465Y-118068477D01*
X146696557Y-118084488D01*
X146797648Y-118100500D01*
X146797649Y-118100500D01*
X147002351Y-118100500D01*
X147002352Y-118100500D01*
X147204534Y-118068477D01*
X147399219Y-118005220D01*
X147581610Y-117912287D01*
X147698495Y-117827366D01*
X147747213Y-117791971D01*
X147747215Y-117791968D01*
X147747219Y-117791966D01*
X147891966Y-117647219D01*
X147891968Y-117647215D01*
X147891971Y-117647213D01*
X147944732Y-117574590D01*
X148012287Y-117481610D01*
X148105220Y-117299219D01*
X148168477Y-117104534D01*
X148200500Y-116902352D01*
X148200500Y-116697648D01*
X150399500Y-116697648D01*
X150399500Y-116902351D01*
X150431522Y-117104534D01*
X150494781Y-117299223D01*
X150510310Y-117329699D01*
X150586720Y-117479662D01*
X150587715Y-117481613D01*
X150708028Y-117647213D01*
X150852786Y-117791971D01*
X150995273Y-117895492D01*
X151018390Y-117912287D01*
X151134607Y-117971503D01*
X151200776Y-118005218D01*
X151200778Y-118005218D01*
X151200781Y-118005220D01*
X151305137Y-118039127D01*
X151395465Y-118068477D01*
X151496557Y-118084488D01*
X151597648Y-118100500D01*
X151597649Y-118100500D01*
X151802351Y-118100500D01*
X151802352Y-118100500D01*
X152004534Y-118068477D01*
X152199219Y-118005220D01*
X152381610Y-117912287D01*
X152498495Y-117827366D01*
X152547213Y-117791971D01*
X152547215Y-117791968D01*
X152547219Y-117791966D01*
X152691966Y-117647219D01*
X152691968Y-117647215D01*
X152691971Y-117647213D01*
X152744732Y-117574590D01*
X152812287Y-117481610D01*
X152905220Y-117299219D01*
X152968477Y-117104534D01*
X153000500Y-116902352D01*
X153000500Y-116697648D01*
X152968477Y-116495466D01*
X152963659Y-116480639D01*
X152905218Y-116300776D01*
X152871503Y-116234607D01*
X152812287Y-116118390D01*
X152795560Y-116095367D01*
X152691971Y-115952786D01*
X152547213Y-115808028D01*
X152381613Y-115687715D01*
X152381612Y-115687714D01*
X152381610Y-115687713D01*
X152324653Y-115658691D01*
X152199223Y-115594781D01*
X152004534Y-115531522D01*
X151829995Y-115503878D01*
X151802352Y-115499500D01*
X151597648Y-115499500D01*
X151573329Y-115503351D01*
X151395465Y-115531522D01*
X151200776Y-115594781D01*
X151018386Y-115687715D01*
X150852786Y-115808028D01*
X150708028Y-115952786D01*
X150587715Y-116118386D01*
X150494781Y-116300776D01*
X150431522Y-116495465D01*
X150399500Y-116697648D01*
X148200500Y-116697648D01*
X148168477Y-116495466D01*
X148163659Y-116480639D01*
X148105218Y-116300776D01*
X148071503Y-116234607D01*
X148012287Y-116118390D01*
X147995560Y-116095367D01*
X147891971Y-115952786D01*
X147747213Y-115808028D01*
X147581613Y-115687715D01*
X147581612Y-115687714D01*
X147581610Y-115687713D01*
X147524653Y-115658691D01*
X147399223Y-115594781D01*
X147204534Y-115531522D01*
X147029995Y-115503878D01*
X147002352Y-115499500D01*
X146797648Y-115499500D01*
X146773329Y-115503351D01*
X146595465Y-115531522D01*
X146400776Y-115594781D01*
X146218386Y-115687715D01*
X146052786Y-115808028D01*
X145908028Y-115952786D01*
X145787715Y-116118386D01*
X145694781Y-116300776D01*
X145631522Y-116495465D01*
X145599500Y-116697648D01*
X143559604Y-116697648D01*
X143562500Y-116679361D01*
X143562500Y-116480639D01*
X143531413Y-116284364D01*
X143500709Y-116189866D01*
X143470006Y-116095370D01*
X143470005Y-116095367D01*
X143424035Y-116005149D01*
X143379787Y-115918306D01*
X143262981Y-115757536D01*
X143122464Y-115617019D01*
X143042937Y-115559239D01*
X143036175Y-115553960D01*
X143032000Y-115550461D01*
X142931947Y-115450408D01*
X142866259Y-115411560D01*
X142858477Y-115405038D01*
X142844510Y-115384073D01*
X142827321Y-115365663D01*
X142825471Y-115355492D01*
X142819740Y-115346890D01*
X142819324Y-115321702D01*
X142814817Y-115296921D01*
X142818758Y-115287366D01*
X142818588Y-115277030D01*
X142831856Y-115255616D01*
X142841462Y-115232332D01*
X142851874Y-115223309D01*
X142855389Y-115217638D01*
X142862127Y-115214425D01*
X142875004Y-115203268D01*
X142931947Y-115169592D01*
X143028148Y-115073389D01*
X143042939Y-115060758D01*
X143122464Y-115002981D01*
X143262981Y-114862464D01*
X143379787Y-114701694D01*
X143470005Y-114524632D01*
X143531413Y-114335636D01*
X143562500Y-114139361D01*
X143562500Y-113940639D01*
X143531413Y-113744364D01*
X143516245Y-113697682D01*
X145600000Y-113697682D01*
X145600000Y-113902317D01*
X145632009Y-114104417D01*
X145695244Y-114299031D01*
X145788141Y-114481350D01*
X145788147Y-114481359D01*
X145820523Y-114525921D01*
X145820524Y-114525922D01*
X146417038Y-113929408D01*
X146434076Y-113992992D01*
X146499902Y-114107006D01*
X146592994Y-114200098D01*
X146707008Y-114265924D01*
X146770590Y-114282961D01*
X146174076Y-114879474D01*
X146218650Y-114911859D01*
X146400968Y-115004755D01*
X146595582Y-115067990D01*
X146797683Y-115100000D01*
X147002317Y-115100000D01*
X147204417Y-115067990D01*
X147399031Y-115004755D01*
X147581349Y-114911859D01*
X147625921Y-114879474D01*
X147029408Y-114282961D01*
X147092992Y-114265924D01*
X147207006Y-114200098D01*
X147300098Y-114107006D01*
X147365924Y-113992992D01*
X147382961Y-113929409D01*
X147979474Y-114525922D01*
X147979474Y-114525921D01*
X148011859Y-114481349D01*
X148104755Y-114299031D01*
X148167990Y-114104417D01*
X148200000Y-113902317D01*
X148200000Y-113697682D01*
X150400000Y-113697682D01*
X150400000Y-113902317D01*
X150432009Y-114104417D01*
X150495244Y-114299031D01*
X150588141Y-114481350D01*
X150588147Y-114481359D01*
X150620523Y-114525921D01*
X150620524Y-114525922D01*
X151217038Y-113929408D01*
X151234076Y-113992992D01*
X151299902Y-114107006D01*
X151392994Y-114200098D01*
X151507008Y-114265924D01*
X151570590Y-114282961D01*
X150974076Y-114879474D01*
X151018650Y-114911859D01*
X151200968Y-115004755D01*
X151395582Y-115067990D01*
X151597683Y-115100000D01*
X151802317Y-115100000D01*
X152004417Y-115067990D01*
X152199031Y-115004755D01*
X152381349Y-114911859D01*
X152425921Y-114879474D01*
X151829408Y-114282961D01*
X151892992Y-114265924D01*
X152007006Y-114200098D01*
X152100098Y-114107006D01*
X152165924Y-113992992D01*
X152182961Y-113929408D01*
X152779474Y-114525921D01*
X152811859Y-114481349D01*
X152904755Y-114299031D01*
X152967990Y-114104417D01*
X153000000Y-113902317D01*
X153000000Y-113697682D01*
X152967990Y-113495582D01*
X152904755Y-113300968D01*
X152811859Y-113118650D01*
X152779474Y-113074077D01*
X152779474Y-113074076D01*
X152182961Y-113670590D01*
X152165924Y-113607008D01*
X152100098Y-113492994D01*
X152007006Y-113399902D01*
X151892992Y-113334076D01*
X151829407Y-113317038D01*
X152425922Y-112720524D01*
X152425921Y-112720523D01*
X152381359Y-112688147D01*
X152381350Y-112688141D01*
X152199031Y-112595244D01*
X152004417Y-112532009D01*
X151802317Y-112500000D01*
X151597683Y-112500000D01*
X151395582Y-112532009D01*
X151200968Y-112595244D01*
X151018644Y-112688143D01*
X150974077Y-112720523D01*
X150974077Y-112720524D01*
X151570592Y-113317038D01*
X151507008Y-113334076D01*
X151392994Y-113399902D01*
X151299902Y-113492994D01*
X151234076Y-113607008D01*
X151217038Y-113670591D01*
X150620524Y-113074077D01*
X150620523Y-113074077D01*
X150588143Y-113118644D01*
X150495244Y-113300968D01*
X150432009Y-113495582D01*
X150400000Y-113697682D01*
X148200000Y-113697682D01*
X148167990Y-113495582D01*
X148104755Y-113300968D01*
X148011859Y-113118650D01*
X147979474Y-113074077D01*
X147979474Y-113074076D01*
X147382961Y-113670590D01*
X147365924Y-113607008D01*
X147300098Y-113492994D01*
X147207006Y-113399902D01*
X147092992Y-113334076D01*
X147029407Y-113317038D01*
X147625922Y-112720524D01*
X147625921Y-112720523D01*
X147581359Y-112688147D01*
X147581350Y-112688141D01*
X147399031Y-112595244D01*
X147204417Y-112532009D01*
X147002317Y-112500000D01*
X146797683Y-112500000D01*
X146595582Y-112532009D01*
X146400968Y-112595244D01*
X146218644Y-112688143D01*
X146174077Y-112720523D01*
X146174077Y-112720524D01*
X146770592Y-113317038D01*
X146707008Y-113334076D01*
X146592994Y-113399902D01*
X146499902Y-113492994D01*
X146434076Y-113607008D01*
X146417038Y-113670591D01*
X145820524Y-113074077D01*
X145820523Y-113074077D01*
X145788143Y-113118644D01*
X145695244Y-113300968D01*
X145632009Y-113495582D01*
X145600000Y-113697682D01*
X143516245Y-113697682D01*
X143484507Y-113600000D01*
X143470006Y-113555370D01*
X143470005Y-113555367D01*
X143394411Y-113407008D01*
X143379787Y-113378306D01*
X143262981Y-113217536D01*
X143122464Y-113077019D01*
X143042937Y-113019239D01*
X143036461Y-113014198D01*
X143032126Y-113010587D01*
X142931947Y-112910408D01*
X142862679Y-112869442D01*
X142862677Y-112869441D01*
X142789957Y-112826435D01*
X142789954Y-112826434D01*
X142631552Y-112780413D01*
X142631546Y-112780412D01*
X142594541Y-112777500D01*
X142594534Y-112777500D01*
X140335466Y-112777500D01*
X140335458Y-112777500D01*
X140298453Y-112780412D01*
X140298447Y-112780413D01*
X140140045Y-112826434D01*
X140140042Y-112826435D01*
X139998056Y-112910405D01*
X139998047Y-112910412D01*
X139881412Y-113027047D01*
X139881405Y-113027056D01*
X139797435Y-113169042D01*
X139797434Y-113169045D01*
X139751413Y-113327447D01*
X139751412Y-113327453D01*
X139748500Y-113364458D01*
X139748500Y-114715541D01*
X139751412Y-114752546D01*
X139751413Y-114752552D01*
X139797434Y-114910954D01*
X139797435Y-114910957D01*
X139881405Y-115052943D01*
X139881412Y-115052952D01*
X139998047Y-115169587D01*
X139998050Y-115169589D01*
X139998053Y-115169592D01*
X140054996Y-115203268D01*
X140102679Y-115254338D01*
X140115182Y-115323079D01*
X140088536Y-115387669D01*
X140054996Y-115416732D01*
X139998053Y-115450408D01*
X139998047Y-115450412D01*
X139881412Y-115567047D01*
X139881405Y-115567056D01*
X139797435Y-115709042D01*
X139797434Y-115709045D01*
X139751413Y-115867447D01*
X139751412Y-115867453D01*
X139748500Y-115904458D01*
X139748500Y-117255541D01*
X139751412Y-117292546D01*
X139751413Y-117292552D01*
X139797434Y-117450954D01*
X139797435Y-117450957D01*
X139797436Y-117450959D01*
X139809099Y-117470680D01*
X139881405Y-117592943D01*
X139881412Y-117592952D01*
X139998047Y-117709587D01*
X139998050Y-117709589D01*
X139998053Y-117709592D01*
X140054996Y-117743268D01*
X140102679Y-117794338D01*
X140115182Y-117863079D01*
X140088536Y-117927669D01*
X140054996Y-117956732D01*
X139998053Y-117990408D01*
X139998047Y-117990412D01*
X139881412Y-118107047D01*
X139881405Y-118107056D01*
X139797435Y-118249042D01*
X139797434Y-118249045D01*
X139751413Y-118407447D01*
X139751412Y-118407453D01*
X139748500Y-118444458D01*
X139748500Y-119795541D01*
X139751412Y-119832546D01*
X139751413Y-119832552D01*
X139797434Y-119990954D01*
X139797435Y-119990957D01*
X139881405Y-120132943D01*
X139881412Y-120132952D01*
X139998047Y-120249587D01*
X139998050Y-120249589D01*
X139998053Y-120249592D01*
X140054996Y-120283268D01*
X140102679Y-120334338D01*
X140115182Y-120403079D01*
X140088536Y-120467669D01*
X140054996Y-120496732D01*
X139998053Y-120530408D01*
X139998047Y-120530412D01*
X139881412Y-120647047D01*
X139881405Y-120647056D01*
X139797435Y-120789042D01*
X139797434Y-120789045D01*
X139751413Y-120947447D01*
X139751412Y-120947453D01*
X139748500Y-120984458D01*
X139748500Y-122335541D01*
X139751412Y-122372546D01*
X139751413Y-122372552D01*
X139797434Y-122530954D01*
X139797435Y-122530957D01*
X139881405Y-122672943D01*
X139881412Y-122672952D01*
X139998047Y-122789587D01*
X139998050Y-122789589D01*
X139998053Y-122789592D01*
X140054996Y-122823268D01*
X140102679Y-122874338D01*
X140115182Y-122943079D01*
X140088536Y-123007669D01*
X140054996Y-123036732D01*
X139998053Y-123070408D01*
X139998047Y-123070412D01*
X139881412Y-123187047D01*
X139881405Y-123187056D01*
X139797435Y-123329042D01*
X139797434Y-123329045D01*
X139751413Y-123487447D01*
X139751412Y-123487453D01*
X139748500Y-123524458D01*
X139748500Y-124875541D01*
X139751412Y-124912546D01*
X139751413Y-124912552D01*
X139797434Y-125070954D01*
X139797435Y-125070957D01*
X139881405Y-125212943D01*
X139881412Y-125212952D01*
X139998047Y-125329587D01*
X139998050Y-125329589D01*
X139998053Y-125329592D01*
X140054996Y-125363268D01*
X140102679Y-125414338D01*
X140115182Y-125483079D01*
X140088536Y-125547669D01*
X140054996Y-125576731D01*
X139998053Y-125610408D01*
X139998047Y-125610412D01*
X139881412Y-125727047D01*
X139881405Y-125727056D01*
X139797435Y-125869042D01*
X139797434Y-125869045D01*
X139751413Y-126027447D01*
X139751412Y-126027453D01*
X139748500Y-126064458D01*
X139748500Y-127415541D01*
X139751412Y-127452546D01*
X139751413Y-127452552D01*
X139797434Y-127610954D01*
X139797435Y-127610957D01*
X139881405Y-127752943D01*
X139881412Y-127752952D01*
X139998047Y-127869587D01*
X139998050Y-127869589D01*
X139998053Y-127869592D01*
X140054502Y-127902976D01*
X140054996Y-127903268D01*
X140102679Y-127954338D01*
X140115182Y-128023079D01*
X140088536Y-128087669D01*
X140054996Y-128116731D01*
X139998053Y-128150408D01*
X139998047Y-128150412D01*
X139881412Y-128267047D01*
X139881405Y-128267056D01*
X139797435Y-128409042D01*
X139797434Y-128409045D01*
X139751413Y-128567447D01*
X139751412Y-128567453D01*
X139748500Y-128604458D01*
X139748500Y-129955544D01*
X139751770Y-129997094D01*
X139745237Y-130028190D01*
X139740365Y-130059587D01*
X139738105Y-130062136D01*
X139737405Y-130065471D01*
X139715098Y-130088097D01*
X139694024Y-130111878D01*
X139690744Y-130112801D01*
X139688353Y-130115227D01*
X139657354Y-130122202D01*
X139626769Y-130130813D01*
X139622221Y-130130107D01*
X139620187Y-130130565D01*
X139591893Y-130125401D01*
X139419697Y-130072747D01*
X139413507Y-130070675D01*
X137804650Y-129484502D01*
X137798641Y-129482133D01*
X136626193Y-128984364D01*
X136225967Y-128814445D01*
X136220157Y-128811801D01*
X136186403Y-128795370D01*
X134685782Y-128064880D01*
X134680174Y-128061971D01*
X133186290Y-127238126D01*
X133180898Y-127234973D01*
X131729637Y-126336479D01*
X131724468Y-126333097D01*
X130555173Y-125525953D01*
X130318108Y-125362311D01*
X130313171Y-125358721D01*
X130275126Y-125329591D01*
X129107913Y-124435881D01*
X128953846Y-124317915D01*
X128949134Y-124314122D01*
X127639042Y-123205600D01*
X127634562Y-123201619D01*
X126375991Y-122027771D01*
X126371744Y-122023616D01*
X125166829Y-120786700D01*
X125162816Y-120782379D01*
X124013813Y-119484769D01*
X124010034Y-119480292D01*
X122919181Y-118124352D01*
X122915636Y-118119727D01*
X122494696Y-117542979D01*
X121885081Y-116707718D01*
X121881798Y-116702990D01*
X121878270Y-116697648D01*
X130799500Y-116697648D01*
X130799500Y-116902351D01*
X130831522Y-117104534D01*
X130894781Y-117299223D01*
X130910310Y-117329699D01*
X130986720Y-117479662D01*
X130987715Y-117481613D01*
X131108028Y-117647213D01*
X131252786Y-117791971D01*
X131395273Y-117895492D01*
X131418390Y-117912287D01*
X131534607Y-117971503D01*
X131600776Y-118005218D01*
X131600778Y-118005218D01*
X131600781Y-118005220D01*
X131705137Y-118039127D01*
X131795465Y-118068477D01*
X131896557Y-118084488D01*
X131997648Y-118100500D01*
X131997649Y-118100500D01*
X132202351Y-118100500D01*
X132202352Y-118100500D01*
X132404534Y-118068477D01*
X132599219Y-118005220D01*
X132781610Y-117912287D01*
X132898495Y-117827366D01*
X132947213Y-117791971D01*
X132947215Y-117791968D01*
X132947219Y-117791966D01*
X133091966Y-117647219D01*
X133091968Y-117647215D01*
X133091971Y-117647213D01*
X133144732Y-117574590D01*
X133212287Y-117481610D01*
X133305220Y-117299219D01*
X133368477Y-117104534D01*
X133400500Y-116902352D01*
X133400500Y-116697648D01*
X135599500Y-116697648D01*
X135599500Y-116902351D01*
X135631522Y-117104534D01*
X135694781Y-117299223D01*
X135710310Y-117329699D01*
X135786720Y-117479662D01*
X135787715Y-117481613D01*
X135908028Y-117647213D01*
X136052786Y-117791971D01*
X136195273Y-117895492D01*
X136218390Y-117912287D01*
X136334607Y-117971503D01*
X136400776Y-118005218D01*
X136400778Y-118005218D01*
X136400781Y-118005220D01*
X136505137Y-118039127D01*
X136595465Y-118068477D01*
X136696557Y-118084488D01*
X136797648Y-118100500D01*
X136797649Y-118100500D01*
X137002351Y-118100500D01*
X137002352Y-118100500D01*
X137204534Y-118068477D01*
X137399219Y-118005220D01*
X137581610Y-117912287D01*
X137698495Y-117827366D01*
X137747213Y-117791971D01*
X137747215Y-117791968D01*
X137747219Y-117791966D01*
X137891966Y-117647219D01*
X137891968Y-117647215D01*
X137891971Y-117647213D01*
X137944732Y-117574590D01*
X138012287Y-117481610D01*
X138105220Y-117299219D01*
X138168477Y-117104534D01*
X138200500Y-116902352D01*
X138200500Y-116697648D01*
X138168477Y-116495466D01*
X138163659Y-116480639D01*
X138105218Y-116300776D01*
X138071503Y-116234607D01*
X138012287Y-116118390D01*
X137995560Y-116095367D01*
X137891971Y-115952786D01*
X137747213Y-115808028D01*
X137581613Y-115687715D01*
X137581612Y-115687714D01*
X137581610Y-115687713D01*
X137524653Y-115658691D01*
X137399223Y-115594781D01*
X137204534Y-115531522D01*
X137029995Y-115503878D01*
X137002352Y-115499500D01*
X136797648Y-115499500D01*
X136773329Y-115503351D01*
X136595465Y-115531522D01*
X136400776Y-115594781D01*
X136218386Y-115687715D01*
X136052786Y-115808028D01*
X135908028Y-115952786D01*
X135787715Y-116118386D01*
X135694781Y-116300776D01*
X135631522Y-116495465D01*
X135599500Y-116697648D01*
X133400500Y-116697648D01*
X133368477Y-116495466D01*
X133363659Y-116480639D01*
X133305218Y-116300776D01*
X133271503Y-116234607D01*
X133212287Y-116118390D01*
X133195560Y-116095367D01*
X133091971Y-115952786D01*
X132947213Y-115808028D01*
X132781613Y-115687715D01*
X132781612Y-115687714D01*
X132781610Y-115687713D01*
X132724653Y-115658691D01*
X132599223Y-115594781D01*
X132404534Y-115531522D01*
X132229995Y-115503878D01*
X132202352Y-115499500D01*
X131997648Y-115499500D01*
X131973329Y-115503351D01*
X131795465Y-115531522D01*
X131600776Y-115594781D01*
X131418386Y-115687715D01*
X131252786Y-115808028D01*
X131108028Y-115952786D01*
X130987715Y-116118386D01*
X130894781Y-116300776D01*
X130831522Y-116495465D01*
X130799500Y-116697648D01*
X121878270Y-116697648D01*
X121866192Y-116679361D01*
X120913833Y-115237358D01*
X120910759Y-115232459D01*
X120900021Y-115214425D01*
X120700590Y-114879474D01*
X120344465Y-114281350D01*
X120007563Y-113715511D01*
X120004731Y-113710493D01*
X119997890Y-113697682D01*
X130800000Y-113697682D01*
X130800000Y-113902317D01*
X130832009Y-114104417D01*
X130895244Y-114299031D01*
X130988141Y-114481350D01*
X130988147Y-114481359D01*
X131020523Y-114525921D01*
X131020524Y-114525922D01*
X131617038Y-113929408D01*
X131634076Y-113992992D01*
X131699902Y-114107006D01*
X131792994Y-114200098D01*
X131907008Y-114265924D01*
X131970590Y-114282961D01*
X131374076Y-114879474D01*
X131418650Y-114911859D01*
X131600968Y-115004755D01*
X131795582Y-115067990D01*
X131997683Y-115100000D01*
X132202317Y-115100000D01*
X132404417Y-115067990D01*
X132599031Y-115004755D01*
X132781349Y-114911859D01*
X132825921Y-114879474D01*
X132229408Y-114282961D01*
X132292992Y-114265924D01*
X132407006Y-114200098D01*
X132500098Y-114107006D01*
X132565924Y-113992992D01*
X132582961Y-113929408D01*
X133179474Y-114525921D01*
X133211859Y-114481349D01*
X133304755Y-114299031D01*
X133367990Y-114104417D01*
X133400000Y-113902317D01*
X133400000Y-113697682D01*
X135600000Y-113697682D01*
X135600000Y-113902317D01*
X135632009Y-114104417D01*
X135695244Y-114299031D01*
X135788141Y-114481350D01*
X135788147Y-114481359D01*
X135820523Y-114525921D01*
X135820524Y-114525922D01*
X136417038Y-113929408D01*
X136434076Y-113992992D01*
X136499902Y-114107006D01*
X136592994Y-114200098D01*
X136707008Y-114265924D01*
X136770590Y-114282961D01*
X136174076Y-114879474D01*
X136218650Y-114911859D01*
X136400968Y-115004755D01*
X136595582Y-115067990D01*
X136797683Y-115100000D01*
X137002317Y-115100000D01*
X137204417Y-115067990D01*
X137399031Y-115004755D01*
X137581349Y-114911859D01*
X137625921Y-114879474D01*
X137029408Y-114282961D01*
X137092992Y-114265924D01*
X137207006Y-114200098D01*
X137300098Y-114107006D01*
X137365924Y-113992992D01*
X137382961Y-113929408D01*
X137979474Y-114525921D01*
X138011859Y-114481349D01*
X138104755Y-114299031D01*
X138167990Y-114104417D01*
X138200000Y-113902317D01*
X138200000Y-113697682D01*
X138167990Y-113495582D01*
X138104755Y-113300968D01*
X138011859Y-113118650D01*
X137979474Y-113074077D01*
X137979474Y-113074076D01*
X137382961Y-113670590D01*
X137365924Y-113607008D01*
X137300098Y-113492994D01*
X137207006Y-113399902D01*
X137092992Y-113334076D01*
X137029407Y-113317038D01*
X137625922Y-112720524D01*
X137625921Y-112720523D01*
X137581359Y-112688147D01*
X137581350Y-112688141D01*
X137399031Y-112595244D01*
X137204417Y-112532009D01*
X137002317Y-112500000D01*
X136797683Y-112500000D01*
X136595582Y-112532009D01*
X136400968Y-112595244D01*
X136218644Y-112688143D01*
X136174077Y-112720523D01*
X136174077Y-112720524D01*
X136770592Y-113317038D01*
X136707008Y-113334076D01*
X136592994Y-113399902D01*
X136499902Y-113492994D01*
X136434076Y-113607008D01*
X136417038Y-113670591D01*
X135820524Y-113074077D01*
X135820523Y-113074077D01*
X135788143Y-113118644D01*
X135695244Y-113300968D01*
X135632009Y-113495582D01*
X135600000Y-113697682D01*
X133400000Y-113697682D01*
X133367990Y-113495582D01*
X133304755Y-113300968D01*
X133211859Y-113118650D01*
X133179474Y-113074077D01*
X133179474Y-113074076D01*
X132582961Y-113670590D01*
X132565924Y-113607008D01*
X132500098Y-113492994D01*
X132407006Y-113399902D01*
X132292992Y-113334076D01*
X132229407Y-113317038D01*
X132825922Y-112720524D01*
X132825921Y-112720523D01*
X132781359Y-112688147D01*
X132781350Y-112688141D01*
X132599031Y-112595244D01*
X132404417Y-112532009D01*
X132202317Y-112500000D01*
X131997683Y-112500000D01*
X131795582Y-112532009D01*
X131600968Y-112595244D01*
X131418644Y-112688143D01*
X131374077Y-112720523D01*
X131374077Y-112720524D01*
X131970592Y-113317038D01*
X131907008Y-113334076D01*
X131792994Y-113399902D01*
X131699902Y-113492994D01*
X131634076Y-113607008D01*
X131617038Y-113670591D01*
X131020524Y-113074077D01*
X131020523Y-113074077D01*
X130988143Y-113118644D01*
X130895244Y-113300968D01*
X130832009Y-113495582D01*
X130800000Y-113697682D01*
X119997890Y-113697682D01*
X119980878Y-113665826D01*
X119632902Y-113014198D01*
X119532506Y-112826194D01*
X119168511Y-112144570D01*
X119165915Y-112139423D01*
X118616002Y-110983337D01*
X118398913Y-110526949D01*
X118396561Y-110521692D01*
X117700924Y-108864895D01*
X117698827Y-108859556D01*
X117076792Y-107160850D01*
X117074956Y-107155450D01*
X116528711Y-105417153D01*
X116527112Y-105411614D01*
X116119493Y-103865977D01*
X116058872Y-103636110D01*
X116057528Y-103630480D01*
X116025386Y-103480521D01*
X115669489Y-101820092D01*
X115668414Y-101814435D01*
X115457927Y-100545258D01*
X135664500Y-100545258D01*
X135664500Y-100774741D01*
X135689446Y-100964215D01*
X135694452Y-101002238D01*
X135731006Y-101138662D01*
X135753842Y-101223887D01*
X135841650Y-101435876D01*
X135841657Y-101435890D01*
X135956392Y-101634617D01*
X136096081Y-101816661D01*
X136096089Y-101816670D01*
X136258330Y-101978911D01*
X136258338Y-101978918D01*
X136258339Y-101978919D01*
X136291239Y-102004164D01*
X136440382Y-102118607D01*
X136440385Y-102118608D01*
X136440388Y-102118611D01*
X136639112Y-102233344D01*
X136639117Y-102233346D01*
X136639123Y-102233349D01*
X136730480Y-102271190D01*
X136851113Y-102321158D01*
X137072762Y-102380548D01*
X137300266Y-102410500D01*
X137300273Y-102410500D01*
X137529727Y-102410500D01*
X137529734Y-102410500D01*
X137757238Y-102380548D01*
X137978887Y-102321158D01*
X138190888Y-102233344D01*
X138389612Y-102118611D01*
X138571661Y-101978919D01*
X138571665Y-101978914D01*
X138571670Y-101978911D01*
X138733911Y-101816670D01*
X138733914Y-101816665D01*
X138733919Y-101816661D01*
X138873611Y-101634612D01*
X138988344Y-101435888D01*
X139076158Y-101223887D01*
X139135548Y-101002238D01*
X139165500Y-100774734D01*
X139165500Y-100545266D01*
X139135548Y-100317762D01*
X139076158Y-100096113D01*
X138988344Y-99884112D01*
X138873611Y-99685388D01*
X138873608Y-99685385D01*
X138873607Y-99685382D01*
X138733918Y-99503338D01*
X138733911Y-99503330D01*
X138571670Y-99341089D01*
X138571661Y-99341081D01*
X138389617Y-99201392D01*
X138190890Y-99086657D01*
X138190876Y-99086650D01*
X137978887Y-98998842D01*
X137757238Y-98939452D01*
X137719215Y-98934446D01*
X137529741Y-98909500D01*
X137529734Y-98909500D01*
X137300266Y-98909500D01*
X137300258Y-98909500D01*
X137083715Y-98938009D01*
X137072762Y-98939452D01*
X136979076Y-98964554D01*
X136851112Y-98998842D01*
X136639123Y-99086650D01*
X136639109Y-99086657D01*
X136440382Y-99201392D01*
X136258338Y-99341081D01*
X136096081Y-99503338D01*
X135956392Y-99685382D01*
X135841657Y-99884109D01*
X135841650Y-99884123D01*
X135753842Y-100096112D01*
X135694453Y-100317759D01*
X135694451Y-100317770D01*
X135664500Y-100545258D01*
X115457927Y-100545258D01*
X115362764Y-99971455D01*
X115361950Y-99965719D01*
X115358581Y-99937171D01*
X115140896Y-98092480D01*
X115140351Y-98086692D01*
X115013037Y-96283783D01*
X115006099Y-96185539D01*
X115005828Y-96179764D01*
X114960581Y-94252892D01*
X114960581Y-94247086D01*
X114968544Y-93908004D01*
X114999238Y-92600853D01*
X124564500Y-92600853D01*
X124564500Y-92876188D01*
X124564501Y-92876205D01*
X124600438Y-93149176D01*
X124600439Y-93149181D01*
X124600440Y-93149187D01*
X124600441Y-93149189D01*
X124671704Y-93415151D01*
X124777075Y-93669538D01*
X124777080Y-93669549D01*
X124856809Y-93807642D01*
X124914751Y-93908000D01*
X124914753Y-93908003D01*
X124914754Y-93908004D01*
X125082370Y-94126447D01*
X125082376Y-94126454D01*
X125277066Y-94321144D01*
X125277072Y-94321149D01*
X125495521Y-94488770D01*
X125648778Y-94577253D01*
X125733971Y-94626440D01*
X125733976Y-94626442D01*
X125733979Y-94626444D01*
X125988368Y-94731816D01*
X126254334Y-94803081D01*
X126527326Y-94839021D01*
X126527333Y-94839021D01*
X126802667Y-94839021D01*
X126802674Y-94839021D01*
X127075666Y-94803081D01*
X127341632Y-94731816D01*
X127596021Y-94626444D01*
X127834479Y-94488770D01*
X128052928Y-94321149D01*
X128247628Y-94126449D01*
X128415249Y-93908000D01*
X128552923Y-93669542D01*
X128658295Y-93415153D01*
X128729560Y-93149187D01*
X128765500Y-92876195D01*
X128765500Y-92600847D01*
X128729560Y-92327855D01*
X128658295Y-92061889D01*
X128552923Y-91807500D01*
X128552921Y-91807497D01*
X128552919Y-91807492D01*
X128503732Y-91722299D01*
X128415249Y-91569042D01*
X128247628Y-91350593D01*
X128247623Y-91350587D01*
X128052933Y-91155897D01*
X128052926Y-91155891D01*
X127834483Y-90988275D01*
X127834482Y-90988274D01*
X127834479Y-90988272D01*
X127731997Y-90929104D01*
X127596028Y-90850601D01*
X127596017Y-90850596D01*
X127341630Y-90745225D01*
X127204001Y-90708348D01*
X127075666Y-90673961D01*
X127075660Y-90673960D01*
X127075655Y-90673959D01*
X126802684Y-90638022D01*
X126802679Y-90638021D01*
X126802674Y-90638021D01*
X126527326Y-90638021D01*
X126527320Y-90638021D01*
X126527315Y-90638022D01*
X126254344Y-90673959D01*
X126254337Y-90673960D01*
X126254334Y-90673961D01*
X126198125Y-90689021D01*
X125988369Y-90745225D01*
X125733982Y-90850596D01*
X125733971Y-90850601D01*
X125495516Y-90988275D01*
X125277073Y-91155891D01*
X125277066Y-91155897D01*
X125082376Y-91350587D01*
X125082370Y-91350594D01*
X124914754Y-91569037D01*
X124777080Y-91807492D01*
X124777075Y-91807503D01*
X124671704Y-92061890D01*
X124630354Y-92216212D01*
X124601391Y-92324308D01*
X124600441Y-92327852D01*
X124600438Y-92327865D01*
X124564501Y-92600836D01*
X124564500Y-92600853D01*
X114999238Y-92600853D01*
X115005828Y-92320227D01*
X115006099Y-92314456D01*
X115140352Y-90413287D01*
X115140897Y-90407503D01*
X115145676Y-90367007D01*
X115361953Y-88534247D01*
X115362763Y-88528543D01*
X115668415Y-86685550D01*
X115669487Y-86679908D01*
X116057530Y-84869502D01*
X116058873Y-84863882D01*
X116527119Y-83088354D01*
X116528716Y-83082827D01*
X117074960Y-81344532D01*
X117076787Y-81339158D01*
X117698837Y-79640410D01*
X117700918Y-79635115D01*
X118396569Y-77978283D01*
X118398906Y-77973061D01*
X119165925Y-76360550D01*
X119168499Y-76355446D01*
X120004746Y-74789476D01*
X120007552Y-74784503D01*
X120910771Y-73267516D01*
X120913821Y-73262656D01*
X121881817Y-71796977D01*
X121885086Y-71792271D01*
X122915640Y-70380264D01*
X122919181Y-70375645D01*
X123364684Y-69821881D01*
X124010044Y-69019693D01*
X124013813Y-69015228D01*
X124627372Y-68322314D01*
X125162825Y-67717606D01*
X125166829Y-67713296D01*
X126371761Y-66476363D01*
X126375972Y-66472243D01*
X127634583Y-65298358D01*
X127639019Y-65294416D01*
X128752619Y-64352155D01*
X146875000Y-64352155D01*
X146875000Y-65000000D01*
X147791988Y-65000000D01*
X147759075Y-65057007D01*
X147725000Y-65184174D01*
X147725000Y-65315826D01*
X147759075Y-65442993D01*
X147791988Y-65500000D01*
X146875000Y-65500000D01*
X146875000Y-66147844D01*
X146881401Y-66207372D01*
X146881403Y-66207379D01*
X146931645Y-66342086D01*
X146931649Y-66342093D01*
X147017809Y-66457187D01*
X147017812Y-66457190D01*
X147132906Y-66543350D01*
X147132913Y-66543354D01*
X147267620Y-66593596D01*
X147267627Y-66593598D01*
X147327155Y-66599999D01*
X147327172Y-66600000D01*
X147975000Y-66600000D01*
X147975000Y-65683012D01*
X148032007Y-65715925D01*
X148159174Y-65750000D01*
X148290826Y-65750000D01*
X148417993Y-65715925D01*
X148475000Y-65683012D01*
X148475000Y-66600000D01*
X149122828Y-66600000D01*
X149122844Y-66599999D01*
X149182372Y-66593598D01*
X149182379Y-66593596D01*
X149317086Y-66543354D01*
X149317093Y-66543350D01*
X149432187Y-66457190D01*
X149432190Y-66457187D01*
X149518350Y-66342093D01*
X149518354Y-66342086D01*
X149567422Y-66210529D01*
X149609293Y-66154595D01*
X149674757Y-66130178D01*
X149743030Y-66145030D01*
X149771285Y-66166181D01*
X149885213Y-66280109D01*
X150057179Y-66405048D01*
X150057181Y-66405049D01*
X150057184Y-66405051D01*
X150246588Y-66501557D01*
X150448757Y-66567246D01*
X150658713Y-66600500D01*
X150658714Y-66600500D01*
X150871286Y-66600500D01*
X150871287Y-66600500D01*
X151081243Y-66567246D01*
X151283412Y-66501557D01*
X151472816Y-66405051D01*
X151559471Y-66342093D01*
X151644786Y-66280109D01*
X151644788Y-66280106D01*
X151644792Y-66280104D01*
X151795104Y-66129792D01*
X151795106Y-66129788D01*
X151795109Y-66129786D01*
X151920048Y-65957820D01*
X151920047Y-65957820D01*
X151920051Y-65957816D01*
X152016557Y-65768412D01*
X152082246Y-65566243D01*
X152115500Y-65356287D01*
X152115500Y-65143713D01*
X152082246Y-64933757D01*
X152016557Y-64731588D01*
X151920051Y-64542184D01*
X151920049Y-64542181D01*
X151920048Y-64542179D01*
X151795109Y-64370213D01*
X151644786Y-64219890D01*
X151472820Y-64094951D01*
X151283414Y-63998444D01*
X151283413Y-63998443D01*
X151283412Y-63998443D01*
X151081243Y-63932754D01*
X151081241Y-63932753D01*
X151081240Y-63932753D01*
X150919957Y-63907208D01*
X150871287Y-63899500D01*
X150658713Y-63899500D01*
X150610042Y-63907208D01*
X150448760Y-63932753D01*
X150246585Y-63998444D01*
X150057179Y-64094951D01*
X149885215Y-64219889D01*
X149771285Y-64333819D01*
X149709962Y-64367303D01*
X149640270Y-64362319D01*
X149584337Y-64320447D01*
X149567422Y-64289470D01*
X149518354Y-64157913D01*
X149518350Y-64157906D01*
X149432190Y-64042812D01*
X149432187Y-64042809D01*
X149317093Y-63956649D01*
X149317086Y-63956645D01*
X149182379Y-63906403D01*
X149182372Y-63906401D01*
X149122844Y-63900000D01*
X148475000Y-63900000D01*
X148475000Y-64816988D01*
X148417993Y-64784075D01*
X148290826Y-64750000D01*
X148159174Y-64750000D01*
X148032007Y-64784075D01*
X147975000Y-64816988D01*
X147975000Y-63900000D01*
X147327155Y-63900000D01*
X147267627Y-63906401D01*
X147267620Y-63906403D01*
X147132913Y-63956645D01*
X147132906Y-63956649D01*
X147017812Y-64042809D01*
X147017809Y-64042812D01*
X146931649Y-64157906D01*
X146931645Y-64157913D01*
X146881403Y-64292620D01*
X146881401Y-64292627D01*
X146875000Y-64352155D01*
X128752619Y-64352155D01*
X128949134Y-64185876D01*
X128953821Y-64182101D01*
X130313203Y-63141252D01*
X130318081Y-63137705D01*
X131724486Y-62166888D01*
X131729613Y-62163532D01*
X133180903Y-61265021D01*
X133186265Y-61261885D01*
X134680204Y-60438010D01*
X134685749Y-60435134D01*
X135348872Y-60112332D01*
X147249500Y-60112332D01*
X147249500Y-60387667D01*
X147249501Y-60387684D01*
X147285438Y-60660655D01*
X147285439Y-60660660D01*
X147285440Y-60660666D01*
X147285441Y-60660668D01*
X147356704Y-60926630D01*
X147462075Y-61181017D01*
X147462080Y-61181028D01*
X147526484Y-61292577D01*
X147599751Y-61419479D01*
X147599753Y-61419482D01*
X147599754Y-61419483D01*
X147767370Y-61637926D01*
X147767376Y-61637933D01*
X147962066Y-61832623D01*
X147962072Y-61832628D01*
X148180521Y-62000249D01*
X148333778Y-62088732D01*
X148418971Y-62137919D01*
X148418976Y-62137921D01*
X148418979Y-62137923D01*
X148673368Y-62243295D01*
X148939334Y-62314560D01*
X149212326Y-62350500D01*
X149212333Y-62350500D01*
X149487667Y-62350500D01*
X149487674Y-62350500D01*
X149760666Y-62314560D01*
X150026632Y-62243295D01*
X150281021Y-62137923D01*
X150519479Y-62000249D01*
X150737928Y-61832628D01*
X150932628Y-61637928D01*
X151100249Y-61419479D01*
X151237923Y-61181021D01*
X151343295Y-60926632D01*
X151414560Y-60660666D01*
X151450500Y-60387674D01*
X151450500Y-60112326D01*
X151414560Y-59839334D01*
X151343295Y-59573368D01*
X151237923Y-59318979D01*
X151237921Y-59318976D01*
X151237919Y-59318971D01*
X151188732Y-59233778D01*
X151100249Y-59080521D01*
X150932628Y-58862072D01*
X150932623Y-58862066D01*
X150737933Y-58667376D01*
X150737926Y-58667370D01*
X150519483Y-58499754D01*
X150519482Y-58499753D01*
X150519479Y-58499751D01*
X150395565Y-58428209D01*
X150281028Y-58362080D01*
X150281017Y-58362075D01*
X150026630Y-58256704D01*
X149893649Y-58221072D01*
X149760666Y-58185440D01*
X149760660Y-58185439D01*
X149760655Y-58185438D01*
X149487684Y-58149501D01*
X149487679Y-58149500D01*
X149487674Y-58149500D01*
X149212326Y-58149500D01*
X149212320Y-58149500D01*
X149212315Y-58149501D01*
X148939344Y-58185438D01*
X148939337Y-58185439D01*
X148939334Y-58185440D01*
X148883125Y-58200500D01*
X148673369Y-58256704D01*
X148418982Y-58362075D01*
X148418971Y-58362080D01*
X148180516Y-58499754D01*
X147962073Y-58667370D01*
X147962066Y-58667376D01*
X147767376Y-58862066D01*
X147767370Y-58862073D01*
X147599754Y-59080516D01*
X147462080Y-59318971D01*
X147462075Y-59318982D01*
X147356704Y-59573369D01*
X147285441Y-59839331D01*
X147285438Y-59839344D01*
X147249501Y-60112315D01*
X147249500Y-60112332D01*
X135348872Y-60112332D01*
X136220193Y-59688181D01*
X136225934Y-59685567D01*
X137798669Y-59017854D01*
X137804621Y-59015508D01*
X139413515Y-58429321D01*
X139419688Y-58427254D01*
X141062569Y-57924905D01*
X141068887Y-57923155D01*
X142743697Y-57506923D01*
X142750138Y-57505504D01*
X144454788Y-57177701D01*
X144461330Y-57176626D01*
X146193688Y-56939581D01*
X146200303Y-56938859D01*
X147958300Y-56794906D01*
X147965031Y-56794539D01*
X149746659Y-56746026D01*
X149753343Y-56746026D01*
X151534968Y-56794539D01*
G37*
%TD.AperFunction*%
%TD*%
M02*
